<svg width="60" height="84" viewBox="0 0 60 84" fill="none" xmlns="http://www.w3.org/2000/svg">
<path d="M15.432 70.2C16.2907 70.2 16.9393 70.41 17.378 70.83C17.826 71.25 18.05 71.8613 18.05 72.664C18.05 73.084 17.9473 73.4667 17.742 73.812C17.546 74.148 17.252 74.414 16.86 74.61C16.4773 74.806 15.9967 74.9087 15.418 74.918L15.446 74.4C15.754 74.4 16.0853 74.442 16.44 74.526C16.804 74.61 17.1447 74.7547 17.462 74.96C17.7793 75.1653 18.0407 75.4453 18.246 75.8C18.4513 76.1453 18.554 76.5793 18.554 77.102C18.554 77.6713 18.4607 78.1473 18.274 78.53C18.0873 78.9033 17.84 79.1973 17.532 79.412C17.224 79.6267 16.8833 79.7807 16.51 79.874C16.146 79.958 15.7867 80 15.432 80H11.848C11.652 80 11.484 79.9347 11.344 79.804C11.204 79.664 11.134 79.4913 11.134 79.286V70.914C11.134 70.7087 11.204 70.5407 11.344 70.41C11.484 70.27 11.652 70.2 11.848 70.2H15.432ZM15.236 71.572H12.478L12.646 71.348V74.358L12.492 74.204H15.264C15.6 74.1947 15.894 74.0827 16.146 73.868C16.4073 73.644 16.538 73.3173 16.538 72.888C16.538 72.4493 16.4213 72.1227 16.188 71.908C15.9547 71.684 15.6373 71.572 15.236 71.572ZM15.334 75.576H12.548L12.646 75.478V78.782L12.534 78.656H15.418C15.9033 78.656 16.2953 78.53 16.594 78.278C16.8927 78.0167 17.042 77.6247 17.042 77.102C17.042 76.6633 16.9533 76.3367 16.776 76.122C16.5987 75.9073 16.3793 75.7627 16.118 75.688C15.8567 75.6133 15.5953 75.576 15.334 75.576ZM26.1742 72.524C26.3795 72.524 26.5475 72.594 26.6782 72.734C26.8088 72.8647 26.8742 73.0327 26.8742 73.238V79.286C26.8742 79.4913 26.8088 79.664 26.6782 79.804C26.5475 79.9347 26.3795 80 26.1742 80C25.9782 80 25.8102 79.9347 25.6702 79.804C25.5395 79.664 25.4742 79.4913 25.4742 79.286V78.278L25.7682 78.32C25.7682 78.488 25.6982 78.6747 25.5582 78.88C25.4275 79.0853 25.2455 79.286 25.0122 79.482C24.7788 79.6687 24.5035 79.8273 24.1862 79.958C23.8688 80.0793 23.5282 80.14 23.1642 80.14C22.5202 80.14 21.9415 79.9767 21.4282 79.65C20.9148 79.314 20.5088 78.8567 20.2102 78.278C19.9115 77.6993 19.7622 77.0413 19.7622 76.304C19.7622 75.548 19.9115 74.8853 20.2102 74.316C20.5088 73.7373 20.9102 73.2847 21.4142 72.958C21.9275 72.6313 22.4968 72.468 23.1222 72.468C23.5235 72.468 23.8922 72.5333 24.2282 72.664C24.5735 72.7947 24.8722 72.9627 25.1242 73.168C25.3762 73.3733 25.5675 73.5927 25.6982 73.826C25.8382 74.05 25.9082 74.2647 25.9082 74.47L25.4742 74.512V73.238C25.4742 73.042 25.5395 72.874 25.6702 72.734C25.8102 72.594 25.9782 72.524 26.1742 72.524ZM23.3182 78.852C23.7568 78.852 24.1442 78.74 24.4802 78.516C24.8162 78.292 25.0775 77.9887 25.2642 77.606C25.4508 77.214 25.5442 76.78 25.5442 76.304C25.5442 75.8187 25.4508 75.3847 25.2642 75.002C25.0775 74.6193 24.8162 74.316 24.4802 74.092C24.1442 73.868 23.7568 73.756 23.3182 73.756C22.8888 73.756 22.5062 73.868 22.1702 74.092C21.8435 74.316 21.5822 74.6193 21.3862 75.002C21.1995 75.3847 21.1062 75.8187 21.1062 76.304C21.1062 76.78 21.1995 77.214 21.3862 77.606C21.5822 77.9887 21.8435 78.292 22.1702 78.516C22.5062 78.74 22.8888 78.852 23.3182 78.852ZM34.3095 72.58C34.5148 72.58 34.6828 72.65 34.8135 72.79C34.9441 72.9207 35.0095 73.0887 35.0095 73.294V79.314C35.0095 80.1353 34.8508 80.8027 34.5335 81.316C34.2255 81.8293 33.8055 82.2027 33.2735 82.436C32.7508 82.6787 32.1581 82.8 31.4955 82.8C31.1595 82.8 30.8235 82.7673 30.4875 82.702C30.1515 82.646 29.8761 82.562 29.6615 82.45C29.4375 82.3473 29.2788 82.2213 29.1855 82.072C29.0921 81.9227 29.0781 81.7593 29.1435 81.582C29.2088 81.358 29.3208 81.204 29.4795 81.12C29.6381 81.0453 29.8015 81.0407 29.9695 81.106C30.1281 81.1713 30.3381 81.2553 30.5995 81.358C30.8608 81.4607 31.1595 81.512 31.4955 81.512C31.9528 81.512 32.3401 81.4373 32.6575 81.288C32.9748 81.1387 33.2128 80.9053 33.3715 80.588C33.5395 80.2707 33.6235 79.86 33.6235 79.356V78.39L33.8475 78.726C33.6981 79.034 33.5021 79.2907 33.2595 79.496C33.0168 79.7013 32.7275 79.86 32.3915 79.972C32.0648 80.084 31.7008 80.14 31.2995 80.14C30.7861 80.14 30.3428 80.028 29.9695 79.804C29.6055 79.5707 29.3255 79.2533 29.1295 78.852C28.9335 78.4413 28.8355 77.9747 28.8355 77.452V73.294C28.8355 73.0887 28.9008 72.9207 29.0315 72.79C29.1621 72.65 29.3301 72.58 29.5355 72.58C29.7315 72.58 29.8948 72.65 30.0255 72.79C30.1655 72.9207 30.2355 73.0887 30.2355 73.294V77.074C30.2355 77.69 30.3708 78.1427 30.6415 78.432C30.9121 78.712 31.3135 78.852 31.8455 78.852C32.2001 78.852 32.5081 78.7773 32.7695 78.628C33.0308 78.4787 33.2361 78.2733 33.3855 78.012C33.5348 77.7413 33.6095 77.4287 33.6095 77.074V73.294C33.6095 73.0887 33.6748 72.9207 33.8055 72.79C33.9455 72.65 34.1135 72.58 34.3095 72.58ZM43.0042 72.524C43.2096 72.524 43.3776 72.594 43.5082 72.734C43.6389 72.8647 43.7042 73.0327 43.7042 73.238V79.286C43.7042 79.4913 43.6389 79.664 43.5082 79.804C43.3776 79.9347 43.2096 80 43.0042 80C42.8082 80 42.6402 79.9347 42.5002 79.804C42.3696 79.664 42.3042 79.4913 42.3042 79.286V78.278L42.5982 78.32C42.5982 78.488 42.5282 78.6747 42.3882 78.88C42.2576 79.0853 42.0756 79.286 41.8422 79.482C41.6089 79.6687 41.3336 79.8273 41.0162 79.958C40.6989 80.0793 40.3582 80.14 39.9942 80.14C39.3502 80.14 38.7716 79.9767 38.2582 79.65C37.7449 79.314 37.3389 78.8567 37.0402 78.278C36.7416 77.6993 36.5922 77.0413 36.5922 76.304C36.5922 75.548 36.7416 74.8853 37.0402 74.316C37.3389 73.7373 37.7402 73.2847 38.2442 72.958C38.7576 72.6313 39.3269 72.468 39.9522 72.468C40.3536 72.468 40.7222 72.5333 41.0582 72.664C41.4036 72.7947 41.7022 72.9627 41.9542 73.168C42.2062 73.3733 42.3976 73.5927 42.5282 73.826C42.6682 74.05 42.7382 74.2647 42.7382 74.47L42.3042 74.512V73.238C42.3042 73.042 42.3696 72.874 42.5002 72.734C42.6402 72.594 42.8082 72.524 43.0042 72.524ZM40.1482 78.852C40.5869 78.852 40.9742 78.74 41.3102 78.516C41.6462 78.292 41.9076 77.9887 42.0942 77.606C42.2809 77.214 42.3742 76.78 42.3742 76.304C42.3742 75.8187 42.2809 75.3847 42.0942 75.002C41.9076 74.6193 41.6462 74.316 41.3102 74.092C40.9742 73.868 40.5869 73.756 40.1482 73.756C39.7189 73.756 39.3362 73.868 39.0002 74.092C38.6736 74.316 38.4122 74.6193 38.2162 75.002C38.0296 75.3847 37.9362 75.8187 37.9362 76.304C37.9362 76.78 38.0296 77.214 38.2162 77.606C38.4122 77.9887 38.6736 78.292 39.0002 78.516C39.3362 78.74 39.7189 78.852 40.1482 78.852ZM46.3655 80C46.1602 80 45.9922 79.9347 45.8615 79.804C45.7309 79.664 45.6655 79.4913 45.6655 79.286V73.35C45.6655 73.1447 45.7309 72.9767 45.8615 72.846C45.9922 72.706 46.1602 72.636 46.3655 72.636C46.5615 72.636 46.7249 72.706 46.8555 72.846C46.9955 72.9767 47.0655 73.1447 47.0655 73.35V74.918L46.9255 74.316C47.0002 74.0547 47.1122 73.812 47.2615 73.588C47.4202 73.364 47.6069 73.168 47.8215 73C48.0362 72.832 48.2742 72.7013 48.5355 72.608C48.8062 72.5147 49.0862 72.468 49.3755 72.468C49.6182 72.468 49.8282 72.5333 50.0055 72.664C50.1829 72.7947 50.2715 72.958 50.2715 73.154C50.2715 73.406 50.2062 73.5927 50.0755 73.714C49.9449 73.826 49.8002 73.882 49.6415 73.882C49.5015 73.882 49.3662 73.854 49.2355 73.798C49.1049 73.7327 48.9509 73.7 48.7735 73.7C48.5775 73.7 48.3769 73.7513 48.1715 73.854C47.9662 73.9567 47.7795 74.1107 47.6115 74.316C47.4435 74.512 47.3082 74.7453 47.2055 75.016C47.1122 75.2867 47.0655 75.59 47.0655 75.926V79.286C47.0655 79.4913 46.9955 79.664 46.8555 79.804C46.7249 79.9347 46.5615 80 46.3655 80Z" fill="black"/>
<rect width="60" height="60" rx="10" fill="#FAB464"/>
<path d="M30 46.6667C20.795 46.6667 13.3333 39.205 13.3333 30C13.3333 20.795 20.795 13.3333 30 13.3333C39.205 13.3333 46.6667 20.795 46.6667 30C46.6667 39.205 39.205 46.6667 30 46.6667ZM30 43.3333C33.5362 43.3333 36.9276 41.9286 39.4281 39.4281C41.9286 36.9276 43.3333 33.5362 43.3333 30C43.3333 26.4638 41.9286 23.0724 39.4281 20.5719C36.9276 18.0714 33.5362 16.6667 30 16.6667C26.4638 16.6667 23.0724 18.0714 20.5719 20.5719C18.0714 23.0724 16.6667 26.4638 16.6667 30C16.6667 33.5362 18.0714 36.9276 20.5719 39.4281C23.0724 41.9286 26.4638 43.3333 30 43.3333ZM24.1667 33.3333H33.3333C33.5543 33.3333 33.7663 33.2455 33.9226 33.0893C34.0789 32.933 34.1667 32.721 34.1667 32.5C34.1667 32.279 34.0789 32.067 33.9226 31.9107C33.7663 31.7545 33.5543 31.6667 33.3333 31.6667H26.6667C25.5616 31.6667 24.5018 31.2277 23.7204 30.4463C22.939 29.6649 22.5 28.6051 22.5 27.5C22.5 26.3949 22.939 25.3351 23.7204 24.5537C24.5018 23.7723 25.5616 23.3333 26.6667 23.3333H28.3333V20H31.6667V23.3333H35.8333V26.6667H26.6667C26.4456 26.6667 26.2337 26.7545 26.0774 26.9107C25.9211 27.067 25.8333 27.279 25.8333 27.5C25.8333 27.721 25.9211 27.933 26.0774 28.0893C26.2337 28.2455 26.4456 28.3333 26.6667 28.3333H33.3333C34.4384 28.3333 35.4982 28.7723 36.2796 29.5537C37.061 30.3351 37.5 31.3949 37.5 32.5C37.5 33.6051 37.061 34.6649 36.2796 35.4463C35.4982 36.2277 34.4384 36.6667 33.3333 36.6667H31.6667V40H28.3333V36.6667H24.1667V33.3333Z" fill="white"/>
</svg>
