<svg width="24" height="24" viewBox="0 0 24 24" fill="none" xmlns="http://www.w3.org/2000/svg">
<path d="M21 8C21 6.343 17.866 5 14 5C10.134 5 7 6.343 7 8M21 8V12C21 13.02 19.814 13.92 18 14.462C16.866 14.802 15.487 15 14 15C12.513 15 11.134 14.801 10 14.462C8.187 13.92 7 13.02 7 12V8M21 8C21 9.02 19.814 9.92 18 10.462C16.866 10.802 15.487 11 14 11C12.513 11 11.134 10.801 10 10.462C8.187 9.92 7 9.02 7 8" stroke="white" stroke-width="2" stroke-linecap="round" stroke-linejoin="round"/>
<path d="M3 12V16C3 17.02 4.187 17.92 6 18.462C7.134 18.802 8.513 19 10 19C11.487 19 12.866 18.801 14 18.462C15.813 17.92 17 17.02 17 16V15M3 12C3 10.803 4.635 9.77 7 9.289M3 12C3 13.02 4.187 13.92 6 14.462C7.134 14.802 8.513 15 10 15C10.695 15 11.366 14.957 12 14.876" stroke="white" stroke-width="2" stroke-linecap="round" stroke-linejoin="round"/>
</svg>
