<svg xmlns="http://www.w3.org/2000/svg" xmlns:xlink="http://www.w3.org/1999/xlink" viewBox="0 0 500 500"><defs><clipPath id="freepik--clip-path--inject-78"><path d="M359.53,324.48a22.32,22.32,0,0,1-12.22-3.34l-.17-.11-.34-.19c-7.81-5.32-12.11-16.2-12.11-30.69,0-18,6.73-39.11,18.48-58,10.2-16.48,23.27-29.87,36.82-37.7,7.95-4.59,15.73-7,22.47-7a23,23,0,0,1,9.93,2.09l.36.2.18.09c9.11,4.61,14.33,16.25,14.33,31.94,0,35.21-24.8,78.16-55.29,95.75C374,322.06,366.27,324.48,359.53,324.48Z" style="fill:none"></path></clipPath></defs><g id="freepik--Floor--inject-78"><ellipse id="freepik--floor--inject-78" cx="250.17" cy="340.24" rx="230.3" ry="132.96" style="fill:#f5f5f5"></ellipse></g><g id="freepik--Clouds--inject-78"><g id="freepik--clouds--inject-78"><path d="M121.13,58.64l-8.28,4.77a8.08,8.08,0,0,0,.07-1.09v-2.4c0-4.27-3-6-6.68-3.86a12.82,12.82,0,0,0-4,3.83c-.6-5.36-4.81-7.36-9.92-4.41-5.53,3.19-10,11-10,17.33V76.4a9.45,9.45,0,0,0,.85,4.15l-6.87,4a8.19,8.19,0,0,0-3.71,6.42c0,2.37,1.66,3.33,3.71,2.15L121.13,67.2a8.19,8.19,0,0,0,3.71-6.42C124.84,58.41,123.18,57.45,121.13,58.64Z" style="fill:#ebebeb"></path><path d="M156.53,82.74l-6.24,3.6a7.52,7.52,0,0,0,.05-.82V83.71c0-3.22-2.26-4.52-5.05-2.91a9.67,9.67,0,0,0-3,2.89c-.46-4-3.64-5.56-7.49-3.33a16.7,16.7,0,0,0-7.56,13.08v2.71a7.26,7.26,0,0,0,.64,3.13l-5.18,3a6.2,6.2,0,0,0-2.8,4.85c0,1.79,1.25,2.51,2.8,1.62l33.83-19.53a6.2,6.2,0,0,0,2.8-4.85C159.33,82.57,158.08,81.85,156.53,82.74Z" style="fill:#ebebeb"></path></g></g><g id="freepik--Plants--inject-78"><g id="freepik--plants--inject-78"><path d="M103.78,386.08l10.33-6s2.53-22.11.84-39.23c-2.36-24.06-17.9-53-36.44-46.21S87,326,93,346.39,103.78,386.08,103.78,386.08Z" style="fill:#204FA1"></path><path d="M103.78,386.08l10.33-6s2.53-22.11.84-39.23c-2.36-24.06-17.9-53-36.44-46.21S87,326,93,346.39,103.78,386.08,103.78,386.08Z" style="opacity:0.2"></path><path d="M109.21,383.57h0a.62.62,0,0,1-.6-.64c1.81-53.47-24.8-80.36-25.07-80.62a.63.63,0,1,1,.88-.89c.27.26,27.27,27.55,25.44,81.55A.62.62,0,0,1,109.21,383.57Z" style="fill:#fff"></path><path d="M98.27,390.35l7.35-4.24s1.25-15.17-6.19-33.61c-6.48-16-22.54-29.35-30.62-26.56s-7.89,8.53-4,14.54S92.78,360.82,98.27,390.35Z" style="fill:#204FA1"></path><path d="M102.15,388.74h0a.63.63,0,0,1-.63-.63c.15-33.8-31.59-56.65-31.91-56.88a.62.62,0,0,1,.72-1c.32.23,32.59,23.46,32.44,57.91A.62.62,0,0,1,102.15,388.74Z" style="fill:#fff"></path></g></g><g id="freepik--Device--inject-78"><g id="freepik--device--inject-78"><path d="M296.6,343.36l-64,37-.15-.08L208.1,366.21a13.13,13.13,0,0,1-5.9-12.92l9-46.92,64-37-9,46.92a13.13,13.13,0,0,0,5.9,12.92Z" style="fill:#37474f"></path><polygon points="211.23 306.37 202.27 352.88 266.29 315.93 274.57 272.91 270.53 272.1 211.23 306.37" style="fill:#263238"></polygon><path d="M232.58,380.35l-24.49-14.14a13.15,13.15,0,0,1-5.9-12.92l9-46.92-10.67-6.17-10.32,53.68c-1.37,7.1,2.64,15.87,8.9,19.48l33.45,19.31Z" style="fill:#263238"></path><polygon points="296.6 343.36 232.58 380.35 232.58 392.68 296.6 355.69 296.6 343.36" style="fill:#455a64"></polygon><path d="M359.23,39.31c2.94,1.7,5.33,6,5.33,9.65V245.42a12.57,12.57,0,0,1-5.69,9.85L114,396.66c-3.14,1.81-8.08,1.9-11,.2s-5.34-6-5.34-9.65V190.75a12.6,12.6,0,0,1,5.69-9.86L348.2,39.51C351.34,37.69,356.28,37.6,359.23,39.31Z" style="fill:#455a64"></path><path d="M113.32,397c-3.14,1.47-7.61,1.44-10.36-.14-2.95-1.7-5.34-6-5.34-9.65V190.75a11.67,11.67,0,0,1,1.67-5.61L110,191.31a11.61,11.61,0,0,0-1.67,5.6V393.37C108.3,396.74,110.49,398.25,113.32,397Z" style="fill:#263238"></path><path d="M364.56,245.42V49c0-3.63-2.54-5.1-5.69-3.29L114,187.06a12.57,12.57,0,0,0-5.69,9.85V393.37c0,3.63,2.55,5.1,5.69,3.29L358.87,255.27A12.57,12.57,0,0,0,364.56,245.42Z" style="fill:#37474f"></path><path d="M352.06,55.7,118.19,190.8a10.06,10.06,0,0,0-4.55,7.88V373.11c0,2.9,2,4.08,4.55,2.63l233.88-135.1a10.06,10.06,0,0,0,4.55-7.88V58.33C356.62,55.43,354.58,54.25,352.06,55.7Z" style="fill:#204FA1"></path><path d="M352.06,55.7,118.19,190.8a10.06,10.06,0,0,0-4.55,7.88V373.11c0,2.9,2,4.08,4.55,2.63l233.88-135.1a10.06,10.06,0,0,0,4.55-7.88V58.33C356.62,55.43,354.58,54.25,352.06,55.7Z" style="fill:#fff;opacity:0.8"></path><g id="freepik--Window--inject-78"><path d="M130.31,354.29c-1.24,0-2-1-2-2.71V213.44L341.93,90.12V227.68A9.39,9.39,0,0,1,337.7,235L132.06,353.74A3.58,3.58,0,0,1,130.31,354.29Z" style="fill:#f5f5f5"></path><path d="M341.43,91v136.7a8.91,8.91,0,0,1-4,6.9L131.81,353.31a3.15,3.15,0,0,1-1.5.48c-1.34,0-1.48-1.54-1.48-2.21V213.73L341.43,91m1-1.73-214.6,123.9V351.58c0,2,1,3.21,2.48,3.21a4,4,0,0,0,2-.62L337.94,235.45a9.91,9.91,0,0,0,4.49-7.77V89.25Z" style="fill:#e0e0e0"></path><polygon points="127.83 213.15 127.83 232.58 342.43 108.68 342.43 89.25 127.83 213.15" style="fill:#204FA1"></polygon><path d="M262.48,143v4.18c0,.85.61,1.2,1.35.78l66-38.1V102.6l-66,38.1A3,3,0,0,0,262.48,143Z" style="fill:#fafafa"></path><path d="M336.88,98.52c.74-.43,1.34-.08,1.34.78v4.18a3,3,0,0,1-1.34,2.33l-7.07,4.08V102.6Z" style="fill:#455a64"></path><path d="M336.35,104.25l-.78-.24a4.44,4.44,0,0,0,.12-1,1.85,1.85,0,0,0-.72-1.68,1.11,1.11,0,0,0-1.15,0,4,4,0,0,0-1.57,3.28,1.87,1.87,0,0,0,.72,1.69,1,1,0,0,0,.5.13,1.27,1.27,0,0,0,.65-.19,3.31,3.31,0,0,0,1.27-1.7l.79.24.09,0a.3.3,0,0,0,.28-.21A.31.31,0,0,0,336.35,104.25Zm-2.53,1.52a.55.55,0,0,1-.56,0,1.37,1.37,0,0,1-.43-1.18,3.5,3.5,0,0,1,1.29-2.77.71.71,0,0,1,.35-.11.46.46,0,0,1,.21,0,1.4,1.4,0,0,1,.43,1.18A3.54,3.54,0,0,1,333.82,105.77Z" style="fill:#fafafa"></path><path d="M127.83,203.76a9.9,9.9,0,0,1,4.48-7.77L337.94,77.27c2.48-1.43,4.49-.27,4.49,2.59v9.39l-214.6,123.9Z" style="fill:#37474f"></path><path d="M317.18,94.1a4.65,4.65,0,0,0-2.1,3.64c0,1.35.94,1.89,2.1,1.22a4.63,4.63,0,0,0,2.11-3.65C319.29,94,318.35,93.43,317.18,94.1Z" style="fill:#204FA1"></path><path d="M324.55,89.86a4.63,4.63,0,0,0-2.11,3.64c0,1.34.94,1.89,2.11,1.22a4.65,4.65,0,0,0,2.1-3.65C326.65,89.73,325.71,89.19,324.55,89.86Z" style="fill:#204FA1"></path><path d="M331.91,85.62a4.65,4.65,0,0,0-2.1,3.64c0,1.34.94,1.89,2.1,1.22a4.66,4.66,0,0,0,2.1-3.65C334,85.49,333.07,85,331.91,85.62Z" style="fill:#204FA1"></path></g><path d="M221.91,217.72l26.44-15.26c1.67-1,3-.19,3,1.75v30.52a6.72,6.72,0,0,1-3,5.25l-26.44,15.26c-1.67,1-3,.18-3-1.75V223A6.69,6.69,0,0,1,221.91,217.72Z" style="fill:#204FA1"></path><path d="M229.17,255.74l16-9.22c1.2-.7,2.16-.2,2.16,1.09a4.67,4.67,0,0,1-2.16,3.6l-16,9.22c-1.2.69-2.17.2-2.17-1.09A4.64,4.64,0,0,1,229.17,255.74Z" style="fill:#455a64"></path><path d="M234.9,216.6c2.81-1.62,5.08-.31,5.08,2.93a11.2,11.2,0,0,1-5.08,8.79c-2.8,1.62-5.07.31-5.07-2.93A11.22,11.22,0,0,1,234.9,216.6Z" style="fill:#fafafa"></path><path d="M244.91,233.91c0-5.31-3.74-7.68-8.34-5l-2.88,1.67c-4.61,2.66-8.34,9.12-8.34,14.44v1.43l19.56-11.28Z" style="fill:#fafafa"></path><path d="M270.68,189.54l26.43-15.26c1.68-1,3-.19,3,1.75v30.52a6.7,6.7,0,0,1-3,5.25l-26.43,15.26c-1.67,1-3,.18-3-1.75V194.79A6.7,6.7,0,0,1,270.68,189.54Z" style="fill:#204FA1"></path><path d="M270.68,189.54l26.43-15.26c1.68-1,3-.19,3,1.75v30.52a6.7,6.7,0,0,1-3,5.25l-26.43,15.26c-1.67,1-3,.18-3-1.75V194.79A6.7,6.7,0,0,1,270.68,189.54Z" style="opacity:0.2"></path><path d="M277.94,227.56l16-9.22c1.19-.69,2.16-.2,2.16,1.09a4.65,4.65,0,0,1-2.16,3.6l-16,9.22c-1.2.69-2.17.2-2.17-1.09A4.64,4.64,0,0,1,277.94,227.56Z" style="fill:#455a64"></path><path d="M283.67,188.42c2.81-1.62,5.08-.31,5.08,2.93a11.19,11.19,0,0,1-5.08,8.79c-2.8,1.62-5.07.31-5.07-2.93A11.23,11.23,0,0,1,283.67,188.42Z" style="fill:#fafafa"></path><path d="M293.68,205.73c0-5.31-3.74-7.68-8.34-5l-2.88,1.67c-4.61,2.66-8.34,9.12-8.34,14.44v1.43L293.68,207Z" style="fill:#fafafa"></path><path d="M173.19,245.83l26.44-15.26c1.67-1,3-.18,3,1.75v30.52a6.69,6.69,0,0,1-3,5.25l-26.44,15.26c-1.67,1-3,.19-3-1.75V251.08A6.72,6.72,0,0,1,173.19,245.83Z" style="fill:#204FA1"></path><path d="M173.19,245.83l26.44-15.26c1.67-1,3-.18,3,1.75v30.52a6.69,6.69,0,0,1-3,5.25l-26.44,15.26c-1.67,1-3,.19-3-1.75V251.08A6.72,6.72,0,0,1,173.19,245.83Z" style="fill:#fff;opacity:0.5"></path><path d="M180.45,283.85l16-9.22c1.2-.69,2.16-.2,2.16,1.09a4.65,4.65,0,0,1-2.16,3.6l-16,9.22c-1.2.69-2.17.2-2.17-1.09A4.64,4.64,0,0,1,180.45,283.85Z" style="fill:#455a64"></path><path d="M186.18,244.71c2.81-1.62,5.08-.3,5.08,2.93a11.22,11.22,0,0,1-5.08,8.8c-2.8,1.61-5.07.3-5.07-2.94A11.23,11.23,0,0,1,186.18,244.71Z" style="fill:#fafafa"></path><path d="M196.19,262c0-5.32-3.74-7.68-8.34-5L185,258.67c-4.61,2.66-8.34,9.13-8.34,14.45v1.43l19.56-11.29Z" style="fill:#fafafa"></path></g></g></svg>