<svg width="300" height="300" viewBox="0 0 300 300" fill="none" xmlns="http://www.w3.org/2000/svg">
<path d="M156.18 286.08C222.292 286.08 275.886 255.137 275.886 216.966C275.886 178.795 222.292 147.852 156.18 147.852C90.0682 147.852 36.474 178.795 36.474 216.966C36.474 255.137 90.0682 286.08 156.18 286.08Z" fill="#FAFAFA"/>
<path d="M173.934 238.596C191.357 238.596 205.482 230.975 205.482 221.574C205.482 212.173 191.357 204.552 173.934 204.552C156.511 204.552 142.386 212.173 142.386 221.574C142.386 230.975 156.511 238.596 173.934 238.596Z" fill="#F0F0F0"/>
<path d="M208.884 183.552L92.13 250.956C91.464 251.296 90.7268 251.474 89.979 251.474C89.2312 251.474 88.494 251.296 87.828 250.956L51.78 230.142C50.58 229.458 50.58 228.342 51.78 227.664L168.528 160.254C169.195 159.917 169.932 159.741 170.679 159.741C171.426 159.741 172.163 159.917 172.83 160.254L208.884 181.068C210.072 181.752 210.072 182.868 208.884 183.552Z" fill="#F0F0F0"/>
<path d="M243.876 203.862L239.136 201.15C239.136 201.15 233.412 188.352 234.426 177.498C235.686 164.004 242.058 159.264 245.826 160.77C249.594 162.276 248.796 167.646 244.83 174.858C241.662 180.6 239.664 195.864 243.876 203.862Z" fill="#204FA1"/>
<path opacity="0.2" d="M243.876 203.862L239.136 201.15C239.136 201.15 233.412 188.352 234.426 177.498C235.686 164.004 242.058 159.264 245.826 160.77C249.594 162.276 248.796 167.646 244.83 174.858C241.662 180.6 239.664 195.864 243.876 203.862Z" fill="black"/>
<path d="M240.774 202.38C240.711 202.38 240.65 202.361 240.6 202.324C240.549 202.288 240.511 202.236 240.492 202.176C236.334 189.45 236.166 171.576 244.026 163.524C244.052 163.492 244.084 163.466 244.12 163.447C244.156 163.429 244.196 163.418 244.237 163.415C244.278 163.413 244.319 163.419 244.357 163.433C244.395 163.447 244.43 163.469 244.46 163.498C244.489 163.526 244.512 163.561 244.527 163.599C244.543 163.636 244.55 163.677 244.549 163.718C244.547 163.759 244.538 163.799 244.52 163.836C244.502 163.873 244.477 163.905 244.446 163.932C237.024 171.54 236.892 189.258 241.05 201.996C241.073 202.07 241.067 202.15 241.032 202.219C240.997 202.289 240.937 202.342 240.864 202.368L240.774 202.38Z" fill="white"/>
<path d="M257.028 211.458C257.772 211.89 259.32 210.948 259.908 210.552C260.931 209.866 261.759 208.925 262.308 207.822C262.921 206.575 263.131 205.168 262.908 203.796C262.789 203.073 262.619 202.359 262.398 201.66C262.2 200.97 262.002 200.274 261.798 199.584C261.56 198.913 261.458 198.201 261.498 197.49C261.678 196.068 262.938 195.09 264.084 194.214C265.35 193.266 266.67 192.012 266.664 190.302C266.577 188.968 266.047 187.701 265.158 186.702C264.342 185.664 263.358 184.752 262.632 183.66C262.049 182.899 261.744 181.961 261.768 181.002C261.854 180.413 262.058 179.848 262.368 179.34C263.057 178.281 263.659 177.167 264.168 176.01C264.582 174.81 264.522 173.328 263.568 172.47C262.8 171.768 261.66 171.672 260.622 171.738C259.651 171.859 258.718 172.188 257.886 172.704C255.174 174.216 253.626 177.426 250.746 178.59C249.603 178.946 248.439 179.231 247.26 179.442C246.102 179.748 244.92 180.342 244.38 181.41C243.324 183.522 245.286 186.126 244.542 188.364C243.888 190.35 241.956 191.112 240.876 192.9C240.434 193.687 240.257 194.596 240.372 195.492C240.464 197.01 240.834 198.499 241.464 199.884C242.165 201.259 242.968 202.581 243.864 203.838C243.918 203.904 256.908 211.392 257.028 211.458Z" fill="#204FA1"/>
<path d="M249.264 207.264C249.196 207.257 249.133 207.227 249.085 207.179C249.037 207.131 249.007 207.068 249 207C247.602 195.918 252.894 180.972 260.79 173.682C260.818 173.652 260.851 173.628 260.888 173.612C260.926 173.596 260.966 173.588 261.006 173.588C261.047 173.588 261.087 173.596 261.124 173.613C261.162 173.629 261.195 173.653 261.222 173.683C261.25 173.713 261.271 173.748 261.284 173.787C261.297 173.825 261.302 173.866 261.299 173.907C261.295 173.947 261.283 173.986 261.264 174.022C261.245 174.058 261.218 174.089 261.186 174.114C253.386 181.314 248.202 196.008 249.582 206.928C249.591 207.004 249.569 207.081 249.522 207.141C249.475 207.202 249.406 207.242 249.33 207.252L249.264 207.264Z" fill="white"/>
<path d="M250.62 193.086C250.575 193.087 250.53 193.077 250.489 193.058C250.448 193.038 250.413 193.008 250.386 192.972C250.362 192.941 250.345 192.906 250.335 192.869C250.324 192.831 250.322 192.792 250.327 192.754C250.332 192.715 250.344 192.678 250.364 192.645C250.383 192.611 250.409 192.582 250.44 192.558C254.802 189.288 261.462 189.858 261.744 189.888C261.782 189.891 261.82 189.902 261.854 189.919C261.888 189.937 261.919 189.962 261.943 189.991C261.968 190.021 261.986 190.055 261.997 190.092C262.009 190.129 262.012 190.168 262.008 190.206C262 190.283 261.963 190.354 261.903 190.403C261.844 190.453 261.767 190.477 261.69 190.47C261.624 190.47 254.97 189.87 250.794 193.026C250.745 193.065 250.683 193.086 250.62 193.086Z" fill="white"/>
<path d="M251.274 190.368C251.198 190.368 251.125 190.339 251.07 190.286C251.015 190.234 250.983 190.162 250.98 190.086C250.782 185.01 246.948 181.944 246.912 181.914C246.882 181.891 246.857 181.861 246.838 181.828C246.819 181.795 246.807 181.758 246.802 181.72C246.798 181.682 246.801 181.644 246.812 181.607C246.822 181.57 246.84 181.536 246.864 181.506C246.911 181.445 246.981 181.406 247.057 181.396C247.133 181.386 247.21 181.406 247.272 181.452C248.534 182.522 249.566 183.838 250.304 185.319C251.043 186.8 251.473 188.416 251.568 190.068C251.57 190.106 251.564 190.145 251.55 190.181C251.537 190.216 251.516 190.249 251.49 190.277C251.464 190.305 251.432 190.328 251.397 190.343C251.362 190.359 251.324 190.367 251.286 190.368H251.274Z" fill="white"/>
<path d="M64.5185 99.6142L62.1376 100.823L76.9346 129.976L79.3154 128.768L64.5185 99.6142Z" fill="#455A64"/>
<path d="M91.9943 97.2838L77.5646 120.593L79.8348 121.998L94.2645 98.6892L91.9943 97.2838Z" fill="#455A64"/>
<path d="M75.9 94.506V200.01C75.9175 200.207 75.9874 200.395 76.1024 200.555C76.2175 200.716 76.3734 200.842 76.554 200.922C77.044 201.17 77.5856 201.3 78.135 201.3C78.6843 201.3 79.2259 201.17 79.716 200.922C79.8965 200.842 80.0525 200.716 80.1675 200.555C80.2825 200.395 80.3524 200.207 80.37 200.01V94.506H75.9Z" fill="#455A64"/>
<path d="M73.4339 85.4879C76.6903 71.691 68.1455 57.8665 54.3485 54.6101C40.5516 51.3538 26.7271 59.8986 23.4707 73.6956C20.2143 87.4925 28.7592 101.317 42.5561 104.573C56.3531 107.83 70.1776 99.2849 73.4339 85.4879Z" fill="#204FA1"/>
<path opacity="0.15" d="M40.044 82.596C32.676 69.996 34.8 59.718 35.808 57.258C37.434 53.286 43.854 53.928 48.456 53.928C52.7812 53.9277 57.0363 55.0203 60.8263 57.1045C64.6162 59.1886 67.818 62.1967 70.1344 65.8493C72.4508 69.5019 73.8066 73.6806 74.076 77.9974C74.3454 82.3142 73.5195 86.6291 71.6752 90.5413C69.8308 94.4536 67.0278 97.8363 63.5264 100.375C60.0249 102.915 55.9386 104.528 51.647 105.065C47.3553 105.603 42.9974 105.047 38.978 103.449C34.9586 101.852 31.408 99.2647 28.656 95.928C36.258 98.154 47.202 94.842 40.044 82.596Z" fill="black"/>
<path d="M129.127 87.1357C132.036 74.8094 124.402 62.4585 112.076 59.5492C99.7497 56.6399 87.3988 64.274 84.4896 76.6003C81.5803 88.9266 89.2143 101.277 101.541 104.187C113.867 107.096 126.218 99.462 129.127 87.1357Z" fill="#204FA1"/>
<path opacity="0.15" d="M106.8 58.944C111.611 58.9365 116.3 60.4507 120.198 63.27C120.798 77.274 108.93 90.936 112.254 95.526C115.578 100.116 123.768 97.296 126.618 93.402C124.596 96.8804 121.694 99.7654 118.204 101.767C114.714 103.77 110.758 104.818 106.735 104.808C102.711 104.798 98.7613 103.729 95.2815 101.709C91.8016 99.6895 88.9144 96.7897 86.9099 93.3011C84.9053 89.8125 83.8538 85.8579 83.8611 81.8344C83.8684 77.8109 84.9342 73.8601 86.9514 70.3788C88.9687 66.8975 91.8663 64.0082 95.3535 62.0011C98.8406 59.9939 102.794 58.9396 106.818 58.944H106.8Z" fill="black"/>
<path d="M78.132 99.216C101.364 99.216 120.198 80.3824 120.198 57.15C120.198 33.9176 101.364 15.084 78.132 15.084C54.8996 15.084 36.066 33.9176 36.066 57.15C36.066 80.3824 54.8996 99.216 78.132 99.216Z" fill="#204FA1"/>
<path opacity="0.1" d="M108.684 28.248C109.423 31.3946 109.797 34.6158 109.8 37.848C109.8 61.086 98.178 85.92 67.128 85.92C55.092 85.92 40.878 78.12 37.188 66.762C38.1261 70.7641 39.6506 74.6056 41.712 78.162C41.994 78.66 42.312 79.146 42.594 79.626C42.6113 79.6435 42.6255 79.6638 42.636 79.686C44.1388 82.0523 45.8733 84.2632 47.814 86.286L48.036 86.52C48.354 86.844 48.672 87.156 48.996 87.468L49.368 87.822C49.68 88.116 49.968 88.422 50.31 88.68L50.754 89.064C51.066 89.334 51.384 89.604 51.708 89.862C51.858 89.988 52.014 90.102 52.17 90.228C52.5 90.486 52.83 90.744 53.166 90.996L53.448 91.194C54.138 91.698 54.846 92.178 55.566 92.634L56.118 92.988L57.024 93.522L57.756 93.942C58.05 94.104 58.356 94.26 58.65 94.416C58.944 94.572 59.178 94.692 59.448 94.83L60.33 95.256L61.188 95.64C61.482 95.772 61.788 95.898 62.064 96.018C62.34 96.138 62.664 96.27 63 96.39C63.336 96.51 63.558 96.612 63.84 96.714C64.248 96.858 64.662 96.996 65.04 97.128L66.138 97.47C66.558 97.596 66.978 97.716 67.404 97.83C67.68 97.902 67.962 97.962 68.238 98.028C68.514 98.094 68.946 98.202 69.306 98.274C69.666 98.346 69.906 98.394 70.188 98.448C70.47 98.502 70.89 98.58 71.238 98.64L72.144 98.778L73.218 98.916L74.118 99.012C74.496 99.048 74.88 99.072 75.264 99.096L76.116 99.156C76.614 99.156 77.118 99.186 77.622 99.192H78.096C86.3153 99.1975 94.3561 96.7943 101.224 92.2794C108.093 87.7645 113.487 81.3359 116.742 73.7882C119.996 66.2405 120.967 57.9047 119.535 49.811C118.103 41.7174 114.33 34.2208 108.684 28.248Z" fill="black"/>
<path d="M242.13 38.91L246.6 41.49C246.576 41.2909 246.564 41.0906 246.564 40.89V39.6C246.564 37.296 248.178 36.36 250.164 37.512C251.026 38.0441 251.763 38.7564 252.324 39.6C252.654 36.702 254.928 35.628 257.688 37.2C260.688 38.922 263.088 43.116 263.088 46.56V48.498C263.109 49.271 262.953 50.0384 262.632 50.742L266.34 52.884C266.924 53.2629 267.41 53.7746 267.758 54.3774C268.107 54.9801 268.307 55.6568 268.344 56.352C268.344 57.63 267.45 58.152 266.34 57.51L242.13 43.53C241.547 43.1501 241.062 42.6381 240.713 42.0355C240.365 41.433 240.164 40.7569 240.126 40.062C240.126 38.79 241.026 38.274 242.13 38.91Z" fill="#F0F0F0"/>
<path d="M209.178 38.664L214.578 41.766C214.547 41.5312 214.531 41.2948 214.53 41.058V39.498C214.53 36.72 216.48 35.598 218.88 36.984C219.914 37.619 220.798 38.4705 221.472 39.48C221.868 35.988 224.604 34.68 227.928 36.612C231.528 38.682 234.438 43.734 234.438 47.88V50.214C234.462 51.1443 234.273 52.0678 233.886 52.914L238.356 55.494C239.058 55.9565 239.641 56.5777 240.058 57.3074C240.475 58.037 240.714 58.8547 240.756 59.694C240.756 61.23 239.676 61.854 238.356 61.086L209.196 44.25C208.493 43.7889 207.909 43.168 207.492 42.4381C207.075 41.7081 206.836 40.8898 206.796 40.05C206.766 38.514 207.846 37.89 209.178 38.664Z" fill="#F0F0F0"/>
<path d="M142.842 181.656C142.407 181.656 141.981 181.54 141.606 181.32L114.966 165.942C113.533 165.11 112.344 163.917 111.515 162.482C110.687 161.048 110.248 159.421 110.244 157.764V126.996C110.244 126.34 110.504 125.712 110.968 125.248C111.432 124.784 112.06 124.524 112.716 124.524C113.372 124.524 114 124.784 114.464 125.248C114.928 125.712 115.188 126.34 115.188 126.996V157.764C115.19 158.553 115.399 159.328 115.794 160.011C116.189 160.694 116.756 161.262 117.438 161.658L144.078 177.042C144.55 177.314 144.919 177.734 145.127 178.237C145.336 178.74 145.373 179.298 145.232 179.824C145.091 180.35 144.78 180.814 144.348 181.146C143.916 181.477 143.387 181.656 142.842 181.656Z" fill="#204FA1"/>
<path d="M88.458 212.358C88.0234 212.358 87.5968 212.242 87.222 212.022L60.6 196.644C59.1665 195.813 57.976 194.62 57.1474 193.185C56.3189 191.75 55.8811 190.123 55.878 188.466V157.704C55.878 157.048 56.1384 156.42 56.602 155.956C57.0656 155.492 57.6944 155.232 58.35 155.232C59.0056 155.232 59.6344 155.492 60.098 155.956C60.5615 156.42 60.822 157.048 60.822 157.704V188.466C60.8231 189.255 61.0316 190.03 61.4265 190.714C61.8213 191.397 62.3888 191.965 63.072 192.36L89.712 207.744C90.1838 208.016 90.5527 208.436 90.7614 208.939C90.97 209.442 91.0068 210 90.8659 210.526C90.725 211.052 90.4143 211.516 89.9822 211.848C89.55 212.179 89.0205 212.358 88.476 212.358H88.458Z" fill="#204FA1"/>
<path d="M195.36 150.72C194.925 150.72 194.499 150.604 194.124 150.384L167.484 135C166.052 134.168 164.863 132.975 164.036 131.54C163.208 130.105 162.771 128.478 162.768 126.822V96.066C162.768 95.4104 163.028 94.7816 163.492 94.318C163.956 93.8544 164.584 93.594 165.24 93.594C165.896 93.594 166.524 93.8544 166.988 94.318C167.452 94.7816 167.712 95.4104 167.712 96.066V126.828C167.712 127.618 167.92 128.393 168.315 129.077C168.71 129.76 169.278 130.328 169.962 130.722L196.602 146.106C197.07 146.381 197.434 146.802 197.64 147.304C197.845 147.806 197.88 148.362 197.739 148.886C197.598 149.41 197.289 149.873 196.859 150.205C196.429 150.536 195.903 150.717 195.36 150.72Z" fill="#204FA1"/>
<path d="M93.066 209.292V244.494C93.0445 244.742 92.9569 244.98 92.8123 245.182C92.6678 245.385 92.4715 245.545 92.244 245.646C91.6281 245.957 90.9479 246.119 90.258 246.119C89.5682 246.119 88.8879 245.957 88.272 245.646C88.0453 245.544 87.8497 245.384 87.7053 245.181C87.5608 244.979 87.4727 244.742 87.45 244.494V209.292H93.066Z" fill="#204FA1"/>
<path d="M69.6 195.906V231.114C69.5763 231.361 69.4877 231.596 69.3433 231.798C69.199 231.999 69.0039 232.158 68.778 232.26C68.1621 232.571 67.4819 232.733 66.792 232.733C66.1022 232.733 65.4219 232.571 64.806 232.26C64.5801 232.158 64.385 231.999 64.2407 231.798C64.0963 231.596 64.0078 231.361 63.984 231.114V195.906H69.6Z" fill="#204FA1"/>
<path d="M199.878 147.6V182.802C199.854 183.049 199.766 183.284 199.621 183.486C199.477 183.687 199.282 183.846 199.056 183.948C198.441 184.261 197.76 184.425 197.07 184.425C196.38 184.425 195.699 184.261 195.084 183.948C194.858 183.846 194.663 183.687 194.519 183.486C194.374 183.284 194.286 183.049 194.262 182.802V147.6H199.878Z" fill="#204FA1"/>
<path d="M176.4 134.238V169.44C176.377 169.687 176.289 169.923 176.145 170.125C176 170.326 175.805 170.485 175.578 170.586C174.963 170.899 174.282 171.063 173.592 171.063C172.902 171.063 172.221 170.899 171.606 170.586C171.379 170.487 171.182 170.328 171.038 170.126C170.893 169.924 170.805 169.687 170.784 169.44V134.238H176.4Z" fill="#204FA1"/>
<g opacity="0.65">
<path opacity="0.2" d="M142.842 181.656C142.407 181.656 141.981 181.54 141.606 181.32L114.966 165.942C113.533 165.11 112.343 163.917 111.515 162.482C110.687 161.048 110.248 159.421 110.244 157.764V126.996C110.244 126.34 110.504 125.712 110.968 125.248C111.432 124.784 112.06 124.524 112.716 124.524C113.372 124.524 114 124.784 114.464 125.248C114.928 125.712 115.188 126.34 115.188 126.996V157.764C115.19 158.553 115.399 159.328 115.794 160.011C116.189 160.694 116.756 161.262 117.438 161.658L144.078 177.042C144.55 177.314 144.919 177.734 145.127 178.237C145.336 178.74 145.373 179.298 145.232 179.824C145.091 180.35 144.78 180.814 144.348 181.146C143.916 181.477 143.387 181.656 142.842 181.656Z" fill="black"/>
<path opacity="0.2" d="M88.458 212.358C88.0234 212.358 87.5968 212.242 87.222 212.022L60.6 196.644C59.1665 195.813 57.976 194.62 57.1474 193.185C56.3189 191.75 55.8811 190.123 55.878 188.466V157.704C55.878 157.048 56.1384 156.42 56.602 155.956C57.0656 155.492 57.6944 155.232 58.35 155.232C59.0056 155.232 59.6344 155.492 60.098 155.956C60.5615 156.42 60.822 157.048 60.822 157.704V188.466C60.8231 189.255 61.0316 190.03 61.4265 190.714C61.8213 191.397 62.3888 191.965 63.072 192.36L89.712 207.744C90.1838 208.016 90.5527 208.436 90.7614 208.939C90.97 209.442 91.0068 210 90.8659 210.526C90.725 211.052 90.4143 211.516 89.9822 211.848C89.55 212.179 89.0205 212.358 88.476 212.358H88.458Z" fill="black"/>
<path opacity="0.2" d="M195.36 150.72C194.925 150.72 194.499 150.604 194.124 150.384L167.484 135C166.052 134.168 164.863 132.975 164.036 131.54C163.208 130.105 162.771 128.478 162.768 126.822V96.066C162.768 95.4104 163.028 94.7816 163.492 94.318C163.956 93.8544 164.584 93.594 165.24 93.594C165.896 93.594 166.524 93.8544 166.988 94.318C167.452 94.7816 167.712 95.4104 167.712 96.066V126.828C167.712 127.618 167.92 128.393 168.315 129.077C168.71 129.76 169.278 130.328 169.962 130.722L196.602 146.106C197.07 146.381 197.434 146.802 197.64 147.304C197.845 147.806 197.88 148.362 197.739 148.886C197.598 149.41 197.289 149.873 196.859 150.205C196.429 150.536 195.903 150.717 195.36 150.72Z" fill="black"/>
<path opacity="0.4" d="M93.066 209.292V244.494C93.0445 244.742 92.9569 244.98 92.8123 245.182C92.6678 245.385 92.4715 245.545 92.244 245.646C91.6281 245.957 90.9479 246.119 90.258 246.119C89.5682 246.119 88.8879 245.957 88.272 245.646C88.0453 245.544 87.8497 245.384 87.7053 245.181C87.5608 244.979 87.4727 244.742 87.45 244.494V209.292H93.066Z" fill="black"/>
<path opacity="0.4" d="M69.6 195.906V231.114C69.5763 231.361 69.4877 231.596 69.3433 231.798C69.199 231.999 69.0039 232.158 68.778 232.26C68.1621 232.571 67.4819 232.732 66.792 232.732C66.1022 232.732 65.4219 232.571 64.806 232.26C64.5801 232.158 64.385 231.999 64.2407 231.798C64.0963 231.596 64.0078 231.361 63.984 231.114V195.906H69.6Z" fill="black"/>
<path opacity="0.4" d="M199.878 147.6V182.802C199.854 183.049 199.766 183.284 199.621 183.486C199.477 183.687 199.282 183.846 199.056 183.948C198.441 184.261 197.76 184.425 197.07 184.425C196.38 184.425 195.699 184.261 195.084 183.948C194.858 183.846 194.663 183.687 194.519 183.486C194.374 183.284 194.286 183.049 194.262 182.802V147.6H199.878Z" fill="black"/>
<path opacity="0.4" d="M176.4 134.238V169.44C176.377 169.687 176.289 169.923 176.145 170.125C176 170.326 175.805 170.485 175.578 170.586C174.963 170.899 174.282 171.063 173.592 171.063C172.902 171.063 172.221 170.899 171.606 170.586C171.379 170.487 171.182 170.328 171.038 170.126C170.893 169.924 170.805 169.687 170.784 169.44V134.238H176.4Z" fill="black"/>
</g>
<path d="M50.352 164.682L49.86 164.4C49.4451 164.128 49.0998 163.763 48.8518 163.334C48.6038 162.905 48.46 162.423 48.432 161.928V157.494C48.4586 156.999 48.6017 156.517 48.8499 156.087C49.098 155.657 49.4441 155.292 49.86 155.022L167.286 87.222C167.729 87.0002 168.218 86.8848 168.714 86.8848C169.21 86.8848 169.699 87.0002 170.142 87.222L170.634 87.51C171.049 87.7812 171.395 88.1462 171.643 88.5757C171.891 89.0051 172.035 89.4868 172.062 89.982V94.416C172.035 94.9112 171.891 95.3929 171.643 95.8223C171.395 96.2518 171.049 96.6168 170.634 96.888L53.208 164.688C52.7651 164.912 52.2756 165.028 51.7793 165.027C51.283 165.026 50.7939 164.908 50.352 164.682Z" fill="#204FA1"/>
<path opacity="0.4" d="M170.634 89.16L53.208 156.96C52.7922 157.23 52.4461 157.595 52.1979 158.025C51.9498 158.455 51.8066 158.937 51.78 159.432V163.866C51.78 164.772 52.422 165.144 53.208 164.688L170.634 96.888C171.049 96.6168 171.395 96.2518 171.643 95.8223C171.891 95.3929 172.035 94.9112 172.062 94.416V90C172.062 89.07 171.42 88.704 170.634 89.16Z" fill="white"/>
<path opacity="0.7" d="M170.634 87.51L170.142 87.222C169.699 87.0002 169.21 86.8848 168.714 86.8848C168.218 86.8848 167.729 87.0002 167.286 87.222L49.86 155.022C49.4365 155.281 49.0889 155.648 48.852 156.084L52.2 158.016C52.4461 157.586 52.7918 157.222 53.208 156.954L170.634 89.154C171.42 88.698 172.062 89.064 172.062 89.976C172.034 89.4819 171.89 89.0013 171.642 88.573C171.394 88.1447 171.048 87.7806 170.634 87.51Z" fill="white"/>
<path opacity="0.2" d="M51.78 159.426C51.7982 158.928 51.9428 158.443 52.2 158.016L48.852 156.084C48.7459 156.276 48.6576 156.476 48.588 156.684C48.4929 156.95 48.4422 157.23 48.438 157.512V161.946C48.4561 162.453 48.6049 162.947 48.87 163.38C49.1102 163.797 49.4504 164.147 49.86 164.4L50.052 164.514L50.358 164.682C50.4275 164.723 50.4997 164.759 50.574 164.79L50.634 164.82L50.832 164.886L50.958 164.922L51.156 164.964H51.306H51.504H51.87H52.002H52.236H52.29C52.495 164.937 52.6963 164.887 52.89 164.814C52.8231 164.833 52.7549 164.847 52.686 164.856C52.6105 164.868 52.5335 164.868 52.458 164.856H52.398L52.254 164.808L52.2 164.772C52.1578 164.743 52.1195 164.709 52.086 164.67C52.0705 164.658 52.0564 164.643 52.044 164.628C52.0064 164.582 51.9742 164.531 51.948 164.478C51.9458 164.462 51.9458 164.446 51.948 164.43C51.9148 164.355 51.8887 164.276 51.87 164.196C51.8602 164.092 51.8602 163.988 51.87 163.884L51.78 159.426Z" fill="white"/>
<path d="M50.352 178.242L49.86 177.954C49.4448 177.683 49.0992 177.318 48.8511 176.888C48.6031 176.459 48.4595 175.977 48.432 175.482V171.048C48.4632 170.557 48.6085 170.08 48.8564 169.655C49.1043 169.23 49.4479 168.869 49.86 168.6L167.286 100.8C167.728 100.575 168.218 100.458 168.714 100.458C169.21 100.458 169.7 100.575 170.142 100.8L170.634 101.082C171.05 101.354 171.395 101.72 171.644 102.151C171.892 102.581 172.035 103.064 172.062 103.56V108C172.034 108.495 171.89 108.977 171.642 109.406C171.394 109.835 171.049 110.2 170.634 110.472L53.208 178.272C52.7633 178.492 52.2727 178.605 51.7764 178.599C51.2801 178.594 50.792 178.472 50.352 178.242Z" fill="#204FA1"/>
<path opacity="0.4" d="M170.634 102.714L53.208 170.514C52.7922 170.784 52.4461 171.149 52.1979 171.579C51.9498 172.009 51.8066 172.491 51.78 172.986V177.42C51.78 178.326 52.422 178.698 53.208 178.242L170.634 110.442C171.049 110.171 171.395 109.806 171.643 109.376C171.891 108.947 172.035 108.465 172.062 107.97V103.536C172.062 102.63 171.42 102.264 170.634 102.714Z" fill="white"/>
<path opacity="0.7" d="M170.634 101.07L170.142 100.782C169.699 100.56 169.21 100.445 168.714 100.445C168.218 100.445 167.729 100.56 167.286 100.782L49.86 168.6C49.4375 168.863 49.0903 169.231 48.852 169.668L52.2 171.6C52.4461 171.17 52.7918 170.806 53.208 170.538L170.634 102.738C171.42 102.288 172.062 102.654 172.062 103.566C172.038 103.067 171.896 102.58 171.648 102.146C171.4 101.712 171.052 101.344 170.634 101.07Z" fill="white"/>
<path opacity="0.2" d="M51.78 172.986C51.8022 172.496 51.9466 172.02 52.2 171.6L48.852 169.668C48.7457 169.859 48.6573 170.06 48.588 170.268C48.4929 170.536 48.4422 170.818 48.438 171.102V175.536C48.4584 176.043 48.6071 176.536 48.87 176.97C49.1094 177.392 49.4495 177.749 49.86 178.008L50.052 178.116L50.358 178.29C50.4276 178.329 50.4998 178.363 50.574 178.392L50.634 178.422L50.832 178.488L50.958 178.53L51.156 178.572H51.306H51.504H51.66H52.002H52.236H52.29C52.4945 178.542 52.6954 178.492 52.89 178.422L52.686 178.458C52.6103 178.467 52.5337 178.467 52.458 178.458H52.398C52.3482 178.445 52.2999 178.427 52.254 178.404L52.2 178.368L52.086 178.272C52.0689 178.259 52.0547 178.243 52.044 178.224C52.0052 178.179 51.9729 178.128 51.948 178.074C51.946 178.06 51.946 178.046 51.948 178.032C51.9148 177.957 51.8887 177.878 51.87 177.798C51.8602 177.694 51.8602 177.59 51.87 177.486L51.78 172.986Z" fill="white"/>
<path d="M50.352 191.796L49.86 191.514C49.4448 191.243 49.0992 190.878 48.8511 190.448C48.6031 190.019 48.4595 189.537 48.432 189.042V184.608C48.4595 184.113 48.6031 183.631 48.8511 183.202C49.0992 182.772 49.4448 182.407 49.86 182.136L167.286 114.336C167.728 114.111 168.218 113.994 168.714 113.994C169.21 113.994 169.7 114.111 170.142 114.336L170.634 114.618C171.049 114.889 171.395 115.254 171.643 115.684C171.891 116.113 172.035 116.595 172.062 117.09V121.524C172.035 122.019 171.891 122.501 171.643 122.93C171.395 123.36 171.049 123.725 170.634 123.996L53.208 191.796C52.7656 192.021 52.2763 192.138 51.78 192.138C51.2837 192.138 50.7944 192.021 50.352 191.796Z" fill="#204FA1"/>
<path opacity="0.4" d="M170.634 116.274L53.208 184.074C52.7922 184.344 52.4461 184.709 52.1979 185.139C51.9498 185.569 51.8066 186.051 51.78 186.546V190.98C51.78 191.886 52.422 192.258 53.208 191.802L170.634 124.002C171.049 123.731 171.395 123.366 171.643 122.936C171.891 122.507 172.035 122.025 172.062 121.53V117.096C172.062 116.184 171.42 115.8 170.634 116.274Z" fill="white"/>
<path opacity="0.7" d="M170.634 114.6L170.142 114.312C169.699 114.09 169.21 113.975 168.714 113.975C168.218 113.975 167.729 114.09 167.286 114.312L49.86 182.13C49.4375 182.393 49.0903 182.761 48.852 183.198L52.2 185.13C52.4461 184.7 52.7918 184.336 53.208 184.068L170.634 116.268C171.42 115.812 172.062 116.178 172.062 117.09C172.037 116.592 171.895 116.106 171.647 115.674C171.399 115.241 171.052 114.873 170.634 114.6Z" fill="white"/>
<path opacity="0.2" d="M51.78 186.54C51.7982 186.042 51.9428 185.557 52.2 185.13L48.852 183.198C48.7457 183.389 48.6573 183.59 48.588 183.798C48.4929 184.066 48.4422 184.348 48.438 184.632V189.066C48.4584 189.573 48.6071 190.066 48.87 190.5C49.1094 190.922 49.4495 191.279 49.86 191.538L50.052 191.646L50.358 191.82C50.4276 191.859 50.4998 191.893 50.574 191.922L50.634 191.952L50.832 192.018L50.958 192.06L51.156 192.102H51.306H51.504H51.66H52.002H52.236H52.29C52.4945 192.072 52.6954 192.022 52.89 191.952L52.686 191.988C52.6103 191.997 52.5337 191.997 52.458 191.988H52.398C52.3482 191.975 52.2999 191.957 52.254 191.934L52.2 191.898L52.086 191.802C52.0689 191.789 52.0547 191.773 52.044 191.754C52.0052 191.709 51.9729 191.658 51.948 191.604C51.946 191.59 51.946 191.576 51.948 191.562C51.9148 191.487 51.8887 191.408 51.87 191.328C51.8602 191.224 51.8602 191.12 51.87 191.016L51.78 186.54Z" fill="white"/>
<path d="M78.558 213.534V214.104C78.5855 214.599 78.7291 215.081 78.9771 215.51C79.2252 215.94 79.5708 216.305 79.986 216.576L83.826 218.79C84.2684 219.015 84.7577 219.132 85.254 219.132C85.7503 219.132 86.2396 219.015 86.682 218.79L204.108 150.99C204.523 150.719 204.869 150.354 205.117 149.924C205.365 149.495 205.508 149.013 205.536 148.518V147.948C205.508 147.453 205.364 146.971 205.116 146.542C204.868 146.113 204.523 145.748 204.108 145.476L200.268 143.262C199.826 143.037 199.336 142.92 198.84 142.92C198.344 142.92 197.854 143.037 197.412 143.262L79.986 211.062C79.5708 211.333 79.2252 211.698 78.9771 212.128C78.7291 212.557 78.5855 213.039 78.558 213.534Z" fill="#204FA1"/>
<path opacity="0.7" d="M86.682 214.926L204.108 147.126C204.894 146.67 204.894 145.926 204.108 145.476L200.268 143.262C199.826 143.037 199.336 142.92 198.84 142.92C198.344 142.92 197.854 143.037 197.412 143.262L79.986 211.062C79.2 211.518 79.2 212.262 79.986 212.712L83.826 214.926C84.2684 215.151 84.7577 215.268 85.254 215.268C85.7503 215.268 86.2396 215.151 86.682 214.926Z" fill="white"/>
<path opacity="0.4" d="M204.252 145.572C204.888 146.034 204.852 146.706 204.108 147.132L86.682 214.932C86.2429 215.166 85.7514 215.283 85.254 215.274V219.138C85.7514 219.147 86.2429 219.03 86.682 218.796L204.108 150.996C204.523 150.725 204.869 150.36 205.117 149.93C205.365 149.501 205.509 149.019 205.536 148.524V147.954C205.51 147.487 205.381 147.032 205.159 146.62C204.937 146.209 204.627 145.851 204.252 145.572Z" fill="white"/>
<path opacity="0.2" d="M83.826 214.926L79.986 212.706C79.296 212.304 79.212 211.692 79.728 211.242C79.3838 211.521 79.1018 211.869 78.9003 212.264C78.6988 212.659 78.5822 213.091 78.558 213.534V214.098C78.5982 214.856 78.9066 215.575 79.428 216.126C79.5923 216.299 79.7802 216.449 79.986 216.57L83.826 218.79C84.2651 219.024 84.7566 219.141 85.254 219.132V215.268C84.7566 215.277 84.2651 215.16 83.826 214.926Z" fill="white"/>
<path d="M66.846 206.772V207.342C66.873 207.837 67.0164 208.319 67.2645 208.749C67.5126 209.178 67.8585 209.543 68.274 209.814L72.114 212.028C72.5553 212.253 73.0437 212.37 73.539 212.37C74.0344 212.37 74.5227 212.253 74.964 212.028L192.39 144.228C192.805 143.957 193.151 143.592 193.399 143.162C193.647 142.733 193.791 142.251 193.818 141.756V141.156C193.791 140.661 193.647 140.179 193.399 139.75C193.151 139.32 192.805 138.955 192.39 138.684L188.55 136.47C188.108 136.245 187.618 136.128 187.122 136.128C186.626 136.128 186.136 136.245 185.694 136.47L68.274 204.27C67.8538 204.543 67.505 204.913 67.2566 205.348C67.0082 205.783 66.8674 206.271 66.846 206.772Z" fill="#204FA1"/>
<path opacity="0.7" d="M74.964 208.164L192.39 140.4C193.176 139.944 193.176 139.2 192.39 138.75L188.55 136.536C188.108 136.311 187.618 136.194 187.122 136.194C186.626 136.194 186.136 136.311 185.694 136.536L68.274 204.336C67.482 204.792 67.482 205.536 68.274 205.98L72.114 208.2C72.5582 208.419 73.048 208.53 73.5433 208.524C74.0387 208.518 74.5255 208.395 74.964 208.164Z" fill="white"/>
<path opacity="0.4" d="M192.534 138.81C193.17 139.272 193.134 139.944 192.39 140.37L74.964 208.17C74.5249 208.404 74.0334 208.521 73.536 208.512V212.4C74.0334 212.409 74.5249 212.292 74.964 212.058L192.39 144.258C192.805 143.987 193.151 143.622 193.399 143.192C193.647 142.763 193.791 142.281 193.818 141.786V141.186C193.791 140.72 193.662 140.266 193.44 139.856C193.218 139.445 192.909 139.088 192.534 138.81Z" fill="white"/>
<path opacity="0.2" d="M72.108 208.164L68.268 205.944C67.578 205.542 67.494 204.93 68.01 204.48C67.6658 204.759 67.3838 205.107 67.1823 205.502C66.9808 205.897 66.8642 206.329 66.84 206.772V207.336C66.8802 208.094 67.1886 208.813 67.71 209.364C67.8744 209.537 68.0622 209.687 68.268 209.808L72.108 212.028C72.5472 212.262 73.0387 212.379 73.536 212.37V208.506C73.0387 208.515 72.5472 208.398 72.108 208.164Z" fill="white"/>
<path d="M55.128 200.004V200.604C55.1541 201.099 55.297 201.582 55.5452 202.011C55.7934 202.441 56.1398 202.806 56.556 203.076L60.396 205.296C60.8384 205.521 61.3277 205.638 61.824 205.638C62.3203 205.638 62.8096 205.521 63.252 205.296L180.672 137.496C181.091 137.223 181.439 136.854 181.687 136.42C181.935 135.986 182.077 135.499 182.1 135V134.43C182.074 133.935 181.931 133.452 181.683 133.023C181.435 132.593 181.088 132.228 180.672 131.958L176.832 129.738C176.391 129.513 175.902 129.396 175.407 129.396C174.912 129.396 174.423 129.513 173.982 129.738L56.556 197.538C56.1412 197.808 55.7959 198.172 55.5478 198.601C55.2998 199.029 55.1559 199.51 55.128 200.004Z" fill="#204FA1"/>
<path opacity="0.7" d="M56.556 199.2L60.396 201.42C60.8394 201.642 61.3283 201.757 61.824 201.757C62.3198 201.757 62.8087 201.642 63.252 201.42L180.672 133.62C181.464 133.17 181.464 132.42 180.672 131.976L176.832 129.756C176.391 129.531 175.902 129.414 175.407 129.414C174.912 129.414 174.423 129.531 173.982 129.756L56.556 197.556C55.764 198 55.764 198.726 56.556 199.2Z" fill="white"/>
<path opacity="0.4" d="M180.822 132.048C181.458 132.51 181.422 133.182 180.678 133.608L63.252 201.408C62.8128 201.642 62.3213 201.759 61.824 201.75V205.614C62.3213 205.623 62.8128 205.506 63.252 205.272L180.678 137.472C181.093 137.201 181.439 136.836 181.687 136.406C181.935 135.977 182.078 135.495 182.106 135V134.43C182.079 133.963 181.951 133.508 181.729 133.096C181.507 132.685 181.197 132.327 180.822 132.048Z" fill="white"/>
<path opacity="0.2" d="M60.396 201.402L56.556 199.182C55.866 198.78 55.782 198.168 56.298 197.718C55.9483 197.994 55.6607 198.341 55.4539 198.736C55.2471 199.131 55.1259 199.565 55.098 200.01V200.574C55.1382 201.332 55.4466 202.051 55.968 202.602C56.1324 202.775 56.3202 202.925 56.526 203.046L60.366 205.266C60.8052 205.5 61.2967 205.617 61.794 205.608V201.744C61.3068 201.748 60.8262 201.631 60.396 201.402Z" fill="white"/>
<path d="M65.952 194.862C65.8553 194.895 65.7714 194.958 65.712 195.042C65.6526 195.125 65.6207 195.225 65.6207 195.327C65.6207 195.429 65.6526 195.529 65.712 195.612C65.7714 195.696 65.8553 195.759 65.952 195.792C66.2024 195.918 66.4788 195.983 66.759 195.983C67.0392 195.983 67.3155 195.918 67.566 195.792C67.6627 195.759 67.7466 195.696 67.806 195.612C67.8653 195.529 67.8972 195.429 67.8972 195.327C67.8972 195.225 67.8653 195.125 67.806 195.042C67.7466 194.958 67.6627 194.895 67.566 194.862C67.3155 194.736 67.0392 194.671 66.759 194.671C66.4788 194.671 66.2024 194.736 65.952 194.862Z" fill="white"/>
<path d="M77.706 201.678C77.6071 201.71 77.5209 201.773 77.4598 201.857C77.3987 201.941 77.3658 202.042 77.3658 202.146C77.3658 202.25 77.3987 202.351 77.4598 202.435C77.5209 202.519 77.6071 202.582 77.706 202.614C77.9565 202.74 78.2328 202.805 78.513 202.805C78.7932 202.805 79.0695 202.74 79.32 202.614C79.4189 202.582 79.5051 202.519 79.5662 202.435C79.6273 202.351 79.6602 202.25 79.6602 202.146C79.6602 202.042 79.6273 201.941 79.5662 201.857C79.5051 201.773 79.4189 201.71 79.32 201.678C79.0695 201.552 78.7932 201.487 78.513 201.487C78.2328 201.487 77.9565 201.552 77.706 201.678Z" fill="white"/>
<path d="M89.454 208.5C89.3573 208.533 89.2734 208.596 89.214 208.68C89.1547 208.763 89.1227 208.863 89.1227 208.965C89.1227 209.067 89.1547 209.167 89.214 209.25C89.2734 209.334 89.3573 209.397 89.454 209.43C89.7045 209.556 89.9808 209.621 90.261 209.621C90.5412 209.621 90.8175 209.556 91.068 209.43C91.1647 209.397 91.2486 209.334 91.308 209.25C91.3674 209.167 91.3993 209.067 91.3993 208.965C91.3993 208.863 91.3674 208.763 91.308 208.68C91.2486 208.596 91.1647 208.533 91.068 208.5C90.8175 208.374 90.5412 208.309 90.261 208.309C89.9808 208.309 89.7045 208.374 89.454 208.5Z" fill="white"/>
<path d="M172.764 133.23C172.667 133.263 172.583 133.326 172.524 133.41C172.465 133.493 172.433 133.593 172.433 133.695C172.433 133.797 172.465 133.897 172.524 133.98C172.583 134.064 172.667 134.127 172.764 134.16C173.014 134.286 173.291 134.351 173.571 134.351C173.851 134.351 174.128 134.286 174.378 134.16C174.475 134.127 174.559 134.064 174.618 133.98C174.677 133.897 174.709 133.797 174.709 133.695C174.709 133.593 174.677 133.493 174.618 133.41C174.559 133.326 174.475 133.263 174.378 133.23C174.128 133.104 173.851 133.039 173.571 133.039C173.291 133.039 173.014 133.104 172.764 133.23Z" fill="white"/>
<path d="M184.512 140.046C184.416 140.081 184.333 140.145 184.274 140.228C184.216 140.312 184.184 140.412 184.184 140.514C184.184 140.616 184.216 140.716 184.274 140.8C184.333 140.883 184.416 140.947 184.512 140.982C184.762 141.108 185.039 141.173 185.319 141.173C185.599 141.173 185.876 141.108 186.126 140.982C186.225 140.95 186.311 140.887 186.372 140.803C186.433 140.719 186.466 140.618 186.466 140.514C186.466 140.41 186.433 140.309 186.372 140.225C186.311 140.141 186.225 140.078 186.126 140.046C185.876 139.92 185.599 139.855 185.319 139.855C185.039 139.855 184.762 139.92 184.512 140.046Z" fill="white"/>
<path d="M196.266 146.868C196.169 146.901 196.085 146.964 196.026 147.048C195.967 147.131 195.935 147.231 195.935 147.333C195.935 147.435 195.967 147.535 196.026 147.618C196.085 147.702 196.169 147.765 196.266 147.798C196.516 147.924 196.793 147.989 197.073 147.989C197.353 147.989 197.63 147.924 197.88 147.798C197.977 147.765 198.061 147.702 198.12 147.618C198.179 147.535 198.211 147.435 198.211 147.333C198.211 147.231 198.179 147.131 198.12 147.048C198.061 146.964 197.977 146.901 197.88 146.868C197.63 146.742 197.353 146.677 197.073 146.677C196.793 146.677 196.516 146.742 196.266 146.868Z" fill="white"/>
<path d="M120.246 164.166C120.149 164.199 120.065 164.262 120.006 164.346C119.947 164.429 119.915 164.529 119.915 164.631C119.915 164.733 119.947 164.833 120.006 164.916C120.065 165 120.149 165.063 120.246 165.096C120.496 165.222 120.773 165.287 121.053 165.287C121.333 165.287 121.61 165.222 121.86 165.096C121.957 165.063 122.041 165 122.1 164.916C122.159 164.833 122.191 164.733 122.191 164.631C122.191 164.529 122.159 164.429 122.1 164.346C122.041 164.262 121.957 164.199 121.86 164.166C121.61 164.04 121.333 163.975 121.053 163.975C120.773 163.975 120.496 164.04 120.246 164.166Z" fill="white"/>
<path d="M132 171C131.903 171.033 131.819 171.096 131.76 171.18C131.701 171.263 131.669 171.363 131.669 171.465C131.669 171.567 131.701 171.667 131.76 171.75C131.819 171.834 131.903 171.897 132 171.93C132.25 172.056 132.527 172.121 132.807 172.121C133.087 172.121 133.364 172.056 133.614 171.93C134.064 171.678 134.064 171.258 133.614 171C133.364 170.874 133.087 170.809 132.807 170.809C132.527 170.809 132.25 170.874 132 171Z" fill="white"/>
<path d="M143.742 177.804C143.645 177.837 143.561 177.9 143.502 177.984C143.443 178.067 143.411 178.167 143.411 178.269C143.411 178.371 143.443 178.471 143.502 178.554C143.561 178.638 143.645 178.701 143.742 178.734C143.992 178.86 144.269 178.925 144.549 178.925C144.829 178.925 145.106 178.86 145.356 178.734C145.453 178.701 145.537 178.638 145.596 178.554C145.655 178.471 145.687 178.371 145.687 178.269C145.687 178.167 145.655 178.067 145.596 177.984C145.537 177.9 145.453 177.837 145.356 177.804C145.106 177.678 144.829 177.613 144.549 177.613C144.269 177.613 143.992 177.678 143.742 177.804Z" fill="white"/>
<path d="M58.332 156.642C58.065 156.816 57.8429 157.051 57.6834 157.328C57.5239 157.604 57.4316 157.914 57.414 158.232C57.414 158.832 57.828 159.054 58.332 158.766C58.5962 158.594 58.8166 158.363 58.976 158.091C59.1353 157.82 59.2292 157.514 59.25 157.2C59.25 156.6 58.842 156.348 58.332 156.642Z" fill="white"/>
<path d="M58.332 170.172C58.065 170.346 57.8429 170.581 57.6834 170.858C57.5239 171.134 57.4316 171.444 57.414 171.762C57.414 172.362 57.828 172.584 58.332 172.29C58.6003 172.117 58.8235 171.882 58.9831 171.606C59.1428 171.329 59.2343 171.019 59.25 170.7C59.25 170.112 58.842 169.878 58.332 170.172Z" fill="white"/>
<path d="M58.332 183.702C58.0647 183.876 57.8423 184.111 57.6828 184.387C57.5233 184.663 57.4312 184.973 57.414 185.292C57.414 185.892 57.828 186.114 58.332 185.82C58.5996 185.646 58.8223 185.412 58.9819 185.135C59.1414 184.859 59.2333 184.549 59.25 184.23C59.25 183.642 58.842 183.408 58.332 183.702Z" fill="white"/>
<path d="M165.24 95.034C164.972 95.2078 164.749 95.4424 164.588 95.7186C164.428 95.9948 164.334 96.305 164.316 96.624C164.316 97.224 164.73 97.452 165.24 97.158C165.506 96.9828 165.728 96.7478 165.887 96.4717C166.047 96.1957 166.139 95.8862 166.158 95.568C166.158 94.98 165.744 94.74 165.24 95.034Z" fill="white"/>
<path d="M165.24 108.564C164.972 108.738 164.749 108.972 164.588 109.249C164.428 109.525 164.334 109.835 164.316 110.154C164.316 110.754 164.73 110.982 165.24 110.688C165.507 110.512 165.729 110.276 165.889 109.999C166.048 109.722 166.14 109.411 166.158 109.092C166.158 108.51 165.744 108.27 165.24 108.564Z" fill="white"/>
<path d="M165.24 122.094C164.972 122.267 164.748 122.502 164.587 122.778C164.427 123.055 164.334 123.365 164.316 123.684C164.316 124.284 164.73 124.506 165.24 124.218C165.507 124.042 165.729 123.806 165.889 123.529C166.048 123.252 166.14 122.941 166.158 122.622C166.158 122.04 165.744 121.8 165.24 122.094Z" fill="white"/>
<path d="M112.716 126C112.45 126.175 112.228 126.41 112.069 126.686C111.909 126.962 111.817 127.272 111.798 127.59C111.798 128.19 112.212 128.418 112.716 128.124C112.983 127.95 113.206 127.715 113.365 127.439C113.525 127.163 113.617 126.853 113.634 126.534C113.634 125.916 113.226 125.676 112.716 126Z" fill="white"/>
<path d="M112.716 139.5C112.45 139.675 112.228 139.91 112.069 140.186C111.909 140.462 111.817 140.772 111.798 141.09C111.798 141.69 112.212 141.912 112.716 141.624C112.984 141.449 113.207 141.214 113.367 140.936C113.526 140.659 113.618 140.348 113.634 140.028C113.634 139.446 113.226 139.2 112.716 139.5Z" fill="white"/>
<path d="M112.716 153.03C112.449 153.204 112.227 153.439 112.067 153.716C111.908 153.992 111.816 154.302 111.798 154.62C111.798 155.22 112.212 155.442 112.716 155.148C112.984 154.975 113.208 154.74 113.367 154.464C113.527 154.187 113.618 153.877 113.634 153.558C113.634 153 113.226 152.736 112.716 153.03Z" fill="white"/>
<path d="M217.2 88.104C214.284 85.17 213.246 86.304 212.874 89.532C212.736 90.8831 212.409 92.2081 211.902 93.468C211.812 92.7977 211.628 92.1434 211.356 91.524C211.227 91.191 210.978 90.9186 210.658 90.7608C210.338 90.6029 209.97 90.5712 209.628 90.672C209.34 90.792 209.694 91.476 209.628 92.724C209.574 94.32 209.058 95.202 209.43 96.924C209.562 97.5604 209.459 98.2229 209.142 98.79C207.57 101.7 202.542 107.088 199.02 110.964L185.562 98.808C180.966 94.674 179.472 92.808 175.032 93.114C176.419 93.6273 177.699 94.3944 178.806 95.376C180.864 97.116 180.378 107.076 180.378 107.076C180.378 107.076 195.648 118.032 197.22 119.076C197.454 119.232 197.688 119.37 197.922 119.496C198.673 119.885 199.533 120.01 200.364 119.85C201.195 119.69 201.947 119.254 202.5 118.614C205.758 114.888 210.51 107.556 213.258 103.74C214.502 101.895 215.611 99.9615 216.576 97.956C219.3 92.544 219 89.946 217.2 88.104Z" fill="#FFA8A7"/>
<path d="M183.186 92.052H169.002C166.308 92.052 163.724 90.9818 161.819 89.0768C159.914 87.1718 158.844 84.5881 158.844 81.894V77.268C158.849 73.9596 160.166 70.7884 162.507 68.4507C164.848 66.113 168.022 64.8 171.33 64.8C174.474 64.8 177.49 66.0491 179.713 68.2725C181.937 70.496 183.186 73.5116 183.186 76.656V92.052Z" fill="#263238"/>
<path d="M157.476 213.888C157.2 215.437 157.051 217.006 157.032 218.58C156.978 221.43 156.432 222.438 156.384 224.778C156.306 227.448 156.762 228.444 157.848 229.944C158.934 231.444 161.778 232.806 162.978 230.274C164.178 227.742 164.028 226.074 163.638 223.452C163.248 220.83 163.194 219.252 162.96 217.182C162.762 215.382 162.516 213.984 162.516 213.984L157.476 213.888Z" fill="#263238"/>
<path d="M165.558 191.502L156.18 191.328C156.318 197.592 157.314 208.014 157.476 213.888C157.506 214.998 157.476 222.486 157.866 224.76C158.466 228.18 162.552 227.718 162.768 225.672C162.984 223.626 162.504 214.872 162.516 213.984C162.48 210.216 164.25 200.382 165.174 193.614C165.216 193.284 165.516 191.826 165.558 191.502Z" fill="#FFA8A7"/>
<path d="M179.346 209.016C179.346 209.016 178.86 209.046 178.782 209.442C178.704 209.838 178.674 210.642 178.476 211.422C178.159 212.633 178.046 213.888 178.14 215.136C178.302 216.012 180.3 217.314 181.668 217.536C183.036 217.758 184.956 219.114 186.024 220.122C187.739 221.547 189.864 222.388 192.09 222.522C194.37 222.522 195.96 221.76 196.71 220.542C197.46 219.324 196.026 219.174 193.422 217.482C192.822 217.098 192.156 216.666 191.4 216.168C187.272 213.474 185.76 212.034 184.596 209.334L179.346 209.016Z" fill="#263238"/>
<path d="M184.626 207.552C184.56 205.614 185.55 191.352 185.55 191.352L177.486 192.264C179.394 203.664 179.544 207.528 179.328 209.184C179.288 209.339 179.272 209.498 179.28 209.658C179.28 211.872 181.782 213.066 183.732 214.542C184.5 215.142 186.474 216.942 188.79 217.704C190.29 218.214 193.062 218.412 193.416 217.5C191.046 215.7 187.824 213.3 185.94 211.26C185.04 210.246 184.698 209.49 184.626 207.552Z" fill="#FFA8A7"/>
<path d="M158.352 126.75C153.954 136.35 158.514 170.226 158.514 170.226C158.382 171.786 156.6 174.858 155.934 181.722C155.148 189.834 157.38 211.554 157.38 211.554C157.38 211.554 159.528 213.156 162.636 211.662C162.636 211.662 168.312 179.754 169.332 171.69C170.22 164.646 171.924 149.166 171.924 149.166L176.766 171.648C176.059 173.916 175.545 176.241 175.23 178.596C174.774 183.342 179.394 207.156 179.394 207.156C179.394 207.156 181.554 208.296 184.626 207.054C184.626 207.054 186.672 176.286 187.104 170.574C187.824 160.974 185.304 131.022 183.504 125.34L158.352 126.75Z" fill="#204FA1"/>
<path opacity="0.1" d="M171.924 149.166L173.352 140.238C173.352 140.238 179.4 138.99 182.142 136.41C182.142 136.41 179.262 140.01 174.99 141.162L173.4 148.032L176.202 168.852L171.924 149.166Z" fill="black"/>
<path d="M166.116 93.348C160.476 93.738 160.08 96.462 158.67 99.444C157.629 101.739 157.532 104.351 158.4 106.716L162.336 118.116C162.336 118.116 160.494 122.568 158.352 126.774C168.222 132.282 180.552 129.384 183.51 125.364C183.636 124.512 182.874 117.846 182.406 113.496C184.146 109.134 184.602 106.368 183.87 103.488C182.508 98.136 177.222 92.928 174.87 93.114L166.116 93.348Z" fill="#37474F"/>
<path d="M178.416 70.95C180.276 71.97 181.914 74.796 181.746 81.828C181.608 87.786 179.676 89.262 178.71 89.682C177.744 90.102 175.866 89.85 174.048 89.55V93.15C174.048 93.15 176.562 96.072 176.406 97.71C176.25 99.348 172.776 99.738 170.406 98.136C168.878 97.0396 167.568 95.6682 166.542 94.092V85.422C166.542 85.422 165.312 87.06 163.308 85.728C161.304 84.396 161.22 81.09 162.39 79.908C163.56 78.726 166.074 79.098 166.542 80.736C166.542 80.736 166.656 79.536 167.31 79.536C169.299 79.3854 171.238 78.843 173.016 77.94C177.45 75.486 177.81 73.386 178.416 70.95Z" fill="#FFA8A7"/>
<path d="M180.258 77.916L178.596 77.118C178.643 77.0075 178.711 76.9076 178.798 76.8243C178.884 76.7411 178.986 76.6762 179.099 76.6335C179.211 76.5909 179.33 76.5715 179.45 76.5764C179.57 76.5813 179.688 76.6104 179.796 76.662C180.019 76.7723 180.191 76.9638 180.277 77.197C180.363 77.4302 180.356 77.6875 180.258 77.916Z" fill="#263238"/>
<path d="M173.034 76.962L171.474 77.946C171.404 77.8479 171.355 77.7366 171.33 77.6189C171.305 77.5012 171.304 77.3796 171.328 77.2615C171.351 77.1435 171.399 77.0315 171.467 76.9326C171.536 76.8336 171.624 76.7497 171.726 76.686C171.938 76.556 172.192 76.5121 172.435 76.5634C172.678 76.6148 172.893 76.7574 173.034 76.962Z" fill="#263238"/>
<path d="M166.494 79.092L166.596 82.74C167.073 82.74 167.531 82.5504 167.869 82.2128C168.206 81.8752 168.396 81.4174 168.396 80.94C168.377 80.4465 168.17 79.979 167.815 79.6349C167.461 79.2907 166.988 79.0963 166.494 79.092Z" fill="#263238"/>
<path d="M159.528 67.002L162.6 69C162.738 68.8052 162.836 68.5849 162.888 68.3519C162.941 68.1189 162.946 67.8778 162.904 67.6427C162.862 67.4077 162.774 67.1833 162.644 66.9826C162.515 66.7819 162.347 66.6091 162.15 66.474C161.73 66.2038 161.221 66.1078 160.732 66.2063C160.242 66.3049 159.811 66.5903 159.528 67.002Z" fill="#263238"/>
<path d="M162.996 64.5L162.708 68.136C162.945 68.1677 163.187 68.1508 163.417 68.0861C163.648 68.0215 163.863 67.9106 164.05 67.7601C164.236 67.6097 164.39 67.4228 164.502 67.211C164.613 66.9992 164.681 66.7668 164.7 66.528C164.732 66.0355 164.573 65.5495 164.255 65.1716C163.938 64.7937 163.487 64.5531 162.996 64.5Z" fill="#263238"/>
<path d="M173.784 80.1C173.785 80.2468 173.743 80.3906 173.663 80.5136C173.583 80.6366 173.469 80.7335 173.334 80.7922C173.2 80.8509 173.051 80.8689 172.906 80.8439C172.762 80.8188 172.627 80.7519 172.52 80.6515C172.414 80.551 172.338 80.4213 172.304 80.2786C172.27 80.1358 172.279 79.9862 172.329 79.8483C172.379 79.7104 172.469 79.5903 172.587 79.5028C172.705 79.4153 172.845 79.3642 172.992 79.356C173.195 79.3511 173.392 79.4264 173.54 79.5657C173.689 79.7049 173.776 79.8968 173.784 80.1Z" fill="#263238"/>
<path d="M174.648 85.38L176.388 85.938C176.354 86.0522 176.298 86.1585 176.223 86.2507C176.148 86.3429 176.055 86.4192 175.95 86.4751C175.845 86.531 175.73 86.5654 175.611 86.5762C175.493 86.587 175.373 86.574 175.26 86.538C175.031 86.4571 174.841 86.2931 174.728 86.0786C174.614 85.864 174.586 85.6146 174.648 85.38Z" fill="#F28F8F"/>
<path d="M179.91 79.8C179.917 79.8998 179.905 80.0001 179.873 80.095C179.841 80.1899 179.791 80.2776 179.725 80.3529C179.659 80.4283 179.579 80.4898 179.489 80.5339C179.4 80.5781 179.302 80.6039 179.202 80.61C179.047 80.6243 178.891 80.5917 178.754 80.5164C178.618 80.4412 178.507 80.3268 178.436 80.1879C178.365 80.0491 178.337 79.8922 178.357 79.7375C178.376 79.5827 178.441 79.4373 178.543 79.3199C178.646 79.2026 178.781 79.1186 178.932 79.079C179.083 79.0393 179.242 79.0457 179.389 79.0974C179.536 79.149 179.665 79.2436 179.757 79.3688C179.85 79.4941 179.903 79.6443 179.91 79.8Z" fill="#263238"/>
<path d="M175.92 79.356L176.034 83.868L178.41 83.136L175.92 79.356Z" fill="#F28F8F"/>
<path d="M174.048 89.55C172.134 89.298 168.186 88.164 167.574 86.604C167.82 87.3933 168.301 88.0884 168.954 88.596C170.154 89.604 174.048 90.744 174.048 90.744V89.55Z" fill="#F28F8F"/>
<path d="M168.642 127.8C167.869 127.623 167.14 127.293 166.496 126.83C165.853 126.367 165.308 125.78 164.895 125.104C164.481 124.428 164.207 123.676 164.088 122.892C163.969 122.108 164.008 121.309 164.202 120.54C164.227 120.433 164.261 120.329 164.304 120.228C164.441 119.815 164.712 119.461 165.074 119.22C165.436 118.98 165.869 118.868 166.302 118.902C165.668 118.483 165.123 117.942 164.7 117.311C164.276 116.679 163.983 115.97 163.836 115.224L162.636 108.096C162.491 106.936 162.594 105.758 162.936 104.64L159 100.062L158.268 100.572C157.67 102.585 157.727 104.737 158.43 106.716L162.366 118.116C162.366 118.116 160.524 122.568 158.382 126.774C165.66 130.83 174.258 130.326 179.472 128.166C175.872 128.735 172.196 128.611 168.642 127.8Z" fill="#263238"/>
<path d="M149.4 117.132C151.326 109.278 157.2 93.732 163.416 93.822C165.216 95.994 164.73 102.552 161.856 106.536C161.856 106.536 155.454 120.042 154.434 124.842C153.534 129.042 152.52 134.37 152.586 137.994C152.605 138.637 152.856 139.251 153.294 139.722C154.464 140.988 154.494 142.008 155.226 143.412C155.826 144.504 156.468 144.918 156.282 145.164C156.039 145.426 155.706 145.586 155.35 145.613C154.994 145.639 154.641 145.53 154.362 145.308C153.816 144.909 153.325 144.439 152.904 143.91C153.106 145.252 153.496 146.559 154.062 147.792C155.376 150.756 155.052 152.268 151.062 151.212C148.554 150.552 146.982 148.464 146.604 142.44C146.423 140.222 146.401 137.995 146.538 135.774C147.066 129.502 148.022 123.274 149.4 117.132Z" fill="#FFA8A7"/>
</svg>
