<svg id="Layer_1" data-name="Layer 1" xmlns="http://www.w3.org/2000/svg" viewBox="0 0 400 300" width="406" height="306" class="illustration styles_illustrationTablet__1DWOa"><title>_</title><ellipse cx="202.98" cy="260.16" rx="132.67" ry="10.77" fill="#e6e6e6" opacity="0.45"></ellipse><rect x="260.44" y="245.98" width="63.19" height="11.64" transform="translate(584.07 503.61) rotate(-180)" fill="#e6e6e6"></rect><rect x="260.44" y="234.29" width="55.66" height="11.64" transform="translate(576.54 480.22) rotate(-180)" fill="#ccc"></rect><path d="M296.6,221.39s-10.18-2.78-12.39-12.25c0,0,15.77-3.19,16.22,13.09Z" fill="#204FA1" opacity="0.58"></path><path d="M297.85,220.38s-7.12-11.24-.86-21.75c0,0,12,7.61,6.67,21.77Z" fill="#204FA1" opacity="0.73"></path><path d="M299.68,220.39s3.76-11.87,15.11-14.12c0,0,2.13,7.71-7.35,14.15Z" fill="#204FA1"></path><polygon points="292.3 220.12 294.36 234.24 307.36 234.29 309.27 220.19 292.3 220.12" fill="#24285b"></polygon><rect x="137.01" y="29.07" width="142.55" height="228.55" fill="#c9c9c9"></rect><rect x="148.16" y="41.9" width="120.25" height="177.89" fill="#e6e6e6"></rect><rect x="157.34" y="94.44" width="33.58" height="3.83" opacity="0.08"></rect><rect x="157.34" y="101.4" width="26.35" height="3.83" opacity="0.08"></rect><rect x="157.34" y="108.37" width="21.01" height="3.83" opacity="0.08"></rect><circle cx="175.27" cy="71.48" r="19.44" fill="#204FA1"></circle><rect x="204.33" y="55.48" width="13.94" height="9" opacity="0.08"></rect><rect x="202.98" y="67.92" width="16.62" height="2.87" opacity="0.08"></rect><rect x="225.08" y="55.48" width="13.94" height="9" opacity="0.08"></rect><rect x="223.74" y="67.92" width="16.62" height="2.87" opacity="0.08"></rect><rect x="245.83" y="55.48" width="13.94" height="9" opacity="0.08"></rect><rect x="244.49" y="67.92" width="16.62" height="2.87" opacity="0.08"></rect><rect x="202.95" y="75.11" width="58.16" height="8.5" opacity="0.08"></rect><rect x="148.16" y="139.19" width="40.08" height="40.08" fill="#f2f2f2"></rect><rect x="188.24" y="139.19" width="40.08" height="40.08" fill="#f2f2f2"></rect><rect x="228.32" y="139.19" width="40.08" height="40.08" fill="#f2f2f2"></rect><rect x="148.16" y="179.32" width="40.08" height="40.08" fill="#f2f2f2"></rect><rect x="188.24" y="179.32" width="40.08" height="40.08" fill="#f2f2f2"></rect><rect x="228.32" y="179.32" width="40.08" height="40.08" fill="#f2f2f2"></rect><rect x="188.24" y="139.19" width="40.08" height="40.08" fill="#fff" opacity="0.46"></rect><rect x="148.16" y="179.32" width="40.08" height="40.08" fill="#fff" opacity="0.46"></rect><rect x="228.32" y="179.32" width="40.08" height="40.08" fill="#fff" opacity="0.46"></rect><rect x="216.66" y="143.79" width="7" height="7" opacity="0.08"></rect><rect x="176.32" y="187.5" width="7" height="7" opacity="0.08"></rect><circle cx="168.98" cy="126.93" r="5.62" opacity="0.08"></circle><circle cx="195.18" cy="126.93" r="5.62" opacity="0.08"></circle><circle cx="221.38" cy="126.93" r="5.62" opacity="0.08"></circle><circle cx="247.58" cy="126.93" r="5.62" opacity="0.08"></circle><circle cx="188.24" cy="83.61" r="4.25" fill="#ffd200"></circle><circle cx="208.28" cy="237.49" r="8.37" fill="#f2f2f2"></circle><path d="M80.93,130.31c-.34,2.33,2.33,1.17,3.75,1.15.78,0,1.39.7,2.14.91,2.89.8,2.39-2.5,2.18-4.26-.27-2.17-2.55-4.78-5-3.54a4.19,4.19,0,0,0-1.63,1.89,17.1,17.1,0,0,0-1.29,3.24A4.5,4.5,0,0,0,80.93,130.31Z" fill="#f4a28c"></path><path d="M98.57,253.61s-1.55,2.92-4.36,2.75-3.93,2.45-1.53,3.52,9.3-1.22,9.3-1.22l.5-5.12Z" fill="#204FA1"></path><path d="M110.86,66.81s-.52,5.85.45,9.75a3,3,0,0,0,3.6,2.14A6.51,6.51,0,0,0,120,73.8l1.77-5.13A5.26,5.26,0,0,0,119.48,63C116.17,60.64,111,63.23,110.86,66.81Z" fill="#f4a28c"></path><polygon points="121.47 69.6 124.45 88.63 113.85 89.53 115.94 75.32 121.47 69.6" fill="#f4a28c"></polygon><path d="M112.32,67.06a23.73,23.73,0,0,0,5.41-.41,4.91,4.91,0,0,0,0,5.38,4,4,0,0,0,4.82,1.6l-.08-7.55a6,6,0,0,0-3-5.34,20.33,20.33,0,0,0-2.52-1.24c-2.17-.88-5.36.57-7.3-.91a1.42,1.42,0,0,0-2.25.93c-.35,2.29,0,5.91,3.16,7.17A5.71,5.71,0,0,0,112.32,67.06Z" fill="#24285b"></path><path d="M117.09,71.85s0-2.26,1.75-2.08,1.65,3.45-.66,3.75Z" fill="#f4a28c"></path><path d="M110.72,70.51l-1.64,2.26a.94.94,0,0,0,.58,1.48l2.25.43Z" fill="#f4a28c"></path><path d="M115.35,78.41a6.93,6.93,0,0,0,3.44-2s-.16,3.52-4,7Z" fill="#ce8172" opacity="0.31"></path><path d="M126,88.64l-13.2,1.11S86.66,97.44,87.72,122s3.43,54.73,3.43,54.73l35.2,4.6S184.86,101.74,126,88.64Z" fill="#204FA1"></path><path d="M126.36,105s-7.21,5.57-6.33,20.52,4.42,31.93-11,30.2-19.83-6.63-19.83-6.63l2,27.71,35.2,4.6,3.17-4.6S152.5,125.79,126.36,105Z" opacity="0.08"></path><path d="M91.15,176.77l-9.45,7.86a20.47,20.47,0,0,0,3,33.56l18.13,10.22,6-4.39L95.34,212.76a7.17,7.17,0,0,1,.78-11.61l4.83-3a21.92,21.92,0,0,1,8.84-3.17c5.23-.66,14-3.33,16.56-13.6Z" fill="#24285b"></path><path d="M125.22,109.76c.62-12.09,16.06-16.78,23.17-7,4.37,6,7.41,14.62,5.28,26.44-5.28,29.25-8.36,52.12-24,50.58S84.62,144,84.62,144l9-5.94s18.26,19.79,29.91,20C131.81,158.2,124.16,130.35,125.22,109.76Z" fill="#204FA1"></path><rect x="75.47" y="120.81" width="9.42" height="16.98" transform="translate(-35.93 30.99) rotate(-17.94)" fill="#ffd200"></rect><path d="M125.22,109.76c.62-12.09,16.06-16.78,23.17-7,4.37,6,7.41,14.62,5.28,26.44-5.28,29.25-8.36,52.12-24,50.58S84.62,144,84.62,144l9-5.94s18.26,19.79,29.91,20C131.81,158.2,124.16,130.35,125.22,109.76Z" fill="#fff" opacity="0.44"></path><path d="M86.76,142.56s-6.48-5-4.42-8.71,10.29,4.84,10.29,4.84Z" fill="#f4a28c"></path><path d="M126.35,181.37l-23.87,72.17-6-.06s8.14-48.16,7.26-68.39Z" fill="#24285b"></path><path d="M90.78,72.07H69.54a5.19,5.19,0,0,0-5.19,5.2v12.2a5.19,5.19,0,0,0,5.19,5.2h8l2.66,7.46,2.67-7.46h8a5.2,5.2,0,0,0,5.2-5.2V77.27A5.2,5.2,0,0,0,90.78,72.07Z" fill="#e6e6e6"></path><path d="M87.83,80.82a7.57,7.57,0,0,1-.26,1.77,5.9,5.9,0,0,1-1.18,2.19,14.94,14.94,0,0,1-1.64,1.64c-1,.93-2.11,1.83-3.15,2.76-.47.42-.93.85-1.39,1.29,0,0-.06,0-.1,0-1.1-1-2.24-2-3.4-3-.72-.62-1.44-1.24-2.11-1.91a8.55,8.55,0,0,1-1.37-1.74,5.88,5.88,0,0,1-.65-2,8.5,8.5,0,0,1-.08-1.51,3.86,3.86,0,0,1,3-3.7,4,4,0,0,1,3.76,1.06,4.53,4.53,0,0,1,.83,1l0,.06a5.6,5.6,0,0,1,.49-.68,4.17,4.17,0,0,1,2.18-1.42,3.91,3.91,0,0,1,4.92,3A5.17,5.17,0,0,1,87.83,80.82Z" opacity="0.08"></path></svg>