<svg width="87" height="84" viewBox="0 0 87 84" fill="none" xmlns="http://www.w3.org/2000/svg">
<path d="M5.082 70.2C5.57667 70.2 6.034 70.3353 6.454 70.606C6.874 70.8673 7.21 71.2267 7.462 71.684C7.714 72.1413 7.84 72.6547 7.84 73.224C7.84 73.7933 7.714 74.3113 7.462 74.778C7.21 75.2353 6.874 75.604 6.454 75.884C6.034 76.1547 5.57667 76.29 5.082 76.29H2.38L2.492 76.066V79.286C2.492 79.4913 2.42667 79.664 2.296 79.804C2.17467 79.9347 2.01133 80 1.806 80C1.61 80 1.44667 79.9347 1.316 79.804C1.19467 79.664 1.134 79.4913 1.134 79.286V70.914C1.134 70.7087 1.204 70.5407 1.344 70.41C1.484 70.27 1.652 70.2 1.848 70.2H5.082ZM5.082 74.946C5.32467 74.946 5.544 74.8667 5.74 74.708C5.94533 74.5493 6.10867 74.3393 6.23 74.078C6.36067 73.8167 6.426 73.532 6.426 73.224C6.426 72.916 6.36067 72.636 6.23 72.384C6.10867 72.132 5.94533 71.9313 5.74 71.782C5.544 71.6233 5.32467 71.544 5.082 71.544H2.352L2.492 71.334V75.128L2.366 74.946H5.082ZM12.6815 80.14C11.9068 80.14 11.2348 79.9813 10.6655 79.664C10.0962 79.3373 9.65282 78.894 9.33548 78.334C9.02748 77.7647 8.87348 77.116 8.87348 76.388C8.87348 75.5667 9.03682 74.8667 9.36348 74.288C9.69948 73.7 10.1335 73.252 10.6655 72.944C11.1975 72.6267 11.7622 72.468 12.3595 72.468C12.8168 72.468 13.2508 72.5613 13.6615 72.748C14.0722 72.9253 14.4362 73.1773 14.7535 73.504C15.0802 73.8213 15.3368 74.1993 15.5235 74.638C15.7102 75.0673 15.8082 75.5387 15.8175 76.052C15.8082 76.2387 15.7335 76.3927 15.5935 76.514C15.4535 76.6353 15.2902 76.696 15.1035 76.696H9.65748L9.32148 75.506H14.5855L14.3195 75.758V75.408C14.3008 75.0813 14.1935 74.7967 13.9975 74.554C13.8015 74.302 13.5588 74.1107 13.2695 73.98C12.9802 73.84 12.6768 73.77 12.3595 73.77C12.0795 73.77 11.8088 73.8167 11.5475 73.91C11.2955 73.994 11.0668 74.134 10.8615 74.33C10.6655 74.526 10.5068 74.7873 10.3855 75.114C10.2735 75.4313 10.2175 75.828 10.2175 76.304C10.2175 76.8173 10.3248 77.2653 10.5395 77.648C10.7542 78.0307 11.0435 78.3293 11.4075 78.544C11.7715 78.7493 12.1728 78.852 12.6115 78.852C12.9568 78.852 13.2415 78.8193 13.4655 78.754C13.6895 78.6793 13.8762 78.5907 14.0255 78.488C14.1748 78.3853 14.3055 78.2873 14.4175 78.194C14.5575 78.11 14.6975 78.068 14.8375 78.068C15.0055 78.068 15.1455 78.1287 15.2575 78.25C15.3695 78.362 15.4255 78.4973 15.4255 78.656C15.4255 78.8613 15.3228 79.048 15.1175 79.216C14.8655 79.4587 14.5155 79.6733 14.0675 79.86C13.6288 80.0467 13.1668 80.14 12.6815 80.14ZM21.0959 72.51C21.7866 72.51 22.3186 72.6827 22.6919 73.028C23.0653 73.364 23.3126 73.8213 23.4339 74.4L23.2099 74.33L23.3079 74.106C23.4293 73.8633 23.6113 73.6207 23.8539 73.378C24.1059 73.126 24.4046 72.9207 24.7499 72.762C25.0953 72.594 25.4639 72.51 25.8559 72.51C26.4999 72.51 26.9993 72.65 27.3539 72.93C27.7086 73.2007 27.9559 73.5693 28.0959 74.036C28.2359 74.4933 28.3059 75.0067 28.3059 75.576V79.286C28.3059 79.4913 28.2406 79.664 28.1099 79.804C27.9793 79.9347 27.8113 80 27.6059 80C27.4099 80 27.2419 79.9347 27.1019 79.804C26.9713 79.664 26.9059 79.4913 26.9059 79.286V75.59C26.9059 75.2633 26.8593 74.9647 26.7659 74.694C26.6819 74.4233 26.5279 74.2087 26.3039 74.05C26.0893 73.882 25.7906 73.798 25.4079 73.798C25.0439 73.798 24.7173 73.882 24.4279 74.05C24.1479 74.2087 23.9286 74.4233 23.7699 74.694C23.6113 74.9647 23.5319 75.2633 23.5319 75.59V79.286C23.5319 79.4913 23.4666 79.664 23.3359 79.804C23.2053 79.9347 23.0373 80 22.8319 80C22.6266 80 22.4586 79.9347 22.3279 79.804C22.1973 79.664 22.1319 79.4913 22.1319 79.286V75.576C22.1319 75.2493 22.0853 74.9507 21.9919 74.68C21.9079 74.4093 21.7586 74.1947 21.5439 74.036C21.3293 73.8773 21.0306 73.798 20.6479 73.798C20.2839 73.798 19.9619 73.8773 19.6819 74.036C19.4019 74.1947 19.1826 74.4093 19.0239 74.68C18.8746 74.9507 18.7999 75.2493 18.7999 75.576V79.286C18.7999 79.4913 18.7299 79.664 18.5899 79.804C18.4593 79.9347 18.2959 80 18.0999 80C17.8946 80 17.7266 79.9347 17.5959 79.804C17.4653 79.664 17.3999 79.4913 17.3999 79.286V73.35C17.3999 73.1447 17.4653 72.9767 17.5959 72.846C17.7266 72.706 17.8946 72.636 18.0999 72.636C18.2959 72.636 18.4593 72.706 18.5899 72.846C18.7299 72.9767 18.7999 73.1447 18.7999 73.35V74.176L18.5339 74.33C18.5993 74.1247 18.7066 73.9147 18.8559 73.7C19.0053 73.4853 19.1919 73.2893 19.4159 73.112C19.6493 72.9347 19.9059 72.79 20.1859 72.678C20.4659 72.566 20.7693 72.51 21.0959 72.51ZM33.9752 72.468C34.6285 72.468 35.2072 72.6313 35.7112 72.958C36.2245 73.2847 36.6305 73.7373 36.9292 74.316C37.2278 74.8853 37.3772 75.5433 37.3772 76.29C37.3772 77.0367 37.2278 77.6993 36.9292 78.278C36.6305 78.8567 36.2292 79.314 35.7252 79.65C35.2212 79.9767 34.6518 80.14 34.0172 80.14C33.6625 80.14 33.3265 80.084 33.0092 79.972C32.6918 79.8507 32.4118 79.7013 32.1692 79.524C31.9265 79.3373 31.7258 79.1413 31.5672 78.936C31.4178 78.7307 31.3245 78.5393 31.2872 78.362L31.6652 78.18V79.398C31.6652 79.594 31.5952 79.762 31.4552 79.902C31.3245 80.0327 31.1612 80.098 30.9652 80.098C30.7598 80.098 30.5918 80.0327 30.4612 79.902C30.3305 79.7713 30.2652 79.6033 30.2652 79.398V70.354C30.2652 70.1487 30.3305 69.9807 30.4612 69.85C30.5918 69.71 30.7598 69.64 30.9652 69.64C31.1612 69.64 31.3245 69.71 31.4552 69.85C31.5952 69.9807 31.6652 70.1487 31.6652 70.354V74.288L31.4412 74.162C31.4692 73.9847 31.5578 73.8027 31.7072 73.616C31.8565 73.42 32.0432 73.2333 32.2672 73.056C32.5005 72.8787 32.7618 72.7387 33.0512 72.636C33.3498 72.524 33.6578 72.468 33.9752 72.468ZM33.8212 73.756C33.3732 73.756 32.9812 73.868 32.6452 74.092C32.3185 74.316 32.0618 74.6193 31.8752 75.002C31.6885 75.3753 31.5952 75.8047 31.5952 76.29C31.5952 76.7753 31.6885 77.214 31.8752 77.606C32.0618 77.9887 32.3185 78.292 32.6452 78.516C32.9812 78.74 33.3732 78.852 33.8212 78.852C34.2598 78.852 34.6425 78.74 34.9692 78.516C35.2958 78.292 35.5525 77.984 35.7392 77.592C35.9352 77.2 36.0332 76.766 36.0332 76.29C36.0332 75.8047 35.9352 75.3753 35.7392 75.002C35.5525 74.6193 35.2958 74.316 34.9692 74.092C34.6425 73.868 34.2598 73.756 33.8212 73.756ZM44.9945 72.524C45.1998 72.524 45.3678 72.594 45.4985 72.734C45.6291 72.8647 45.6945 73.0327 45.6945 73.238V79.286C45.6945 79.4913 45.6291 79.664 45.4985 79.804C45.3678 79.9347 45.1998 80 44.9945 80C44.7985 80 44.6305 79.9347 44.4905 79.804C44.3598 79.664 44.2945 79.4913 44.2945 79.286V78.278L44.5885 78.32C44.5885 78.488 44.5185 78.6747 44.3785 78.88C44.2478 79.0853 44.0658 79.286 43.8325 79.482C43.5991 79.6687 43.3238 79.8273 43.0065 79.958C42.6891 80.0793 42.3485 80.14 41.9845 80.14C41.3405 80.14 40.7618 79.9767 40.2485 79.65C39.7351 79.314 39.3291 78.8567 39.0305 78.278C38.7318 77.6993 38.5825 77.0413 38.5825 76.304C38.5825 75.548 38.7318 74.8853 39.0305 74.316C39.3291 73.7373 39.7305 73.2847 40.2345 72.958C40.7478 72.6313 41.3171 72.468 41.9425 72.468C42.3438 72.468 42.7125 72.5333 43.0485 72.664C43.3938 72.7947 43.6925 72.9627 43.9445 73.168C44.1965 73.3733 44.3878 73.5927 44.5185 73.826C44.6585 74.05 44.7285 74.2647 44.7285 74.47L44.2945 74.512V73.238C44.2945 73.042 44.3598 72.874 44.4905 72.734C44.6305 72.594 44.7985 72.524 44.9945 72.524ZM42.1385 78.852C42.5771 78.852 42.9645 78.74 43.3005 78.516C43.6365 78.292 43.8978 77.9887 44.0845 77.606C44.2711 77.214 44.3645 76.78 44.3645 76.304C44.3645 75.8187 44.2711 75.3847 44.0845 75.002C43.8978 74.6193 43.6365 74.316 43.3005 74.092C42.9645 73.868 42.5771 73.756 42.1385 73.756C41.7091 73.756 41.3265 73.868 40.9905 74.092C40.6638 74.316 40.4025 74.6193 40.2065 75.002C40.0198 75.3847 39.9265 75.8187 39.9265 76.304C39.9265 76.78 40.0198 77.214 40.2065 77.606C40.4025 77.9887 40.6638 78.292 40.9905 78.516C41.3265 78.74 41.7091 78.852 42.1385 78.852ZM53.1298 72.58C53.3351 72.58 53.5031 72.65 53.6338 72.79C53.7644 72.9207 53.8298 73.0887 53.8298 73.294V79.314C53.8298 80.1353 53.6711 80.8027 53.3538 81.316C53.0458 81.8293 52.6258 82.2027 52.0938 82.436C51.5711 82.6787 50.9784 82.8 50.3158 82.8C49.9798 82.8 49.6438 82.7673 49.3078 82.702C48.9718 82.646 48.6964 82.562 48.4818 82.45C48.2578 82.3473 48.0991 82.2213 48.0058 82.072C47.9124 81.9227 47.8984 81.7593 47.9638 81.582C48.0291 81.358 48.1411 81.204 48.2998 81.12C48.4584 81.0453 48.6218 81.0407 48.7898 81.106C48.9484 81.1713 49.1584 81.2553 49.4198 81.358C49.6811 81.4607 49.9798 81.512 50.3158 81.512C50.7731 81.512 51.1604 81.4373 51.4778 81.288C51.7951 81.1387 52.0331 80.9053 52.1918 80.588C52.3598 80.2707 52.4438 79.86 52.4438 79.356V78.39L52.6678 78.726C52.5184 79.034 52.3224 79.2907 52.0798 79.496C51.8371 79.7013 51.5478 79.86 51.2118 79.972C50.8851 80.084 50.5211 80.14 50.1198 80.14C49.6064 80.14 49.1631 80.028 48.7898 79.804C48.4258 79.5707 48.1458 79.2533 47.9498 78.852C47.7538 78.4413 47.6558 77.9747 47.6558 77.452V73.294C47.6558 73.0887 47.7211 72.9207 47.8518 72.79C47.9824 72.65 48.1504 72.58 48.3558 72.58C48.5518 72.58 48.7151 72.65 48.8458 72.79C48.9858 72.9207 49.0558 73.0887 49.0558 73.294V77.074C49.0558 77.69 49.1911 78.1427 49.4618 78.432C49.7324 78.712 50.1338 78.852 50.6658 78.852C51.0204 78.852 51.3284 78.7773 51.5898 78.628C51.8511 78.4787 52.0564 78.2733 52.2058 78.012C52.3551 77.7413 52.4298 77.4287 52.4298 77.074V73.294C52.4298 73.0887 52.4951 72.9207 52.6258 72.79C52.7658 72.65 52.9338 72.58 53.1298 72.58ZM61.8245 72.524C62.0299 72.524 62.1979 72.594 62.3285 72.734C62.4592 72.8647 62.5245 73.0327 62.5245 73.238V79.286C62.5245 79.4913 62.4592 79.664 62.3285 79.804C62.1979 79.9347 62.0299 80 61.8245 80C61.6285 80 61.4605 79.9347 61.3205 79.804C61.1899 79.664 61.1245 79.4913 61.1245 79.286V78.278L61.4185 78.32C61.4185 78.488 61.3485 78.6747 61.2085 78.88C61.0779 79.0853 60.8959 79.286 60.6625 79.482C60.4292 79.6687 60.1539 79.8273 59.8365 79.958C59.5192 80.0793 59.1785 80.14 58.8145 80.14C58.1705 80.14 57.5919 79.9767 57.0785 79.65C56.5652 79.314 56.1592 78.8567 55.8605 78.278C55.5619 77.6993 55.4125 77.0413 55.4125 76.304C55.4125 75.548 55.5619 74.8853 55.8605 74.316C56.1592 73.7373 56.5605 73.2847 57.0645 72.958C57.5779 72.6313 58.1472 72.468 58.7725 72.468C59.1739 72.468 59.5425 72.5333 59.8785 72.664C60.2239 72.7947 60.5225 72.9627 60.7745 73.168C61.0265 73.3733 61.2179 73.5927 61.3485 73.826C61.4885 74.05 61.5585 74.2647 61.5585 74.47L61.1245 74.512V73.238C61.1245 73.042 61.1899 72.874 61.3205 72.734C61.4605 72.594 61.6285 72.524 61.8245 72.524ZM58.9685 78.852C59.4072 78.852 59.7945 78.74 60.1305 78.516C60.4665 78.292 60.7279 77.9887 60.9145 77.606C61.1012 77.214 61.1945 76.78 61.1945 76.304C61.1945 75.8187 61.1012 75.3847 60.9145 75.002C60.7279 74.6193 60.4665 74.316 60.1305 74.092C59.7945 73.868 59.4072 73.756 58.9685 73.756C58.5392 73.756 58.1565 73.868 57.8205 74.092C57.4939 74.316 57.2325 74.6193 57.0365 75.002C56.8499 75.3847 56.7565 75.8187 56.7565 76.304C56.7565 76.78 56.8499 77.214 57.0365 77.606C57.2325 77.9887 57.4939 78.292 57.8205 78.516C58.1565 78.74 58.5392 78.852 58.9685 78.852ZM65.1859 80C64.9805 80 64.8125 79.9347 64.6819 79.804C64.5512 79.664 64.4859 79.4913 64.4859 79.286V73.35C64.4859 73.1447 64.5512 72.9767 64.6819 72.846C64.8125 72.706 64.9805 72.636 65.1859 72.636C65.3819 72.636 65.5452 72.706 65.6759 72.846C65.8159 72.9767 65.8859 73.1447 65.8859 73.35V74.918L65.7459 74.316C65.8205 74.0547 65.9325 73.812 66.0819 73.588C66.2405 73.364 66.4272 73.168 66.6419 73C66.8565 72.832 67.0945 72.7013 67.3559 72.608C67.6265 72.5147 67.9065 72.468 68.1959 72.468C68.4385 72.468 68.6485 72.5333 68.8259 72.664C69.0032 72.7947 69.0919 72.958 69.0919 73.154C69.0919 73.406 69.0265 73.5927 68.8959 73.714C68.7652 73.826 68.6205 73.882 68.4619 73.882C68.3219 73.882 68.1865 73.854 68.0559 73.798C67.9252 73.7327 67.7712 73.7 67.5939 73.7C67.3979 73.7 67.1972 73.7513 66.9919 73.854C66.7865 73.9567 66.5999 74.1107 66.4319 74.316C66.2639 74.512 66.1285 74.7453 66.0259 75.016C65.9325 75.2867 65.8859 75.59 65.8859 75.926V79.286C65.8859 79.4913 65.8159 79.664 65.6759 79.804C65.5452 79.9347 65.3819 80 65.1859 80ZM76.2074 72.524C76.4127 72.524 76.5807 72.594 76.7114 72.734C76.842 72.8647 76.9074 73.0327 76.9074 73.238V79.286C76.9074 79.4913 76.842 79.664 76.7114 79.804C76.5807 79.9347 76.4127 80 76.2074 80C76.0114 80 75.8434 79.9347 75.7034 79.804C75.5727 79.664 75.5074 79.4913 75.5074 79.286V78.278L75.8014 78.32C75.8014 78.488 75.7314 78.6747 75.5914 78.88C75.4607 79.0853 75.2787 79.286 75.0454 79.482C74.812 79.6687 74.5367 79.8273 74.2194 79.958C73.902 80.0793 73.5614 80.14 73.1974 80.14C72.5534 80.14 71.9747 79.9767 71.4614 79.65C70.948 79.314 70.542 78.8567 70.2434 78.278C69.9447 77.6993 69.7954 77.0413 69.7954 76.304C69.7954 75.548 69.9447 74.8853 70.2434 74.316C70.542 73.7373 70.9434 73.2847 71.4474 72.958C71.9607 72.6313 72.53 72.468 73.1554 72.468C73.5567 72.468 73.9254 72.5333 74.2614 72.664C74.6067 72.7947 74.9054 72.9627 75.1574 73.168C75.4094 73.3733 75.6007 73.5927 75.7314 73.826C75.8714 74.05 75.9414 74.2647 75.9414 74.47L75.5074 74.512V73.238C75.5074 73.042 75.5727 72.874 75.7034 72.734C75.8434 72.594 76.0114 72.524 76.2074 72.524ZM73.3514 78.852C73.79 78.852 74.1774 78.74 74.5134 78.516C74.8494 78.292 75.1107 77.9887 75.2974 77.606C75.484 77.214 75.5774 76.78 75.5774 76.304C75.5774 75.8187 75.484 75.3847 75.2974 75.002C75.1107 74.6193 74.8494 74.316 74.5134 74.092C74.1774 73.868 73.79 73.756 73.3514 73.756C72.922 73.756 72.5394 73.868 72.2034 74.092C71.8767 74.316 71.6154 74.6193 71.4194 75.002C71.2327 75.3847 71.1394 75.8187 71.1394 76.304C71.1394 76.78 71.2327 77.214 71.4194 77.606C71.6154 77.9887 71.8767 78.292 72.2034 78.516C72.5394 78.74 72.922 78.852 73.3514 78.852ZM82.6627 72.468C83.3253 72.468 83.8387 72.608 84.2027 72.888C84.5667 73.1587 84.8187 73.5273 84.9587 73.994C85.108 74.4513 85.1827 74.9647 85.1827 75.534V79.286C85.1827 79.4913 85.1127 79.664 84.9727 79.804C84.842 79.9347 84.6787 80 84.4827 80C84.2773 80 84.1093 79.9347 83.9787 79.804C83.848 79.664 83.7827 79.4913 83.7827 79.286V75.548C83.7827 75.212 83.736 74.9133 83.6427 74.652C83.5493 74.3813 83.386 74.1667 83.1527 74.008C82.9287 73.84 82.6113 73.756 82.2007 73.756C81.818 73.756 81.482 73.84 81.1927 74.008C80.9033 74.1667 80.6747 74.3813 80.5067 74.652C80.348 74.9133 80.2687 75.212 80.2687 75.548V79.286C80.2687 79.4913 80.1987 79.664 80.0587 79.804C79.928 79.9347 79.7647 80 79.5687 80C79.3633 80 79.1953 79.9347 79.0647 79.804C78.934 79.664 78.8687 79.4913 78.8687 79.286V73.35C78.8687 73.1447 78.934 72.9767 79.0647 72.846C79.1953 72.706 79.3633 72.636 79.5687 72.636C79.7647 72.636 79.928 72.706 80.0587 72.846C80.1987 72.9767 80.2687 73.1447 80.2687 73.35V74.134L80.0167 74.274C80.082 74.0687 80.194 73.8633 80.3527 73.658C80.5207 73.4433 80.7213 73.2473 80.9547 73.07C81.188 72.8833 81.4493 72.7387 81.7387 72.636C82.028 72.524 82.336 72.468 82.6627 72.468Z" fill="black"/>
<rect x="13" width="60" height="60" rx="10" fill="#FAB464"/>
<path d="M43 46.6667C33.795 46.6667 26.3333 39.205 26.3333 30C26.3333 20.795 33.795 13.3333 43 13.3333C52.205 13.3333 59.6667 20.795 59.6667 30C59.6667 39.205 52.205 46.6667 43 46.6667ZM43 43.3333C46.5362 43.3333 49.9276 41.9286 52.4281 39.4281C54.9286 36.9276 56.3333 33.5362 56.3333 30C56.3333 26.4638 54.9286 23.0724 52.4281 20.5719C49.9276 18.0714 46.5362 16.6667 43 16.6667C39.4638 16.6667 36.0724 18.0714 33.5719 20.5719C31.0714 23.0724 29.6667 26.4638 29.6667 30C29.6667 33.5362 31.0714 36.9276 33.5719 39.4281C36.0724 41.9286 39.4638 43.3333 43 43.3333ZM37.1667 33.3333H46.3333C46.5543 33.3333 46.7663 33.2455 46.9226 33.0893C47.0789 32.933 47.1667 32.721 47.1667 32.5C47.1667 32.279 47.0789 32.067 46.9226 31.9107C46.7663 31.7545 46.5543 31.6667 46.3333 31.6667H39.6667C38.5616 31.6667 37.5018 31.2277 36.7204 30.4463C35.939 29.6649 35.5 28.6051 35.5 27.5C35.5 26.3949 35.939 25.3351 36.7204 24.5537C37.5018 23.7723 38.5616 23.3333 39.6667 23.3333H41.3333V20H44.6667V23.3333H48.8333V26.6667H39.6667C39.4456 26.6667 39.2337 26.7545 39.0774 26.9107C38.9211 27.067 38.8333 27.279 38.8333 27.5C38.8333 27.721 38.9211 27.933 39.0774 28.0893C39.2337 28.2455 39.4456 28.3333 39.6667 28.3333H46.3333C47.4384 28.3333 48.4982 28.7723 49.2796 29.5537C50.061 30.3351 50.5 31.3949 50.5 32.5C50.5 33.6051 50.061 34.6649 49.2796 35.4463C48.4982 36.2277 47.4384 36.6667 46.3333 36.6667H44.6667V40H41.3333V36.6667H37.1667V33.3333Z" fill="white"/>
</svg>
