<svg width="68" height="84" viewBox="0 0 68 84" fill="none" xmlns="http://www.w3.org/2000/svg">
<path d="M5.082 70.2C5.57667 70.2 6.034 70.3353 6.454 70.606C6.874 70.8673 7.21 71.2267 7.462 71.684C7.714 72.1413 7.84 72.6547 7.84 73.224C7.84 73.7933 7.714 74.3113 7.462 74.778C7.21 75.2353 6.874 75.604 6.454 75.884C6.034 76.1547 5.57667 76.29 5.082 76.29H2.38L2.492 76.066V79.286C2.492 79.4913 2.42667 79.664 2.296 79.804C2.17467 79.9347 2.01133 80 1.806 80C1.61 80 1.44667 79.9347 1.316 79.804C1.19467 79.664 1.134 79.4913 1.134 79.286V70.914C1.134 70.7087 1.204 70.5407 1.344 70.41C1.484 70.27 1.652 70.2 1.848 70.2H5.082ZM5.082 74.946C5.32467 74.946 5.544 74.8667 5.74 74.708C5.94533 74.5493 6.10867 74.3393 6.23 74.078C6.36067 73.8167 6.426 73.532 6.426 73.224C6.426 72.916 6.36067 72.636 6.23 72.384C6.10867 72.132 5.94533 71.9313 5.74 71.782C5.544 71.6233 5.32467 71.544 5.082 71.544H2.352L2.492 71.334V75.128L2.366 74.946H5.082ZM12.6815 80.14C11.9068 80.14 11.2348 79.9813 10.6655 79.664C10.0962 79.3373 9.65282 78.894 9.33548 78.334C9.02748 77.7647 8.87348 77.116 8.87348 76.388C8.87348 75.5667 9.03682 74.8667 9.36348 74.288C9.69948 73.7 10.1335 73.252 10.6655 72.944C11.1975 72.6267 11.7622 72.468 12.3595 72.468C12.8168 72.468 13.2508 72.5613 13.6615 72.748C14.0722 72.9253 14.4362 73.1773 14.7535 73.504C15.0802 73.8213 15.3368 74.1993 15.5235 74.638C15.7102 75.0673 15.8082 75.5387 15.8175 76.052C15.8082 76.2387 15.7335 76.3927 15.5935 76.514C15.4535 76.6353 15.2902 76.696 15.1035 76.696H9.65748L9.32148 75.506H14.5855L14.3195 75.758V75.408C14.3008 75.0813 14.1935 74.7967 13.9975 74.554C13.8015 74.302 13.5588 74.1107 13.2695 73.98C12.9802 73.84 12.6768 73.77 12.3595 73.77C12.0795 73.77 11.8088 73.8167 11.5475 73.91C11.2955 73.994 11.0668 74.134 10.8615 74.33C10.6655 74.526 10.5068 74.7873 10.3855 75.114C10.2735 75.4313 10.2175 75.828 10.2175 76.304C10.2175 76.8173 10.3248 77.2653 10.5395 77.648C10.7542 78.0307 11.0435 78.3293 11.4075 78.544C11.7715 78.7493 12.1728 78.852 12.6115 78.852C12.9568 78.852 13.2415 78.8193 13.4655 78.754C13.6895 78.6793 13.8762 78.5907 14.0255 78.488C14.1748 78.3853 14.3055 78.2873 14.4175 78.194C14.5575 78.11 14.6975 78.068 14.8375 78.068C15.0055 78.068 15.1455 78.1287 15.2575 78.25C15.3695 78.362 15.4255 78.4973 15.4255 78.656C15.4255 78.8613 15.3228 79.048 15.1175 79.216C14.8655 79.4587 14.5155 79.6733 14.0675 79.86C13.6288 80.0467 13.1668 80.14 12.6815 80.14ZM21.1939 72.468C21.8566 72.468 22.3699 72.608 22.7339 72.888C23.0979 73.1587 23.3499 73.5273 23.4899 73.994C23.6393 74.4513 23.7139 74.9647 23.7139 75.534V79.286C23.7139 79.4913 23.6439 79.664 23.5039 79.804C23.3733 79.9347 23.2099 80 23.0139 80C22.8086 80 22.6406 79.9347 22.5099 79.804C22.3793 79.664 22.3139 79.4913 22.3139 79.286V75.548C22.3139 75.212 22.2673 74.9133 22.1739 74.652C22.0806 74.3813 21.9173 74.1667 21.6839 74.008C21.4599 73.84 21.1426 73.756 20.7319 73.756C20.3493 73.756 20.0133 73.84 19.7239 74.008C19.4346 74.1667 19.2059 74.3813 19.0379 74.652C18.8793 74.9133 18.7999 75.212 18.7999 75.548V79.286C18.7999 79.4913 18.7299 79.664 18.5899 79.804C18.4593 79.9347 18.2959 80 18.0999 80C17.8946 80 17.7266 79.9347 17.5959 79.804C17.4653 79.664 17.3999 79.4913 17.3999 79.286V73.35C17.3999 73.1447 17.4653 72.9767 17.5959 72.846C17.7266 72.706 17.8946 72.636 18.0999 72.636C18.2959 72.636 18.4593 72.706 18.5899 72.846C18.7299 72.9767 18.7999 73.1447 18.7999 73.35V74.134L18.5479 74.274C18.6133 74.0687 18.7253 73.8633 18.8839 73.658C19.0519 73.4433 19.2526 73.2473 19.4859 73.07C19.7193 72.8833 19.9806 72.7387 20.2699 72.636C20.5593 72.524 20.8673 72.468 21.1939 72.468ZM28.7237 72.468C29.1251 72.468 29.4937 72.5333 29.8297 72.664C30.1657 72.7947 30.4551 72.9627 30.6977 73.168C30.9497 73.364 31.1457 73.5693 31.2857 73.784C31.4257 73.9987 31.4957 74.1853 31.4957 74.344L31.1737 74.358V73.238C31.1737 73.042 31.2391 72.874 31.3697 72.734C31.5004 72.594 31.6684 72.524 31.8737 72.524C32.0791 72.524 32.2471 72.594 32.3777 72.734C32.5084 72.8647 32.5737 73.0327 32.5737 73.238V79.412C32.5737 80.2053 32.4057 80.8493 32.0697 81.344C31.7337 81.848 31.2857 82.2167 30.7257 82.45C30.1751 82.6833 29.5684 82.8 28.9057 82.8C28.6724 82.8 28.3971 82.7673 28.0797 82.702C27.7624 82.646 27.4684 82.576 27.1977 82.492C26.9364 82.408 26.7544 82.324 26.6517 82.24C26.4371 82.128 26.2924 81.9973 26.2177 81.848C26.1524 81.6987 26.1524 81.5493 26.2177 81.4C26.3111 81.1947 26.4371 81.0687 26.5957 81.022C26.7544 80.9753 26.9364 80.9893 27.1417 81.064C27.2351 81.092 27.3797 81.1433 27.5757 81.218C27.7717 81.2927 27.9911 81.358 28.2337 81.414C28.4764 81.4793 28.7051 81.512 28.9197 81.512C29.6664 81.512 30.2264 81.3393 30.5997 80.994C30.9824 80.6487 31.1737 80.1773 31.1737 79.58V78.32L31.3277 78.418C31.2997 78.614 31.2111 78.8147 31.0617 79.02C30.9217 79.216 30.7351 79.398 30.5017 79.566C30.2684 79.734 29.9977 79.874 29.6897 79.986C29.3911 80.0887 29.0831 80.14 28.7657 80.14C28.1031 80.14 27.5104 79.9767 26.9877 79.65C26.4651 79.314 26.0497 78.8613 25.7417 78.292C25.4337 77.7133 25.2797 77.0507 25.2797 76.304C25.2797 75.5573 25.4337 74.8993 25.7417 74.33C26.0497 73.7513 26.4604 73.2987 26.9737 72.972C27.4964 72.636 28.0797 72.468 28.7237 72.468ZM28.9337 73.756C28.4764 73.756 28.0751 73.868 27.7297 74.092C27.3844 74.316 27.1137 74.6193 26.9177 75.002C26.7217 75.3847 26.6237 75.8187 26.6237 76.304C26.6237 76.7893 26.7217 77.2233 26.9177 77.606C27.1137 77.9887 27.3844 78.292 27.7297 78.516C28.0751 78.74 28.4764 78.852 28.9337 78.852C29.3911 78.852 29.7924 78.7447 30.1377 78.53C30.4831 78.306 30.7537 78.0027 30.9497 77.62C31.1457 77.228 31.2437 76.7893 31.2437 76.304C31.2437 75.8187 31.1457 75.3847 30.9497 75.002C30.7537 74.61 30.4831 74.3067 30.1377 74.092C29.7924 73.868 29.3911 73.756 28.9337 73.756ZM37.5831 72.468C37.9844 72.468 38.3531 72.5333 38.6891 72.664C39.0251 72.7947 39.3144 72.9627 39.5571 73.168C39.8091 73.364 40.0051 73.5693 40.1451 73.784C40.2851 73.9987 40.3551 74.1853 40.3551 74.344L40.0331 74.358V73.238C40.0331 73.042 40.0984 72.874 40.2291 72.734C40.3598 72.594 40.5278 72.524 40.7331 72.524C40.9384 72.524 41.1064 72.594 41.2371 72.734C41.3678 72.8647 41.4331 73.0327 41.4331 73.238V79.412C41.4331 80.2053 41.2651 80.8493 40.9291 81.344C40.5931 81.848 40.1451 82.2167 39.5851 82.45C39.0344 82.6833 38.4278 82.8 37.7651 82.8C37.5318 82.8 37.2564 82.7673 36.9391 82.702C36.6218 82.646 36.3278 82.576 36.0571 82.492C35.7958 82.408 35.6138 82.324 35.5111 82.24C35.2964 82.128 35.1518 81.9973 35.0771 81.848C35.0118 81.6987 35.0118 81.5493 35.0771 81.4C35.1704 81.1947 35.2964 81.0687 35.4551 81.022C35.6138 80.9753 35.7958 80.9893 36.0011 81.064C36.0944 81.092 36.2391 81.1433 36.4351 81.218C36.6311 81.2927 36.8504 81.358 37.0931 81.414C37.3358 81.4793 37.5644 81.512 37.7791 81.512C38.5258 81.512 39.0858 81.3393 39.4591 80.994C39.8418 80.6487 40.0331 80.1773 40.0331 79.58V78.32L40.1871 78.418C40.1591 78.614 40.0704 78.8147 39.9211 79.02C39.7811 79.216 39.5944 79.398 39.3611 79.566C39.1278 79.734 38.8571 79.874 38.5491 79.986C38.2504 80.0887 37.9424 80.14 37.6251 80.14C36.9624 80.14 36.3698 79.9767 35.8471 79.65C35.3244 79.314 34.9091 78.8613 34.6011 78.292C34.2931 77.7133 34.1391 77.0507 34.1391 76.304C34.1391 75.5573 34.2931 74.8993 34.6011 74.33C34.9091 73.7513 35.3198 73.2987 35.8331 72.972C36.3558 72.636 36.9391 72.468 37.5831 72.468ZM37.7931 73.756C37.3358 73.756 36.9344 73.868 36.5891 74.092C36.2438 74.316 35.9731 74.6193 35.7771 75.002C35.5811 75.3847 35.4831 75.8187 35.4831 76.304C35.4831 76.7893 35.5811 77.2233 35.7771 77.606C35.9731 77.9887 36.2438 78.292 36.5891 78.516C36.9344 78.74 37.3358 78.852 37.7931 78.852C38.2504 78.852 38.6518 78.7447 38.9971 78.53C39.3424 78.306 39.6131 78.0027 39.8091 77.62C40.0051 77.228 40.1031 76.7893 40.1031 76.304C40.1031 75.8187 40.0051 75.3847 39.8091 75.002C39.6131 74.61 39.3424 74.3067 38.9971 74.092C38.6518 73.868 38.2504 73.756 37.7931 73.756ZM48.7551 72.636C48.9511 72.636 49.1144 72.706 49.2451 72.846C49.3851 72.9767 49.4551 73.1447 49.4551 73.35V77.032C49.4551 78.0027 49.1844 78.7633 48.6431 79.314C48.1018 79.8553 47.3364 80.126 46.3471 80.126C45.3671 80.126 44.6064 79.8553 44.0651 79.314C43.5331 78.7633 43.2671 78.0027 43.2671 77.032V73.35C43.2671 73.1447 43.3324 72.9767 43.4631 72.846C43.5938 72.706 43.7618 72.636 43.9671 72.636C44.1631 72.636 44.3264 72.706 44.4571 72.846C44.5971 72.9767 44.6671 73.1447 44.6671 73.35V77.032C44.6671 77.6387 44.8071 78.0913 45.0871 78.39C45.3764 78.6887 45.7964 78.838 46.3471 78.838C46.9071 78.838 47.3318 78.6887 47.6211 78.39C47.9104 78.0913 48.0551 77.6387 48.0551 77.032V73.35C48.0551 73.1447 48.1204 72.9767 48.2511 72.846C48.3818 72.706 48.5498 72.636 48.7551 72.636ZM55.1959 72.468C55.8585 72.468 56.3719 72.608 56.7359 72.888C57.0999 73.1587 57.3519 73.5273 57.4919 73.994C57.6412 74.4513 57.7159 74.9647 57.7159 75.534V79.286C57.7159 79.4913 57.6459 79.664 57.5059 79.804C57.3752 79.9347 57.2119 80 57.0159 80C56.8105 80 56.6425 79.9347 56.5119 79.804C56.3812 79.664 56.3159 79.4913 56.3159 79.286V75.548C56.3159 75.212 56.2692 74.9133 56.1759 74.652C56.0825 74.3813 55.9192 74.1667 55.6859 74.008C55.4619 73.84 55.1445 73.756 54.7339 73.756C54.3512 73.756 54.0152 73.84 53.7259 74.008C53.4365 74.1667 53.2079 74.3813 53.0399 74.652C52.8812 74.9133 52.8019 75.212 52.8019 75.548V79.286C52.8019 79.4913 52.7319 79.664 52.5919 79.804C52.4612 79.9347 52.2979 80 52.1019 80C51.8965 80 51.7285 79.9347 51.5979 79.804C51.4672 79.664 51.4019 79.4913 51.4019 79.286V73.35C51.4019 73.1447 51.4672 72.9767 51.5979 72.846C51.7285 72.706 51.8965 72.636 52.1019 72.636C52.2979 72.636 52.4612 72.706 52.5919 72.846C52.7319 72.9767 52.8019 73.1447 52.8019 73.35V74.134L52.5499 74.274C52.6152 74.0687 52.7272 73.8633 52.8859 73.658C53.0539 73.4433 53.2545 73.2473 53.4879 73.07C53.7212 72.8833 53.9825 72.7387 54.2719 72.636C54.5612 72.524 54.8692 72.468 55.1959 72.468ZM65.6937 72.524C65.899 72.524 66.067 72.594 66.1977 72.734C66.3284 72.8647 66.3937 73.0327 66.3937 73.238V79.286C66.3937 79.4913 66.3284 79.664 66.1977 79.804C66.067 79.9347 65.899 80 65.6937 80C65.4977 80 65.3297 79.9347 65.1897 79.804C65.059 79.664 64.9937 79.4913 64.9937 79.286V78.278L65.2877 78.32C65.2877 78.488 65.2177 78.6747 65.0777 78.88C64.947 79.0853 64.765 79.286 64.5317 79.482C64.2984 79.6687 64.023 79.8273 63.7057 79.958C63.3884 80.0793 63.0477 80.14 62.6837 80.14C62.0397 80.14 61.461 79.9767 60.9477 79.65C60.4344 79.314 60.0284 78.8567 59.7297 78.278C59.431 77.6993 59.2817 77.0413 59.2817 76.304C59.2817 75.548 59.431 74.8853 59.7297 74.316C60.0284 73.7373 60.4297 73.2847 60.9337 72.958C61.447 72.6313 62.0164 72.468 62.6417 72.468C63.043 72.468 63.4117 72.5333 63.7477 72.664C64.093 72.7947 64.3917 72.9627 64.6437 73.168C64.8957 73.3733 65.087 73.5927 65.2177 73.826C65.3577 74.05 65.4277 74.2647 65.4277 74.47L64.9937 74.512V73.238C64.9937 73.042 65.059 72.874 65.1897 72.734C65.3297 72.594 65.4977 72.524 65.6937 72.524ZM62.8377 78.852C63.2764 78.852 63.6637 78.74 63.9997 78.516C64.3357 78.292 64.597 77.9887 64.7837 77.606C64.9704 77.214 65.0637 76.78 65.0637 76.304C65.0637 75.8187 64.9704 75.3847 64.7837 75.002C64.597 74.6193 64.3357 74.316 63.9997 74.092C63.6637 73.868 63.2764 73.756 62.8377 73.756C62.4084 73.756 62.0257 73.868 61.6897 74.092C61.363 74.316 61.1017 74.6193 60.9057 75.002C60.719 75.3847 60.6257 75.8187 60.6257 76.304C60.6257 76.78 60.719 77.214 60.9057 77.606C61.1017 77.9887 61.363 78.292 61.6897 78.516C62.0257 78.74 62.4084 78.852 62.8377 78.852Z" fill="black"/>
<rect x="4" width="60" height="60" rx="10" fill="#8D72E1"/>
<g clip-path="url(#clip0_115_17)">
<path d="M34 29C31.9375 29 30.1719 28.2656 28.7031 26.7969C27.2344 25.3281 26.5 23.5625 26.5 21.5C26.5 19.4375 27.2344 17.6719 28.7031 16.2031C30.1719 14.7344 31.9375 14 34 14C36.0625 14 37.8281 14.7344 39.2969 16.2031C40.7656 17.6719 41.5 19.4375 41.5 21.5C41.5 23.5625 40.7656 25.3281 39.2969 26.7969C37.8281 28.2656 36.0625 29 34 29ZM19 44V38.75C19 37.6875 19.2738 36.7106 19.8213 35.8194C20.3688 34.9281 21.095 34.2488 22 33.7812C23.9375 32.8125 25.9062 32.0856 27.9062 31.6006C29.9062 31.1156 31.9375 30.8738 34 30.875C36.0625 30.875 38.0937 31.1175 40.0937 31.6025C42.0937 32.0875 44.0625 32.8137 46 33.7812C46.9062 34.25 47.6331 34.93 48.1806 35.8212C48.7281 36.7125 49.0012 37.6888 49 38.75V44H19Z" fill="white"/>
</g>
<defs>
<clipPath id="clip0_115_17">
<rect width="40" height="40" fill="white" transform="translate(14 4)"/>
</clipPath>
</defs>
</svg>
