<svg xmlns="http://www.w3.org/2000/svg" viewBox="0 0 500 500"><g id="freepik--Floor--inject-4"><ellipse id="freepik--floor--inject-4" cx="250" cy="345.25" rx="239.67" ry="135.88" style="fill:#f0f0f0"></ellipse></g><g id="freepik--Shadows--inject-4"><path id="freepik--Shadow--inject-4" d="M178.5,464.54,41,385c-5.62-3.24-5.62-8.55,0-11.8L265.55,243.53a9.32,9.32,0,0,1,8.42,0l150.58,79.52a2.51,2.51,0,0,1,0,4.35L186.92,464.54A9.38,9.38,0,0,1,178.5,464.54Z" style="fill:#e0e0e0"></path><ellipse id="freepik--shadow--inject-4" cx="406" cy="295.82" rx="50.17" ry="28.96" style="fill:#e0e0e0"></ellipse><ellipse id="freepik--shadow--inject-4" cx="399.2" cy="405.54" rx="29.08" ry="16.79" style="fill:#e0e0e0"></ellipse><ellipse id="freepik--shadow--inject-4" cx="355.52" cy="420.59" rx="29.08" ry="16.79" style="fill:#e0e0e0"></ellipse></g><g id="freepik--Plant--inject-4"><g id="freepik--Plants--inject-4"><path d="M56.12,357.54S59.29,342,55.63,328s-11.52-24.62-20.82-28.49-19.87,2.4-11.62,11.76S47.57,332.67,48.57,358Z" style="fill:#8D72E1"></path><path d="M56.12,357.54S59.29,342,55.63,328s-11.52-24.62-20.82-28.49-19.87,2.4-11.62,11.76S47.57,332.67,48.57,358Z" style="opacity:0.15"></path><path d="M54.59,352.74h.11a.53.53,0,0,0,.49-.57c-2-28.09-17.78-44.7-25.86-49.56a.54.54,0,0,0-.74.19.53.53,0,0,0,.19.73c7.91,4.76,23.39,21.07,25.34,48.71A.55.55,0,0,0,54.59,352.74Z" style="fill:#fff"></path><path d="M9.81,332.94c-1,3.13,1.2,5.31,3.3,7.08,1.62,1.34,3.39,2.82,3.83,4.89.89,4.17-4.05,8-3,12.15a6.59,6.59,0,0,0,3.49,3.88,42.43,42.43,0,0,0,4.1,1.75,17,17,0,0,0,2.05.5,9.56,9.56,0,0,1,5.61,2.5c2.28,2.48,2,6.28,2.81,9.55l0,.12a10.08,10.08,0,0,0,15.62,5.5l11.53-8.21c4.57-6.15,3.42-17.16-3.91-20.76-1.56-.76-3.33-1.2-4.57-2.42-1.5-1.47-1.87-3.73-2-5.83s0-4.28-.86-6.2c-1.19-2.67-4-4.3-6.92-4.79-3.37-.59-6.74.78-9.94-.38s-6.16-3-9.48-3.88c-3.63-.91-7.8-.42-10.52,2.51A5.69,5.69,0,0,0,9.81,332.94Z" style="fill:#8D72E1"></path><path d="M43.58,351.38a.45.45,0,0,0-.15-.19c-8.57-12.15-22-17.91-26.55-18.92a.48.48,0,0,0-.21.93c4.31,1,16.78,6.28,25.19,17.43a26.25,26.25,0,0,0-20.92,1.82.48.48,0,0,0-.14.66.52.52,0,0,0,.39.22.53.53,0,0,0,.27-.08A25.32,25.32,0,0,1,42.82,352,39.83,39.83,0,0,1,50,376.46a.47.47,0,0,0,.42.49h0a.48.48,0,0,0,.49-.46A40.75,40.75,0,0,0,43.58,351.38Z" style="fill:#fff"></path></g></g><g id="freepik--Device--inject-4"><g id="freepik--Laptop--inject-4"><path d="M56.23,370.83c0,3.29,2.46,7.38,5.5,9.14l119.85,69.21a12.2,12.2,0,0,0,11,0l211-121.85a11.78,11.78,0,0,0,5.5-9.14c0-3.29-2.46-7.38-5.5-9.14l-119.85-69.2a12.14,12.14,0,0,0-11,0l-211,121.84A11.78,11.78,0,0,0,56.23,370.83Z" style="fill:#8D72E1"></path><path d="M409.13,318.19a11.78,11.78,0,0,1-5.5,9.14l-211,121.85a11.35,11.35,0,0,1-5.5,1.31V438.57a11.24,11.24,0,0,0,5.5-1.32l211-121.84c2.66-1.53,3-3.91,1-5.65C407.18,311.74,409.13,315.27,409.13,318.19Z" style="opacity:0.4"></path><path d="M61.73,368l119.85,69.21a12.14,12.14,0,0,0,11,0l211-121.84c3-1.76,3-4.6,0-6.36l-119.85-69.2a12.14,12.14,0,0,0-11,0l-211,121.84C58.69,363.44,58.69,366.29,61.73,368Z" style="opacity:0.30000000000000004"></path><path d="M187.09,438.58v11.91a11.22,11.22,0,0,1-5.51-1.31L61.73,380c-3-1.76-5.5-5.85-5.5-9.14,0-3.09,2.17-6.88,4.94-8.79-2.46,1.77-2.27,4.36.56,6l119.85,69.22A11.34,11.34,0,0,0,187.09,438.58Z" style="opacity:0.5"></path><path d="M51.06,361.88c-2.69-1.89-2.69-4.42-2.69-7.93V188.41a12.18,12.18,0,0,1,5.5-9.54L264.91,57c3-1.75,5.84-.48,8.69,1.16s4.67,3.07,4.67,6.58V230.31a12.18,12.18,0,0,1-5.5,9.54l-211,121.84C57.13,364.79,54,364,51.06,361.88Z" style="fill:#8D72E1"></path><path d="M61.73,361.69c-4.6,3.1-7.74,2.26-10.67.19-2.68-1.89-2.69-4.43-2.69-7.93V188.41A11.36,11.36,0,0,1,50,183l7.86,4.57a11.24,11.24,0,0,0-1.6,5.41V358.51C56.23,362,58.69,363.44,61.73,361.69Z" style="opacity:0.5"></path><path d="M278.28,64.77c0-3.51-2.47-4.93-5.51-3.18l-211,121.85a11.26,11.26,0,0,0-3.89,4.11L50,183h0a11.26,11.26,0,0,1,3.89-4.11L264.9,57c3-1.76,5.85-.49,8.7,1.16S278.28,61.26,278.28,64.77Z" style="opacity:0.30000000000000004"></path><path d="M278.27,64.77c0-.3,0-.56,0-.83A7.26,7.26,0,0,1,278.27,64.77Z" style="opacity:0.6000000000000001"></path><path d="M56.23,193V358.51c0,3.51,2.46,4.93,5.5,3.18l211-121.84a12.18,12.18,0,0,0,5.5-9.54V64.77c0-3.51-2.46-4.93-5.5-3.18l-211,121.85A12.15,12.15,0,0,0,56.23,193Z" style="opacity:0.4"></path><path d="M64.69,189.79,268.16,72.34c1.82-1,3.3-.19,3.3,1.91V225.11a7.3,7.3,0,0,1-3.3,5.72L64.69,348.27c-1.82,1.05-3.3.2-3.3-1.91V195.51A7.3,7.3,0,0,1,64.69,189.79Z" style="fill:#263238"></path><path d="M64.69,189.79a7.3,7.3,0,0,0-3.3,5.72V345.38L263.66,228.63a7.3,7.3,0,0,0,3.3-5.72V73Z" style="fill:#37474f"></path><path d="M77,362,272.85,248.92a6.08,6.08,0,0,1,5.51,0l5.7,3c1.52.88,1.52,2.3,0,3.18L88.14,368.17a6.12,6.12,0,0,1-5.5,0l-5.67-3C75.45,364.31,75.45,362.89,77,362Z" style="fill:#37474f"></path><path d="M92.33,371.15l195.89-113.1a5.59,5.59,0,0,1,5-.27l51,29.44c1.26.72,1,2-.47,2.9L148.1,403.06a5.62,5.62,0,0,1-5,.28L91.86,374C90.6,373.32,90.81,372,92.33,371.15Z" style="opacity:0.2"></path><path d="M260.45,305.09l6.13-3.54c.26-.15.3-.37.09-.5l-5.41-3.12a1,1,0,0,0-.86.05l-6.13,3.54c-.26.15-.3.37-.09.5l5.41,3.12A1,1,0,0,0,260.45,305.09Zm-8.56-12-6.13,3.54c-.26.15-.3.37-.09.49l5.41,3.13a1,1,0,0,0,.86-.05l6.14-3.54c.26-.15.29-.38.08-.5L252.75,293A1,1,0,0,0,251.89,293.07Zm-19.81,11.44-10.38,6c-.26.15-.3.37-.09.5l5.41,3.12a1,1,0,0,0,.86-.05l10.38-6c.26-.15.3-.37.09-.5l-5.41-3.12A1,1,0,0,0,232.08,304.51Zm10.85-6.27-6.14,3.54c-.26.15-.29.38-.08.5l5.41,3.12a.94.94,0,0,0,.86,0l6.13-3.54c.26-.15.3-.37.09-.49l-5.41-3.13A1,1,0,0,0,242.93,298.24Zm-24.06,13.89-6.14,3.55c-.26.15-.29.37-.08.49l5.41,3.12a.94.94,0,0,0,.86,0l6.13-3.55c.26-.15.3-.37.09-.49l-5.41-3.12A.94.94,0,0,0,218.87,312.13Zm-9,5.18-6.13,3.54c-.26.15-.3.37-.09.5l5.42,3.12a1,1,0,0,0,.85-.05l6.14-3.54c.26-.15.3-.37.08-.5l-5.41-3.12A1,1,0,0,0,209.9,317.31ZM232.63,331l6.14-3.54c.25-.15.29-.38.08-.5l-5.41-3.12a.94.94,0,0,0-.86.05l-6.13,3.54c-.26.15-.3.37-.09.49l5.41,3.13A1,1,0,0,0,232.63,331Zm-9,5.17,6.13-3.54c.26-.15.3-.37.09-.49L224.48,329a1,1,0,0,0-.86.05l-6.14,3.54c-.26.15-.29.37-.08.5l5.41,3.12A1,1,0,0,0,223.67,336.15Zm-9,5.18,6.14-3.54c.26-.15.3-.38.08-.5l-5.41-3.12a.94.94,0,0,0-.86.05l-6.13,3.54c-.26.15-.3.37-.08.49l5.41,3.13A1,1,0,0,0,214.7,341.33Zm-9,5.17,6.13-3.54c.26-.15.3-.37.09-.49l-5.41-3.13a1,1,0,0,0-.86.05l-6.13,3.54c-.26.15-.3.38-.09.5l5.41,3.12A.94.94,0,0,0,205.74,346.5Zm45.75-36.23,6.13-3.55c.26-.15.3-.37.09-.49l-5.41-3.12a.94.94,0,0,0-.86.05l-6.14,3.54c-.26.15-.3.37-.08.49l5.41,3.13A1,1,0,0,0,251.49,310.27ZM241.6,325.8l13.68-7.9c.26-.15.3-.37.08-.49l-13.92-8a1,1,0,0,0-.85.05l-7.08,4.09c-.26.15-.3.37-.09.49l7.74,4.47c.21.12.17.34-.09.49l-5.66,3.27c-.26.15-.3.37-.08.5l5.41,3.12A1,1,0,0,0,241.6,325.8Zm-40.66-3.32L194.81,326c-.26.15-.3.37-.09.49l5.41,3.13a1,1,0,0,0,.86,0l6.13-3.54c.26-.16.3-.38.09-.5l-5.41-3.12A1,1,0,0,0,200.94,322.48Zm-9,5.18-6.14,3.54c-.26.15-.3.37-.08.5l5.41,3.12a1,1,0,0,0,.86-.05l6.13-3.54c.26-.15.3-.37.08-.49l-5.41-3.13A1,1,0,0,0,192,327.66Zm-49.85,55.12a1,1,0,0,0,.86,0l6.14-3.54c.26-.15.29-.37.08-.5l-5.41-3.12a1,1,0,0,0-.86.05l-6.13,3.54c-.26.15-.3.37-.09.5Zm-21.87-13.72-6.13,3.54c-.26.15-.3.38-.08.5l5.41,3.12a.92.92,0,0,0,.85-.05l6.14-3.54c.26-.15.3-.37.08-.49L121.12,369A1,1,0,0,0,120.26,369.06Zm11,10.17a1,1,0,0,0,.85-.05l6.14-3.54c.26-.15.3-.37.08-.5L132.93,372a1,1,0,0,0-.86.05l-6.13,3.54c-.26.15-.3.37-.08.5Zm24.95,5.69,6.13-3.54c.26-.15.3-.37.09-.5L157,377.76a1,1,0,0,0-.86.05L150,381.35c-.26.15-.29.37-.08.49l5.41,3.13A1,1,0,0,0,156.22,384.92Zm-9.82,5.22a.92.92,0,0,0,.85-.05l6.14-3.54c.26-.15.3-.37.08-.49l-5.41-3.13a1,1,0,0,0-.86.05l-6.13,3.54c-.26.15-.3.38-.08.5Zm-17.17-26.25-6.14,3.54c-.26.15-.29.37-.08.49l5.41,3.13a1,1,0,0,0,.86-.05l6.13-3.54c.26-.15.3-.37.09-.5l-5.41-3.12A1,1,0,0,0,129.23,363.89ZM174.05,338l-6.14,3.54c-.26.15-.29.37-.08.5l5.41,3.12a1,1,0,0,0,.86-.05l6.13-3.54c.26-.15.3-.37.09-.49L174.91,338A1,1,0,0,0,174.05,338Zm-35.86,20.7-6.13,3.54c-.26.15-.3.38-.09.5l5.41,3.12a.94.94,0,0,0,.86-.05l6.13-3.54c.27-.15.3-.37.09-.49l-5.41-3.13A1,1,0,0,0,138.19,358.71ZM183,332.84l-6.13,3.54c-.26.15-.3.37-.09.49L182.2,340a1,1,0,0,0,.86-.05l6.13-3.54c.27-.15.3-.38.09-.5l-5.41-3.12A.94.94,0,0,0,183,332.84Zm-17.93,10.35L159,346.73c-.26.15-.3.37-.09.49l5.42,3.13a1,1,0,0,0,.85-.05l6.14-3.54c.26-.15.3-.38.08-.5l-5.41-3.12A.94.94,0,0,0,165.08,343.19Zm-9,5.17L150,351.9c-.26.15-.3.38-.09.5l5.41,3.12a.94.94,0,0,0,.86,0l6.13-3.54c.26-.15.3-.37.09-.49L157,348.31A1,1,0,0,0,156.12,348.36Zm-9,5.18L141,357.08c-.26.15-.3.37-.08.49l5.41,3.13a1,1,0,0,0,.86-.05l6.13-3.54c.26-.15.3-.38.08-.5L148,353.49A.92.92,0,0,0,147.16,353.54Zm40.65,3.31,6.13-3.54c.27-.15.3-.37.09-.49l-5.41-3.13a1,1,0,0,0-.86.05l-6.13,3.54c-.26.15-.3.38-.09.5L187,356.9A.94.94,0,0,0,187.81,356.85Zm83.9-75.22-6.14,3.54c-.26.15-.29.37-.08.49l5.41,3.13a1,1,0,0,0,.86-.05l6.13-3.54c.26-.15.3-.38.09-.5l-5.41-3.12A.94.94,0,0,0,271.71,281.63Zm-10.85,6.26-6.14,3.54c-.26.15-.3.38-.08.5l5.41,3.12a.94.94,0,0,0,.86-.05l6.13-3.54c.26-.15.3-.37.08-.49l-5.41-3.13A1,1,0,0,0,260.86,287.89Zm19.81-11.44L274.54,280c-.26.15-.3.38-.09.5l5.41,3.12a.94.94,0,0,0,.86-.05l6.13-3.54c.26-.15.3-.37.09-.49l-5.41-3.13A1,1,0,0,0,280.67,276.45Zm-49.94,45.8,6.13-3.54c.26-.15.3-.37.09-.5l-5.41-3.12a1,1,0,0,0-.86.05l-6.13,3.54c-.27.15-.3.37-.09.5l5.41,3.12A1,1,0,0,0,230.73,322.25Zm59.76-51a.92.92,0,0,0-.85,0l-6.14,3.54c-.26.15-.3.37-.08.49l5.41,3.13a1,1,0,0,0,.85-.05l6.14-3.54c.26-.15.3-.38.08-.5Zm-93.71,80.45,6.13-3.54c.26-.15.3-.37.08-.5l-5.41-3.12a.92.92,0,0,0-.85.05l-6.14,3.54c-.26.15-.3.37-.08.49l5.41,3.13A1,1,0,0,0,196.78,351.68ZM306.7,288.21l6.14-3.54c.26-.15.29-.37.08-.49l-5.41-3.13a1,1,0,0,0-.86.05l-6.13,3.54c-.26.15-.3.37-.09.5l5.41,3.12A1,1,0,0,0,306.7,288.21Zm-17.47.27,6.13-3.55c.26-.15.3-.37.09-.49L290,281.32a.94.94,0,0,0-.86,0l-6.13,3.55c-.26.15-.3.37-.09.49l5.41,3.12A.94.94,0,0,0,289.23,288.48ZM299,276.14a1,1,0,0,0-.86.05L292,279.73c-.26.15-.3.37-.08.5l5.41,3.12a1,1,0,0,0,.85-.05l6.14-3.54c.26-.15.3-.37.08-.5Zm1.89-1.09,13.92,8a1,1,0,0,0,.86,0l6.13-3.54c.26-.15.3-.38.08-.5L308,271a1,1,0,0,0-.86.05L301,274.55C300.71,274.7,300.68,274.93,300.89,275.05Zm-20.67,11.49-6.14,3.54c-.26.15-.3.37-.08.5l5.41,3.12a1,1,0,0,0,.86-.05l6.13-3.54c.26-.15.3-.37.08-.5l-5.41-3.12A1,1,0,0,0,280.22,286.54Zm-67.47,38.95L206.62,329c-.26.15-.3.37-.09.5l5.41,3.12a1,1,0,0,0,.86,0l6.13-3.54c.26-.15.3-.37.09-.49l-5.41-3.13A1,1,0,0,0,212.75,325.49Zm84.13-32.05a1,1,0,0,0,.86-.05l6.13-3.54c.26-.15.3-.38.09-.5l-5.41-3.12a.94.94,0,0,0-.86,0l-6.13,3.54c-.27.15-.3.37-.09.49Zm-75.17,26.88-6.13,3.54c-.26.15-.3.37-.08.49l5.41,3.13a1,1,0,0,0,.85-.05l6.14-3.54c.26-.16.3-.38.08-.5l-5.41-3.12A.94.94,0,0,0,221.71,320.32ZM151.1,377.6a.94.94,0,0,0,.86-.05l6.13-3.54c.26-.15.3-.37.08-.49l-5.41-3.13a1,1,0,0,0-.85.05L145.77,374c-.26.15-.3.37-.08.49ZM141,366.89l-6.13,3.55c-.26.15-.3.37-.09.49l5.41,3.12a.94.94,0,0,0,.86-.05l6.13-3.54c.26-.15.3-.37.09-.49l-5.41-3.13A1,1,0,0,0,141,366.89Zm19.88,5.49,6.13-3.54c.26-.15.3-.37.09-.5l-5.41-3.12a1,1,0,0,0-.86,0l-6.13,3.54c-.26.15-.3.37-.09.5l5.41,3.12A1,1,0,0,0,160.92,372.38Zm9-5.18,6.14-3.54c.26-.15.3-.37.08-.49L170.69,360a1,1,0,0,0-.86,0l-6.13,3.54c-.26.15-.3.38-.08.5l5.41,3.12A.92.92,0,0,0,169.88,367.2Zm9-5.17,6.13-3.54c.26-.15.3-.37.09-.5l-5.41-3.12a1,1,0,0,0-.86.05l-6.14,3.54c-.26.15-.29.37-.08.49l5.41,3.13A1,1,0,0,0,178.85,362ZM150,361.72l-6.13,3.54c-.26.15-.3.37-.09.5l5.41,3.12a1,1,0,0,0,.86-.05l6.14-3.54c.26-.15.29-.37.08-.5l-5.41-3.12A1,1,0,0,0,150,361.72Zm9-5.18-6.14,3.54c-.26.15-.3.38-.08.5l5.41,3.12a.94.94,0,0,0,.86-.05l6.13-3.54c.26-.15.3-.37.08-.49l-5.41-3.13A1,1,0,0,0,159,356.54Zm35.85-20.7-6.13,3.54c-.26.15-.3.37-.09.5L194,343a1,1,0,0,0,.86-.05l6.14-3.54c.26-.15.29-.37.08-.49l-5.41-3.13A1,1,0,0,0,194.82,335.84Zm-9,5.18-6.13,3.54c-.26.15-.3.37-.09.49l5.41,3.13a1,1,0,0,0,.86-.05l6.13-3.54c.26-.15.3-.38.09-.5L186.72,341A.94.94,0,0,0,185.86,341Zm17.93-10.35-6.14,3.54c-.26.15-.3.37-.08.49l5.41,3.13a1,1,0,0,0,.86-.05l6.13-3.54c.26-.15.3-.38.08-.5l-5.41-3.12A.92.92,0,0,0,203.79,330.67Zm-35.86,20.7-6.13,3.54c-.26.15-.3.37-.09.49l5.41,3.13a1,1,0,0,0,.86,0l6.13-3.54c.26-.15.3-.37.09-.5l-5.41-3.12A1,1,0,0,0,167.93,351.37Zm9-5.18-6.13,3.54c-.26.15-.3.38-.08.5l5.41,3.12a.92.92,0,0,0,.85-.05l6.14-3.54c.26-.15.3-.37.08-.49l-5.41-3.13A1,1,0,0,0,176.89,346.19Zm-11.71,33.55,6.14-3.54c.26-.15.29-.37.08-.49L166,372.58a1,1,0,0,0-.86.05L159,376.17c-.26.15-.3.38-.09.5l5.41,3.12A.94.94,0,0,0,165.18,379.74Zm-47.61-2.43-5.41-3.12a1,1,0,0,0-.86.05l-6.13,3.54c-.26.15-.3.37-.09.5l5.41,3.12a1,1,0,0,0,.86,0l6.13-3.54C117.74,377.66,117.78,377.44,117.57,377.31Zm11.81,3L124,377.2a.94.94,0,0,0-.86,0l-9.43,5.45c-.27.15-.3.37-.09.5l5.41,3.12a1,1,0,0,0,.86-.05l9.43-5.45C129.55,380.66,129.59,380.44,129.38,380.32Zm-19.78-9.24L104.19,368a.92.92,0,0,0-.85.05l-7.55,4.35c-.26.15-.3.38-.09.5l5.41,3.12a.94.94,0,0,0,.86-.05l7.55-4.35C109.78,371.43,109.82,371.2,109.6,371.08Zm5.79-3.34a1,1,0,0,0,.86-.05l6.13-3.54c.26-.15.3-.37.09-.5l-5.41-3.12a1,1,0,0,0-.86.05l-6.13,3.54c-.26.15-.3.37-.09.5Zm24.86,16.13-5.41-3.12a.91.91,0,0,0-.86.05l-11.8,6.8c-.26.16-.3.38-.08.5l5.41,3.12a.94.94,0,0,0,.86-.05l11.79-6.81C140.42,384.21,140.46,384,140.25,383.87Zm4.26,7.36-5.41-3.12a1,1,0,0,0-.86.05l-7.55,4.36c-.26.15-.3.37-.08.49l5.41,3.13a1,1,0,0,0,.85-.05l7.55-4.36C144.68,391.58,144.72,391.36,144.51,391.23Zm37.53-62a1,1,0,0,0,.86-.05l6.13-3.54c.26-.15.3-.37.09-.5l-5.41-3.12a1,1,0,0,0-.86.05l-6.14,3.54c-.26.15-.3.37-.08.5Zm-17.93,10.35a1,1,0,0,0,.86-.05L171.1,336c.26-.15.3-.37.09-.5l-5.41-3.12a1,1,0,0,0-.86.05L158.79,336c-.26.15-.3.37-.09.5Zm-39.76,22.95a.91.91,0,0,0,.86-.05l6.14-3.54c.26-.15.3-.37.08-.49L126,355.35a1,1,0,0,0-.86,0L119,358.94c-.26.16-.3.38-.09.5Zm48.72-28.12a1,1,0,0,0,.86-.05l6.14-3.55c.26-.15.29-.37.08-.49l-5.41-3.12a.91.91,0,0,0-.86,0l-6.13,3.54c-.26.15-.3.37-.09.49Zm-17.92,10.35a1,1,0,0,0,.86-.05l6.13-3.54c.26-.15.3-.38.08-.5l-5.41-3.12a.92.92,0,0,0-.85.05l-6.14,3.54c-.26.15-.3.37-.08.49Zm-5.66,47.14a1,1,0,0,0-.85.05l-9.44,5.45c-.26.15-.3.37-.09.49l5.41,3.13a1,1,0,0,0,.86-.05l9.44-5.45c.26-.15.3-.37.08-.49Zm-7.21-39.72a.94.94,0,0,0,.86,0l6.13-3.54c.26-.15.3-.37.09-.49L144,345a1,1,0,0,0-.86.05L137,348.59c-.26.15-.3.38-.09.5Zm-9,5.18a1,1,0,0,0,.86-.05l6.13-3.54c.26-.15.3-.37.09-.5L135,350.18a1,1,0,0,0-.86.05L128,353.77c-.26.15-.3.37-.08.49Zm182.24-61.34a1,1,0,0,0-.86.05l-15.09,8.72c-.26.15-.3.37-.09.49l5.41,3.13a1,1,0,0,0,.86-.05l15.1-8.72c.26-.15.3-.37.08-.49Zm-19.81,11.44a1,1,0,0,0-.86.05l-6.13,3.54c-.26.15-.3.37-.09.5l5.41,3.12a1,1,0,0,0,.86-.05l6.13-3.54c.26-.15.3-.37.09-.49Zm-121.6,67.08,6.13-3.54c.26-.15.3-.38.08-.5L175,367.41a.92.92,0,0,0-.85,0L168,371c-.26.15-.3.37-.08.49l5.41,3.13A1,1,0,0,0,174.15,374.57Zm103.67-56.73a1,1,0,0,0-.86.05l-6.13,3.54c-.26.15-.3.38-.09.5l5.41,3.12A.94.94,0,0,0,277,325l6.14-3.54c.26-.15.29-.37.08-.49Zm46.71-27a.94.94,0,0,0-.86.05l-6.13,3.54c-.26.15-.3.37-.09.49l5.41,3.13a1,1,0,0,0,.86,0l6.13-3.54c.26-.15.3-.38.09-.5Zm14.37-2.05-13.92-8a1,1,0,0,0-.86,0L318,284.38c-.26.15-.3.37-.08.49l13.91,8a1,1,0,0,0,.86-.05l6.14-3.54C339.08,289.17,339.11,289,338.9,288.83Zm-94.58,48.35a1,1,0,0,0-.85.05l-7.55,4.36c-.26.15-.3.37-.09.5l5.41,3.12a1,1,0,0,0,.86,0l7.55-4.36c.26-.15.3-.37.08-.49ZM267,324.11a.94.94,0,0,0-.86.05l-9.43,5.45c-.27.15-.3.37-.09.49l5.41,3.12a.94.94,0,0,0,.86-.05l9.43-5.44c.26-.15.3-.38.09-.5Zm-43.4,25.06a.94.94,0,0,0-.86.05l-50.48,29.14c-.26.15-.3.37-.09.5l5.41,3.12a1,1,0,0,0,.86-.05l50.48-29.14c.26-.15.3-.38.08-.5ZM170.25,380a.94.94,0,0,0-.86.05l-7.54,4.35c-.26.15-.3.38-.09.5l5.41,3.12a.94.94,0,0,0,.86-.05l7.55-4.35c.26-.15.3-.38.08-.5Zm63.69-36.78a1,1,0,0,0-.85.05l-7.55,4.36c-.26.15-.3.37-.09.5l5.41,3.12a.94.94,0,0,0,.86-.05l7.55-4.36c.26-.15.3-.37.08-.49Zm-74.07,42.77a1,1,0,0,0-.85.05l-7.55,4.36c-.26.15-.3.37-.09.49l5.41,3.13a1,1,0,0,0,.86-.05l7.55-4.36c.26-.15.3-.37.08-.5Zm94.83-54.75a1,1,0,0,0-.86.05l-7.54,4.36c-.26.15-.3.37-.09.49l5.41,3.13a1,1,0,0,0,.86-.05l7.55-4.36c.26-.15.3-.37.08-.5Zm32.08-18.52a.92.92,0,0,0-.85.05l-6.14,3.54c-.26.15-.3.37-.08.49l5.41,3.13a1,1,0,0,0,.86-.05l6.13-3.54c.26-.15.3-.38.08-.5Zm19.47-14.37,6.13-3.54c.26-.15.3-.37.09-.5l-5.42-3.12a1,1,0,0,0-.85.05l-6.14,3.54c-.26.15-.3.37-.08.5l5.41,3.12A1,1,0,0,0,306.25,298.3Zm-36.84,1.62,6.14-3.55c.26-.15.3-.37.08-.49l-5.41-3.12a.94.94,0,0,0-.86,0l-6.13,3.55c-.26.15-.3.37-.08.49l5.41,3.12A.92.92,0,0,0,269.41,299.92Zm-23.55,33.25,17.93-10.36c.26-.15.29-.37.08-.49l-5.41-3.12a.94.94,0,0,0-.86,0L239.67,329.6c-.26.15-.29.37-.08.49l5.41,3.12A.94.94,0,0,0,245.86,333.17Zm50.56-29.65a.94.94,0,0,0,.86,0l6.14-3.55c.26-.15.29-.37.08-.49l-5.41-3.13a1,1,0,0,0-.86.05l-6.13,3.55c-.26.15-.3.37-.09.49Zm-7.65-5,6.14-3.54c.26-.15.3-.37.08-.49l-5.41-3.13a1,1,0,0,0-.86.05L282.59,295c-.26.15-.3.38-.08.5l5.41,3.12A.92.92,0,0,0,288.77,298.56Zm-51.88,39.78L243,334.8c.26-.15.3-.37.08-.5l-5.41-3.12a1,1,0,0,0-.86.05l-6.13,3.54c-.26.15-.3.37-.08.5l5.41,3.12A1,1,0,0,0,236.89,338.34ZM276.61,315a.94.94,0,0,0,.86,0l6.13-3.55c.26-.15.3-.37.09-.49l-5.41-3.12a.94.94,0,0,0-.86,0l-6.14,3.55c-.26.15-.29.37-.08.49Zm-84.54,49.26,6.14-3.54c.26-.15.3-.38.08-.5l-5.41-3.12a.94.94,0,0,0-.86.05l-6.13,3.54c-.26.15-.3.37-.08.49l5.41,3.13A1,1,0,0,0,192.07,364.22Zm9-5.18,6.13-3.54c.26-.15.3-.37.09-.49l-5.41-3.13a1,1,0,0,0-.86.05l-6.13,3.54c-.27.15-.3.37-.09.5l5.41,3.12A1,1,0,0,0,201,359Zm-17.93,10.35,6.13-3.54c.26-.15.3-.37.09-.49l-5.41-3.13a1,1,0,0,0-.86,0l-6.13,3.54c-.26.15-.3.38-.09.5l5.41,3.12A1,1,0,0,0,183.11,369.39ZM219,348.69l6.13-3.54c.26-.15.3-.37.08-.5l-5.41-3.12a1,1,0,0,0-.85.05l-6.14,3.54c-.26.15-.3.37-.08.5l5.41,3.12A1,1,0,0,0,219,348.69Zm-9,5.18,6.14-3.54c.26-.15.29-.38.08-.5l-5.41-3.12a.94.94,0,0,0-.86.05l-6.13,3.54c-.26.15-.3.37-.09.49l5.41,3.13A1,1,0,0,0,210,353.87Zm17.93-10.35,6.13-3.55c.26-.15.3-.37.09-.49l-5.41-3.12a.91.91,0,0,0-.86.05L221.75,340c-.26.15-.3.37-.09.49l5.41,3.13A1,1,0,0,0,227.93,343.52Zm49.53-71.64a1,1,0,0,0,.86-.05l6.13-3.55c.26-.15.3-.37.09-.49L283.1,267a.94.94,0,0,0-.86.05l-6.13,3.54c-.26.15-.3.37-.09.49ZM232.74,300a1,1,0,0,0,.86-.05l6.13-3.54c.26-.15.3-.38.09-.5l-5.41-3.12a.94.94,0,0,0-.86.05l-6.13,3.54c-.27.15-.3.37-.09.49Zm17.93-10.35a1,1,0,0,0,.86-.05l6.13-3.54c.26-.15.3-.38.08-.5l-5.41-3.12a.92.92,0,0,0-.85.05L245.34,286c-.26.15-.3.37-.08.49Zm-28.88,16.67a1,1,0,0,0,.86-.05l6.14-3.54c.26-.15.29-.38.08-.5l-5.41-3.12a.94.94,0,0,0-.86,0l-6.13,3.54c-.26.15-.3.37-.09.49Zm19.91-11.5a.94.94,0,0,0,.86-.05l6.14-3.54c.26-.15.29-.37.08-.49l-5.41-3.13a1,1,0,0,0-.86,0l-6.13,3.54c-.26.15-.3.38-.09.5Zm-37.83,21.85a1,1,0,0,0,.85-.05l6.14-3.54c.26-.15.3-.38.08-.5l-5.41-3.12a.94.94,0,0,0-.86.05L198.54,313c-.26.15-.3.37-.08.49Zm9-5.18a.94.94,0,0,0,.86-.05l6.13-3.54c.26-.15.3-.37.09-.49l-5.41-3.13a1,1,0,0,0-.86.05l-6.13,3.54c-.27.15-.3.38-.09.5Zm46.7-29.25a1,1,0,0,0,.86-.05l6.14-3.54c.26-.15.29-.38.08-.5l-1.44-.83a1,1,0,0,0-.86.05l-6.13,3.54c-.26.15-.3.37-.09.49Zm26.9-15.53a1,1,0,0,0,.85-.05l6.14-3.54c.26-.15.3-.37.08-.5l-1.44-.83a1,1,0,0,0-.86.05l-6.13,3.54c-.26.15-.3.38-.08.5Zm11.36,6.56a1,1,0,0,0,.86-.05l6.13-3.54c.26-.15.3-.37.09-.49l-5.41-3.13a1,1,0,0,0-.86.05l-6.13,3.54c-.26.15-.3.37-.09.5Zm17.42,19.86,6.13-3.54c.26-.15.3-.37.09-.49L316,286a1,1,0,0,0-.86.05L309,289.55c-.26.16-.3.38-.09.5l5.41,3.12A.94.94,0,0,0,315.21,293.12ZM268.5,277.05a1,1,0,0,0,.86-.05l6.13-3.54c.26-.15.3-.37.08-.5l-1.44-.83a1,1,0,0,0-.85.05l-6.14,3.54c-.26.15-.3.38-.08.5Zm-73.6,44.78a.94.94,0,0,0,.86-.05l6.13-3.54c.26-.15.3-.37.09-.49l-5.41-3.13a1,1,0,0,0-.86.05l-6.13,3.54c-.26.15-.3.38-.09.5Z" style="fill:#37474f"></path><polygon points="222.35 368.12 223.6 368.85 257.01 388.13 316.41 353.83 317.65 353.13 282.99 333.12 222.35 368.12" style="opacity:0.4"></polygon><polygon points="315.86 354.15 282.99 335.19 224.16 369.17 257.01 388.13 315.86 354.15" style="fill:#8D72E1"></polygon><polygon points="315.86 354.15 282.99 335.19 224.16 369.17 257.01 388.13 315.86 354.15" style="opacity:0.45"></polygon></g></g><g id="freepik--Window--inject-4"><g id="freepik--window--inject-4"><path d="M86.74,359.5a3.67,3.67,0,0,1-1.67.5,4.11,4.11,0,0,1-2.44-.43,4.5,4.5,0,0,1-2-3.59V232l4,2.3v124c0,1,.48,1.52,1.18,1.52A2.07,2.07,0,0,0,86.74,359.5Z" style="fill:#e6e6e6"></path><path d="M294.05,237.32a4.71,4.71,0,0,1-2.12,3.68L86.74,359.5c-1.17.67-2.12.12-2.12-1.23V220.46l5.85-3.38c1.16-.67,3.06-11,4.24-11.65l50.65-29.24c1.18-.68,3.94,6.93,5.11,6.25L294.05,99.5V237.32Z" style="fill:#f0f0f0"></path><path d="M82.63,227a4.56,4.56,0,0,1-2-3.6V206.81a4.69,4.69,0,0,1,2.13-3.67L287.94,84.64a4,4,0,0,1,6.11,3.52v16.57a4.7,4.7,0,0,1-2.12,3.68L86.74,226.91A4.55,4.55,0,0,1,82.63,227Z" style="fill:#8D72E1"></path><path d="M294,87.81c-.15-1.09-1-1.5-2.1-.88L86.74,205.43a4.51,4.51,0,0,0-1.5,1.59l-4-2.3a4.31,4.31,0,0,1,1.5-1.58L288,84.64A4,4,0,0,1,294,87.81Z" style="fill:#fff;opacity:0.5"></path><path d="M85.24,207a4.35,4.35,0,0,0-.62,2.09v25.15l-4-2.3V206.81c0-.08,0-.16,0-.25a4.18,4.18,0,0,1,.09-.53,4.62,4.62,0,0,1,.53-1.31Z" style="opacity:0.15"></path><path d="M294.05,88.16V99.5L150.47,182.44c-1.17.68-2.12.13-2.12-1.23v-4.29c0-1.35-.95-1.9-2.13-1.23L94.71,205.43a4.7,4.7,0,0,0-2.13,3.68v4.3a4.69,4.69,0,0,1-2.11,3.67l-5.85,3.38V209.11a4.71,4.71,0,0,1,2.12-3.68L291.93,86.93C293.09,86.26,294.05,86.8,294.05,88.16Z" style="fill:#8D72E1"></path><path d="M284.09,95.27c1.48-.85,2.67-.16,2.67,1.55a5.88,5.88,0,0,1-2.67,4.62c-1.47.85-2.67.16-2.67-1.54A5.93,5.93,0,0,1,284.09,95.27Z" style="fill:#fff"></path><path d="M274.47,100.82c1.48-.85,2.68-.16,2.68,1.54a5.91,5.91,0,0,1-2.68,4.63c-1.47.85-2.67.16-2.67-1.54A5.91,5.91,0,0,1,274.47,100.82Z" style="fill:#fff"></path><path d="M264.86,106.36c1.47-.85,2.67-.16,2.67,1.55a5.91,5.91,0,0,1-2.67,4.62c-1.48.85-2.68.16-2.68-1.54A5.93,5.93,0,0,1,264.86,106.36Z" style="fill:#fff"></path><path d="M294.05,99.5v13.81l-209.43,121v-13.8L89,217.93c1.16-.68,1.55-1.71,2.11-3.68l1.48-5.14c.47-1.78,1-3,2.13-3.68l50.65-29.24c1.18-.68,2.09-.75,3,.73l1.81,3.29c.67,1.15,1,1.83,2.17,1.15Z" style="fill:#e0e0e0"></path><polygon points="84.62 220.46 84.62 234.26 80.63 231.96 80.63 218.16 84.62 220.46" style="fill:#e0e0e0"></polygon><polygon points="84.62 220.46 84.62 234.26 80.63 231.96 80.63 218.16 84.62 220.46" style="opacity:0.15"></polygon><path d="M94.36,221.45,91,223.38l1.27-2.45a.61.61,0,0,0,0-.6c-.09-.11-.26,0-.38.18L90.14,224h0s0,.09,0,.13,0,0,0,.05a.51.51,0,0,0,0,.17.38.38,0,0,0,0,.16s0,0,0,0a.56.56,0,0,0,0,.08h0l1.8,1.39a.15.15,0,0,0,.18,0,.47.47,0,0,0,.2-.25c.1-.23.09-.49,0-.57l-1.27-1,3.33-1.92a.71.71,0,0,0,.27-.57C94.63,221.48,94.51,221.37,94.36,221.45Z" style="fill:#455a64;opacity:0.5"></path><path d="M97.14,219.84l3.34-1.92-1.27-1c-.12-.08-.13-.34,0-.57s.27-.34.38-.25l1.81,1.39h0a.22.22,0,0,1,0,.08l0,0a.78.78,0,0,1,0,.16,1,1,0,0,1,0,.17s0,0,0,.05a.69.69,0,0,1,0,.13h0l-1.81,3.48a.51.51,0,0,1-.18.2.15.15,0,0,1-.2,0,.59.59,0,0,1,0-.6l1.27-2.44-3.34,1.92c-.14.08-.26,0-.26-.26A.74.74,0,0,1,97.14,219.84Z" style="fill:#455a64;opacity:0.5"></path><path d="M108.08,210.25c0-.2-.2-.18-.29,0l-.45,1.11c-.78-.08-1.73.68-2.36,2-.83,1.75-.83,3.81,0,4.61a1.17,1.17,0,0,0,1.49.09,4.09,4.09,0,0,0,1.5-1.82.54.54,0,0,0,0-.58c-.1-.1-.27,0-.38.22-.61,1.3-1.62,1.88-2.23,1.29s-.62-2.14,0-3.45c.43-.92,1.07-1.47,1.62-1.51l-.35.84c-.09.22,0,.43.13.33l1.36-.88a.45.45,0,0,0,.16-.38Z" style="fill:#455a64;opacity:0.5"></path><path d="M143.9,182.49l1.21-2.57a.75.75,0,0,0,0-.8c-.14-.14-.37,0-.52.3L143.38,182l-1.22-1.17c-.14-.14-.37,0-.52.3a.8.8,0,0,0,0,.8l1.22,1.17-1.22,2.57a.8.8,0,0,0,0,.8.21.21,0,0,0,.26,0,.62.62,0,0,0,.26-.32l1.22-2.57,1.21,1.17a.21.21,0,0,0,.26,0,.72.72,0,0,0,.26-.32.75.75,0,0,0,0-.8Z" style="fill:#455a64;opacity:0.5"></path><path d="M112.5,213.41v-4.3a4.71,4.71,0,0,1,2.12-3.68L280,110c1.17-.68,2.12-.13,2.12,1.23v4.29a4.7,4.7,0,0,1-2.12,3.68L114.62,214.63C113.45,215.31,112.5,214.76,112.5,213.41Z" style="fill:#fafafa"></path><path d="M277.09,119.51a.58.58,0,0,1-.19,0,.57.57,0,0,1-.32-.64l.21-1.74-.82-.59a.58.58,0,0,1-.22-.48,1,1,0,0,1,.34-.74l1.25-1a.36.36,0,0,0,.06-.1l.56-1.83a.77.77,0,0,1,.62-.59.49.49,0,0,1,.49.29h0l.47,1,1-.41a.52.52,0,0,1,.57.13.76.76,0,0,1,0,.86l-.9,1.7a.33.33,0,0,0,0,.1l.22,1.53a1,1,0,0,1-.27.76.59.59,0,0,1-.49.2l-1-.13-1.1,1.41A.64.64,0,0,1,277.09,119.51Zm-.6-3.55.81.59a.61.61,0,0,1,.22.59l-.14,1.16.74-.94a.6.6,0,0,1,.56-.27l1,.13a.34.34,0,0,0,0-.12l-.22-1.53a1,1,0,0,1,.11-.55l.79-1.48-.81.31a.5.5,0,0,1-.65-.26l-.36-.78-.5,1.63a.94.94,0,0,1-.31.46l-1.25,1A.23.23,0,0,0,276.49,116Zm3.14-2.69h0Z" style="fill:#e0e0e0"></path><g style="opacity:0.5"><path d="M284.6,109.46a.74.74,0,0,1-.36-1.38l6-3.45a.74.74,0,0,1,.74,1.28l-6,3.45A.82.82,0,0,1,284.6,109.46Z" style="fill:#455a64"></path><path d="M284.6,112.91a.74.74,0,0,1-.36-1.38l6-3.45a.74.74,0,0,1,.74,1.28l-6,3.45A.71.71,0,0,1,284.6,112.91Z" style="fill:#455a64"></path><path d="M284.6,116.36a.73.73,0,0,1-.36-1.37l6-3.45a.72.72,0,0,1,1,.26.73.73,0,0,1-.26,1l-6,3.45A.71.71,0,0,1,284.6,116.36Z" style="fill:#455a64"></path></g><path d="M91.69,235.66,287,122.91c1-.59,1.82-.11,1.82,1v15.82a4,4,0,0,1-1.82,3.16L91.69,255.69c-1,.58-1.83.11-1.83-1.06V238.81A4,4,0,0,1,91.69,235.66Z" style="fill:#455a64"></path><path d="M98.74,236.61c.12-.08.22-.08.28,0a.58.58,0,0,1,.14.24l2,7.88a.88.88,0,0,1,0,.2.57.57,0,0,1-.06.25.39.39,0,0,1-.14.18l-1.18.68q-.18.1-.27,0a.31.31,0,0,1-.09-.18l-.27-1-2.48,1.43-.26,1.35a1.11,1.11,0,0,1-.1.29.61.61,0,0,1-.27.28l-1.17.68a.12.12,0,0,1-.15,0,.25.25,0,0,1-.06-.19,1,1,0,0,1,0-.24l2-10.23a1.54,1.54,0,0,1,.13-.4.73.73,0,0,1,.28-.32Zm-1.52,7.15,1.52-.87-.76-3Z" style="fill:#8D72E1"></path><path d="M103.71,236.18a1.54,1.54,0,0,1,.47-.19.85.85,0,0,1,.36,0,.68.68,0,0,1,.25.14.94.94,0,0,1,.17.18v-3.06a.74.74,0,0,1,.07-.32.51.51,0,0,1,.18-.22l1.18-.68a.15.15,0,0,1,.18,0,.3.3,0,0,1,.07.23v9.43a.74.74,0,0,1-.07.32.51.51,0,0,1-.18.22l-1.13.65a.15.15,0,0,1-.18,0,.32.32,0,0,1-.07-.23v-.33c-.06.13-.12.27-.19.41a1.91,1.91,0,0,1-.24.41,2.63,2.63,0,0,1-.35.41,3.18,3.18,0,0,1-.52.38,1.79,1.79,0,0,1-.8.26.83.83,0,0,1-.65-.23,1.64,1.64,0,0,1-.45-.76,4.83,4.83,0,0,1-.2-1.36V240.7a7.57,7.57,0,0,1,.2-1.58,5.75,5.75,0,0,1,.45-1.29,4.47,4.47,0,0,1,.65-1A3.23,3.23,0,0,1,103.71,236.18Zm-.42,3.72a5.47,5.47,0,0,0,0,.81,1.49,1.49,0,0,0,.21.75c.13.18.33.19.63,0a1.28,1.28,0,0,0,.35-.31,1.87,1.87,0,0,0,.25-.41,2,2,0,0,0,.15-.45,2.57,2.57,0,0,0,.08-.47c0-.15,0-.32,0-.51s0-.35,0-.49a1.51,1.51,0,0,0-.08-.38.59.59,0,0,0-.15-.27.36.36,0,0,0-.25-.13.59.59,0,0,0-.35.11,1.41,1.41,0,0,0-.63.73A3.43,3.43,0,0,0,103.29,239.9Z" style="fill:#8D72E1"></path><path d="M115.38,236.67a.74.74,0,0,1-.07.32.46.46,0,0,1-.18.22l-1.13.65a.14.14,0,0,1-.18,0,.32.32,0,0,1-.07-.23v-3.68a1.69,1.69,0,0,0-.17-.93q-.18-.19-.51,0a1.13,1.13,0,0,0-.5.59,2.78,2.78,0,0,0-.18,1.12v3.68a.74.74,0,0,1-.07.32.48.48,0,0,1-.18.21l-1.13.66a.14.14,0,0,1-.18,0,.33.33,0,0,1-.07-.23v-3.68a1.64,1.64,0,0,0-.17-.92c-.12-.14-.29-.14-.51,0a1.17,1.17,0,0,0-.5.59,2.65,2.65,0,0,0-.17,1.08v3.73a.71.71,0,0,1-.08.31.46.46,0,0,1-.18.22l-1.17.68a.15.15,0,0,1-.18,0,.32.32,0,0,1-.08-.23v-6.71a.71.71,0,0,1,.08-.31.46.46,0,0,1,.18-.22l1.13-.65c.07,0,.13,0,.17,0a.3.3,0,0,1,.08.23v.33a4,4,0,0,1,.5-.92,2.07,2.07,0,0,1,.69-.63,1.34,1.34,0,0,1,.86-.22.83.83,0,0,1,.63.48,4.8,4.8,0,0,1,.66-1.21,3,3,0,0,1,.83-.77,1.49,1.49,0,0,1,.75-.24.82.82,0,0,1,.59.26,1.81,1.81,0,0,1,.38.8,5.9,5.9,0,0,1,.13,1.39Z" style="fill:#8D72E1"></path><path d="M118.1,226.83a.71.71,0,0,1-.07.32.46.46,0,0,1-.18.22l-1.18.68a.14.14,0,0,1-.17,0,.33.33,0,0,1-.08-.24v-1.45a.71.71,0,0,1,.08-.31.51.51,0,0,1,.17-.22l1.18-.68a.14.14,0,0,1,.18,0,.32.32,0,0,1,.07.23Zm0,8.27a.71.71,0,0,1-.07.32.46.46,0,0,1-.18.22l-1.18.68a.12.12,0,0,1-.17,0,.29.29,0,0,1-.08-.23v-6.7a.71.71,0,0,1,.08-.31.51.51,0,0,1,.17-.22l1.18-.68a.14.14,0,0,1,.18,0,.32.32,0,0,1,.07.23Z" style="fill:#8D72E1"></path><path d="M124.17,231.6a.72.72,0,0,1-.08.32.46.46,0,0,1-.18.22l-1.17.68a.14.14,0,0,1-.18,0,.29.29,0,0,1-.08-.23v-3.63a1.49,1.49,0,0,0-.19-.88c-.13-.18-.34-.18-.62,0a1.39,1.39,0,0,0-.61.73,2.92,2.92,0,0,0-.19,1.1v3.64a.71.71,0,0,1-.08.31.51.51,0,0,1-.17.22l-1.18.68a.14.14,0,0,1-.18,0,.32.32,0,0,1-.07-.23v-6.7a.74.74,0,0,1,.07-.32.51.51,0,0,1,.18-.22l1.13-.65a.15.15,0,0,1,.18,0,.32.32,0,0,1,.07.23v.33c.05-.12.11-.26.19-.41a2.54,2.54,0,0,1,.27-.43,2.86,2.86,0,0,1,.37-.42,2.7,2.7,0,0,1,.49-.36,1.86,1.86,0,0,1,.82-.28.83.83,0,0,1,.64.23,1.59,1.59,0,0,1,.42.78,5.17,5.17,0,0,1,.15,1.38Z" style="fill:#8D72E1"></path><path d="M220.46,169.63V173c0,.69.49,1,1.1.63l53.58-30.94V136.8l-53.58,30.94A2.4,2.4,0,0,0,220.46,169.63Z" style="fill:#fafafa"></path><path d="M280.88,133.49c.6-.35,1.09-.07,1.09.63v3.39a2.43,2.43,0,0,1-1.09,1.9l-5.74,3.31V136.8Z" style="fill:#8D72E1"></path><path d="M280.45,138.14l-.64-.2a3.29,3.29,0,0,0,.1-.82,1.51,1.51,0,0,0-.58-1.37.9.9,0,0,0-.93.05,3.25,3.25,0,0,0-1.28,2.66,1.53,1.53,0,0,0,.58,1.37.84.84,0,0,0,.41.11,1.11,1.11,0,0,0,.53-.16,2.69,2.69,0,0,0,1-1.38l.64.2h.07a.25.25,0,0,0,.23-.17A.24.24,0,0,0,280.45,138.14Zm-2.05,1.23a.46.46,0,0,1-.46,0,1.14,1.14,0,0,1-.35-1,2.82,2.82,0,0,1,1.05-2.25.57.57,0,0,1,.28-.09.33.33,0,0,1,.17,0,1.11,1.11,0,0,1,.35,1A2.88,2.88,0,0,1,278.4,139.37Z" style="fill:#fafafa"></path></g><g id="freepik--Tabs--inject-4"><path d="M92,259l29.18-16.94c1.09-.63,2-.12,2,1.13v33.91a4.36,4.36,0,0,1-2,3.42L91.84,297.5c-1.09.63-2,.12-2-1.14L90,262.45A4.37,4.37,0,0,1,92,259Z" style="fill:#fafafa"></path><path d="M106.32,255c7.15-4.13,13-.78,13,7.48s-5.8,18.3-13,22.43-12.95.78-12.95-7.48S99.16,259.15,106.32,255Z" style="fill:#455a64"></path><path d="M105.69,259.59c2.14-1.23,3.87-.23,3.87,2.24a8.57,8.57,0,0,1-3.87,6.71c-2.14,1.23-3.87.23-3.87-2.24A8.57,8.57,0,0,1,105.69,259.59Z" style="fill:#8D72E1"></path><path d="M113.32,273.74c0-4.06-2.84-5.86-6.36-3.83l-2.2,1.26a14.09,14.09,0,0,0-6.36,11v1.09s1.5,3.09,7.46-.44,7.46-8.17,7.46-8.17Z" style="fill:#8D72E1"></path><path d="M129,237.71l58.85-34.08c1.09-.63,2-.12,2,1.13V243a4.37,4.37,0,0,1-2,3.41l-59,34.09c-1.09.63-2,.12-2-1.14l.17-38.22A4.37,4.37,0,0,1,129,237.71Z" style="fill:#fafafa"></path><path d="M132.84,240.21l21.43-12.37c.63-.36,1.15-.1,1.15.58a2.47,2.47,0,0,1-1.15,1.91L132.84,242.7c-.63.37-1.15.11-1.15-.58A2.48,2.48,0,0,1,132.84,240.21Z" style="fill:#e0e0e0"></path><path d="M132.84,250.39l12.6-7.26c.63-.37,1.15-.11,1.15.58a2.48,2.48,0,0,1-1.15,1.91l-12.6,7.26c-.63.37-1.15.11-1.15-.58A2.48,2.48,0,0,1,132.84,250.39Z" style="fill:#e0e0e0"></path><path d="M129.54,248.81a.26.26,0,0,1-.23-.13.26.26,0,0,1,.1-.36l56.08-32.38a.27.27,0,0,1,.36.1.26.26,0,0,1-.1.36l-56.07,32.38A.35.35,0,0,1,129.54,248.81Z" style="fill:#e0e0e0"></path><path d="M129.54,258.77a.27.27,0,0,1-.13-.5l56.08-32.37a.26.26,0,1,1,.26.46l-56.07,32.37A.25.25,0,0,1,129.54,258.77Z" style="fill:#e0e0e0"></path><path d="M177.18,224.87c.54-.31,1-.06,1,.56a2.13,2.13,0,0,1-1,1.68c-.54.31-1,.06-1-.56A2.14,2.14,0,0,1,177.18,224.87Z" style="fill:#455a64"></path><path d="M176.55,228a1,1,0,0,1-.51-.13,1.2,1.2,0,0,1-.53-1.09,3.61,3.61,0,0,1,1.68-2.8l3.29-1.9a1.33,1.33,0,0,1,1.34-.13,1.2,1.2,0,0,1,.53,1.09,3.54,3.54,0,0,1-1.69,2.8l-3.27,1.91A1.71,1.71,0,0,1,176.55,228Zm-.67-1.22a.86.86,0,0,0,.34.78,1,1,0,0,0,1-.13l3.28-1.91a3.19,3.19,0,0,0,1.5-2.48.84.84,0,0,0-.34-.77,1,1,0,0,0-1,.13l-3.29,1.9a3.2,3.2,0,0,0-1.49,2.48Z" style="fill:#455a64"></path><path d="M132.84,260.34l19.28-11.13c.63-.36,1.15-.1,1.15.58a2.47,2.47,0,0,1-1.15,1.91l-19.28,11.13c-.63.37-1.15.11-1.15-.58A2.48,2.48,0,0,1,132.84,260.34Z" style="fill:#e0e0e0"></path><path d="M129.54,268.72a.28.28,0,0,1-.23-.13.26.26,0,0,1,.1-.36l56.08-32.38a.27.27,0,0,1,.36.1.26.26,0,0,1-.1.36l-56.07,32.38A.35.35,0,0,1,129.54,268.72Z" style="fill:#e0e0e0"></path><path d="M176.55,238a1.07,1.07,0,0,1-.51-.13,1.22,1.22,0,0,1-.53-1.09,3.6,3.6,0,0,1,1.68-2.8l3.29-1.91a1.32,1.32,0,0,1,1.34-.12,1.17,1.17,0,0,1,.53,1.08,3.54,3.54,0,0,1-1.69,2.8l-3.27,1.91A1.73,1.73,0,0,1,176.55,238Z" style="fill:#8D72E1"></path><path d="M180.71,232.76c.54-.31,1-.06,1,.56a2.13,2.13,0,0,1-1,1.68c-.54.31-1,.06-1-.56A2.14,2.14,0,0,1,180.71,232.76Z" style="fill:#fafafa"></path><path d="M132.84,270.3l12.6-7.27c.63-.36,1.15-.1,1.15.59a2.46,2.46,0,0,1-1.15,1.9l-12.6,7.27c-.63.36-1.15.1-1.15-.59A2.46,2.46,0,0,1,132.84,270.3Z" style="fill:#e0e0e0"></path><path d="M177.18,244.77c.54-.31,1-.06,1,.56a2.14,2.14,0,0,1-1,1.69c-.54.3-1,0-1-.57A2.16,2.16,0,0,1,177.18,244.77Z" style="fill:#455a64"></path><path d="M176.55,248a1,1,0,0,1-.51-.13,1.21,1.21,0,0,1-.53-1.09,3.6,3.6,0,0,1,1.68-2.8l3.29-1.91a1.32,1.32,0,0,1,1.34-.12,1.18,1.18,0,0,1,.53,1.09,3.54,3.54,0,0,1-1.69,2.79l-3.27,1.91A1.73,1.73,0,0,1,176.55,248Zm-.67-1.22a.84.84,0,0,0,.34.77,1,1,0,0,0,1-.12l3.28-1.91A3.21,3.21,0,0,0,182,243a.83.83,0,0,0-.34-.77,1,1,0,0,0-1,.12l-3.29,1.91a3.17,3.17,0,0,0-1.49,2.48Z" style="fill:#455a64"></path><path d="M92,301.75l29.18-16.94c1.09-.63,2-.12,2,1.14v16.82a4.36,4.36,0,0,1-2,3.42L91.83,323.14c-1.09.63-2,.12-2-1.14L90,305.17A4.39,4.39,0,0,1,92,301.75Z" style="fill:#fafafa"></path><path d="M105,305.66V304c0-.1-.07-.14-.16-.1l-1.25.56a.15.15,0,0,1-.21-.09,3.63,3.63,0,0,0-.28-.63.35.35,0,0,1,0-.3l.84-1.69a.19.19,0,0,0-.08-.24l-.91-.53a.19.19,0,0,0-.25.06l-1,1.57a.32.32,0,0,1-.27.13,3.27,3.27,0,0,0-.68.07.15.15,0,0,1-.19-.13l-.14-1.37c0-.1-.08-.13-.17-.09l-1.41.82a.35.35,0,0,0-.16.26l-.15,1.57a.44.44,0,0,1-.14.29,8.89,8.89,0,0,0-.79.83.25.25,0,0,1-.27.08l-.91-.32a.23.23,0,0,0-.25.1l-1,1.79a.21.21,0,0,0,0,.27l.72.63a.25.25,0,0,1,.07.28,9,9,0,0,0-.32,1.09.5.5,0,0,1-.18.27l-1.29.91a.39.39,0,0,0-.15.28V312a.11.11,0,0,0,.17.1l1.25-.57a.15.15,0,0,1,.21.1,2.71,2.71,0,0,0,.28.62.37.37,0,0,1,0,.31L95,314.27a.19.19,0,0,0,.08.25l.9.52a.19.19,0,0,0,.25-.06l1.05-1.56a.35.35,0,0,1,.27-.14,2.76,2.76,0,0,0,.68-.07.16.16,0,0,1,.19.13l.13,1.37a.11.11,0,0,0,.17.09l1.41-.81a.38.38,0,0,0,.17-.27l.14-1.56a.57.57,0,0,1,.15-.3,7.72,7.72,0,0,0,.78-.83.29.29,0,0,1,.28-.08l.9.32a.23.23,0,0,0,.26-.09l1-1.8a.25.25,0,0,0,0-.27l-.73-.62a.29.29,0,0,1-.07-.28,7.54,7.54,0,0,0,.33-1.09.53.53,0,0,1,.18-.28l1.29-.9A.38.38,0,0,0,105,305.66Zm-5.51,5.12c-1.32.76-2.38.14-2.38-1.38a5.24,5.24,0,0,1,2.38-4.12c1.31-.76,2.38-.15,2.38,1.37A5.28,5.28,0,0,1,99.44,310.78Z" style="fill:#e0e0e0"></path><path d="M108.06,298.11l9.52-5.5c.44-.25.79-.17.79.18a1.52,1.52,0,0,1-.79,1.09l-9.52,5.5c-.44.25-.79.17-.79-.18A1.52,1.52,0,0,1,108.06,298.11Z" style="fill:#e0e0e0"></path><path d="M108.06,301l9.52-5.5c.44-.25.79-.17.79.18a1.52,1.52,0,0,1-.79,1.09l-9.52,5.5c-.44.25-.79.17-.79-.18A1.52,1.52,0,0,1,108.06,301Z" style="fill:#e0e0e0"></path><path d="M108.06,304l9.52-5.5c.44-.25.79-.17.79.18a1.52,1.52,0,0,1-.79,1.09l-9.52,5.5c-.44.25-.79.17-.79-.18A1.52,1.52,0,0,1,108.06,304Z" style="fill:#e0e0e0"></path><path d="M108.06,306.89l9.52-5.49c.44-.26.79-.18.79.18a1.52,1.52,0,0,1-.79,1.09l-9.52,5.5c-.44.25-.79.17-.79-.18A1.54,1.54,0,0,1,108.06,306.89Z" style="fill:#e0e0e0"></path><path d="M92,327.39l29.18-16.95c1.09-.63,2-.12,2,1.14V328.4a4.36,4.36,0,0,1-2,3.42L91.83,348.77c-1.09.63-2,.12-2-1.14L90,330.81A4.37,4.37,0,0,1,92,327.39Z" style="fill:#fafafa"></path><path d="M98.14,334.07l-5-1.74,11.33-6.54-5.27,7.94A.83.83,0,0,1,98.14,334.07Z" style="fill:#e0e0e0"></path><path d="M104.46,334.78a2.18,2.18,0,0,1-.9,1.75L94,342c-.5.29-.9,0-.9-.71v-9l5.12,3.35a.59.59,0,0,0,.86-.21l5.35-9.68Z" style="fill:#e0e0e0"></path><path d="M108.06,323.76l9.52-5.5c.44-.25.79-.17.79.18a1.52,1.52,0,0,1-.79,1.09l-9.52,5.5c-.44.25-.79.17-.79-.18A1.52,1.52,0,0,1,108.06,323.76Z" style="fill:#e0e0e0"></path><path d="M108.06,326.69l9.52-5.5c.44-.25.79-.17.79.18a1.52,1.52,0,0,1-.79,1.09l-9.52,5.5c-.44.25-.79.17-.79-.18A1.52,1.52,0,0,1,108.06,326.69Z" style="fill:#e0e0e0"></path><path d="M108.06,329.62l9.52-5.5c.44-.25.79-.17.79.18a1.52,1.52,0,0,1-.79,1.09l-9.52,5.5c-.44.25-.79.17-.79-.18A1.52,1.52,0,0,1,108.06,329.62Z" style="fill:#e0e0e0"></path><path d="M108.06,332.54l9.52-5.49c.44-.26.79-.17.79.18a1.52,1.52,0,0,1-.79,1.09l-9.52,5.5c-.44.25-.79.17-.79-.18A1.54,1.54,0,0,1,108.06,332.54Z" style="fill:#e0e0e0"></path><path d="M126.87,287.16v40c0,.74.52,1,1.16.67l60.59-35a2.57,2.57,0,0,0,1.16-2v-40c0-.74-.52-1-1.16-.67l-60.59,35A2.56,2.56,0,0,0,126.87,287.16Z" style="fill:#fafafa"></path><path d="M132.23,295.67l3.73-2.15c.57-.33,1-.1,1,.52a2.18,2.18,0,0,1-1,1.7l-3.72,2.16c-.57.32-1,.09-1-.52A2.22,2.22,0,0,1,132.23,295.67Z" style="fill:#e0e0e0"></path><path d="M132.84,288l21.43-12.37c.63-.37,1.15-.11,1.15.58a2.48,2.48,0,0,1-1.15,1.91l-21.43,12.37c-.63.37-1.15.11-1.15-.58A2.48,2.48,0,0,1,132.84,288Z" style="fill:#e0e0e0"></path><path d="M132.23,302.36l3.73-2.15c.57-.33,1-.1,1,.52a2.2,2.2,0,0,1-1,1.7l-3.72,2.15c-.57.33-1,.1-1-.52A2.22,2.22,0,0,1,132.23,302.36Z" style="fill:#e0e0e0"></path><path d="M132.23,309l3.73-2.15c.57-.33,1-.1,1,.52a2.22,2.22,0,0,1-1,1.71l-3.72,2.15c-.57.33-1,.09-1-.52A2.22,2.22,0,0,1,132.23,309Z" style="fill:#e0e0e0"></path><path d="M132.23,315.7l3.73-2.15c.57-.33,1-.1,1,.52a2.18,2.18,0,0,1-1,1.7l-3.72,2.16c-.57.32-1,.09-1-.52A2.22,2.22,0,0,1,132.23,315.7Z" style="fill:#e0e0e0"></path><path d="M138.92,314.31a.25.25,0,0,1-.21-.12.24.24,0,0,1,.09-.32L185.32,287a.24.24,0,0,1,.32.09.23.23,0,0,1-.08.32L139,314.28A.27.27,0,0,1,138.92,314.31Z" style="fill:#e0e0e0"></path><path d="M138.92,307.63a.25.25,0,0,1-.21-.12.24.24,0,0,1,.09-.32l46.52-26.87a.24.24,0,0,1,.24.42L139,307.6Z" style="fill:#e0e0e0"></path><path d="M138.92,301a.26.26,0,0,1-.21-.11.25.25,0,0,1,.09-.33l46.52-26.86a.23.23,0,0,1,.32.08.24.24,0,0,1-.08.33L139,300.94Z" style="fill:#e0e0e0"></path><path d="M138.92,294.32a.25.25,0,0,1-.21-.12.24.24,0,0,1,.09-.32L185.32,267a.23.23,0,0,1,.32.09.23.23,0,0,1-.08.32L139,294.29Z" style="fill:#e0e0e0"></path><polygon points="139.8 313.47 139.8 306.89 144.22 303.49 149.55 300.37 152.9 295.98 158.32 292.85 161.58 288.46 172.42 282.2 176.76 278.24 181.1 272.18 185.44 268.59 185.44 287.21 139.8 313.47" style="fill:#8D72E1"></polygon><polygon points="139.8 313.47 139.8 308.55 145.63 305.13 150.73 300.99 156.11 297.91 161.61 293.49 167 290.34 170.25 285.96 175.81 282.74 178.93 278.44 182.85 273.67 185.44 272.18 185.44 287.21 139.8 313.47" style="fill:#8D72E1"></polygon><g style="opacity:0.1"><polygon points="139.8 313.47 139.8 308.55 145.63 305.13 150.73 300.99 156.11 297.91 161.61 293.49 167 290.34 170.25 285.96 175.81 282.74 178.93 278.44 182.85 273.67 185.44 272.18 185.44 287.21 139.8 313.47"></polygon></g><path d="M195.45,199.22l40.46-23.36c1.09-.63,2-.12,2,1.13v85.18a4.36,4.36,0,0,1-2,3.42L195.45,289c-1.09.63-2,.12-2-1.14V202.63A4.33,4.33,0,0,1,195.45,199.22Z" style="fill:#fafafa"></path><g id="freepik--Chart--inject-4"><path d="M212.4,210.06s.09,0,.12,0a.14.14,0,0,1,.06.13v.56a.68.68,0,0,1,0,.19c0,.07,0,.16-.08.28L211,216.63a1.34,1.34,0,0,1-.07.18.24.24,0,0,1-.11.13l-.53.31a.1.1,0,0,1-.13,0,.17.17,0,0,1-.05-.13.89.89,0,0,1,0-.11l1.49-5.43-2,1.16a.09.09,0,0,1-.12,0,.16.16,0,0,1,0-.13V212a.53.53,0,0,1,0-.2.38.38,0,0,1,.12-.13Z" style="fill:#455a64"></path><path d="M216.55,209.89v1.52a6.4,6.4,0,0,1-.12,1,3.51,3.51,0,0,1-.29.9,3.37,3.37,0,0,1-.52.79,3.32,3.32,0,0,1-.79.63,1.88,1.88,0,0,1-.79.28.75.75,0,0,1-.52-.18,1.15,1.15,0,0,1-.3-.57,4.09,4.09,0,0,1-.11-.85c0-.21,0-.45,0-.73s0-.52,0-.74a6.38,6.38,0,0,1,.11-1,3.67,3.67,0,0,1,.3-.92,3.37,3.37,0,0,1,.52-.79,2.81,2.81,0,0,1,.79-.64,1.83,1.83,0,0,1,.79-.29.71.71,0,0,1,.52.19,1.11,1.11,0,0,1,.29.56A4.14,4.14,0,0,1,216.55,209.89Zm-2.58,3a1.47,1.47,0,0,0,.22.82c.13.15.34.14.64,0a1.38,1.38,0,0,0,.63-.7,3.32,3.32,0,0,0,.23-1.08c0-.22,0-.46,0-.72s0-.5,0-.71a1.48,1.48,0,0,0-.23-.82q-.18-.23-.63,0a1.49,1.49,0,0,0-.64.7,3.33,3.33,0,0,0-.22,1.08c0,.22,0,.46,0,.72S214,212.64,214,212.85Z" style="fill:#455a64"></path><path d="M218.13,206.71a.87.87,0,0,1,.41-.14.52.52,0,0,1,.29.07.55.55,0,0,1,.18.24,1.28,1.28,0,0,1,.07.35c0,.14,0,.3,0,.46s0,.33,0,.48a2.26,2.26,0,0,1-.07.43,2.11,2.11,0,0,1-.18.45,1.85,1.85,0,0,1-.29.4,1.65,1.65,0,0,1-.41.33.87.87,0,0,1-.41.14.41.41,0,0,1-.29-.07.45.45,0,0,1-.18-.24,1.14,1.14,0,0,1-.07-.34c0-.14,0-.3,0-.47s0-.32,0-.48a2.3,2.3,0,0,1,.07-.42,1.92,1.92,0,0,1,.18-.45,2.78,2.78,0,0,1,.29-.41A1.65,1.65,0,0,1,218.13,206.71Zm2.56-1.27a.87.87,0,0,1,.09-.17.58.58,0,0,1,.14-.13l.39-.22a.12.12,0,0,1,.11,0,.11.11,0,0,1,0,.1.09.09,0,0,1,0,.05.14.14,0,0,1,0,.06l-3.15,7.36a1.31,1.31,0,0,1-.09.17.41.41,0,0,1-.14.12l-.38.22s-.09,0-.12,0a.12.12,0,0,1,0-.1.06.06,0,0,1,0,0,.14.14,0,0,1,0-.06Zm-2.22,3s0-.09,0-.17v-.46c0-.07,0-.12,0-.15a.45.45,0,0,0-.08-.24c0-.06-.14,0-.26,0a.54.54,0,0,0-.25.27,1,1,0,0,0-.09.34s0,.09,0,.17v.46c0,.07,0,.12,0,.15a.38.38,0,0,0,.09.24c0,.05.13.05.25,0a.65.65,0,0,0,.26-.26A1.3,1.3,0,0,0,218.47,208.44Zm2.43-.34a.84.84,0,0,1,.41-.14.47.47,0,0,1,.29.08.51.51,0,0,1,.17.23,1,1,0,0,1,.08.35c0,.14,0,.3,0,.47s0,.32,0,.47a1.71,1.71,0,0,1-.08.43,2.45,2.45,0,0,1-.17.45,2.27,2.27,0,0,1-.29.4,1.86,1.86,0,0,1-.41.33,1.09,1.09,0,0,1-.41.15.45.45,0,0,1-.29-.08A.47.47,0,0,1,220,211a1,1,0,0,1-.07-.35c0-.14,0-.3,0-.46s0-.33,0-.48a1.68,1.68,0,0,1,.07-.43,2.11,2.11,0,0,1,.18-.45,2.19,2.19,0,0,1,.29-.41A2,2,0,0,1,220.9,208.1Zm.34,1.73v-.78a.38.38,0,0,0-.09-.24c-.05-.05-.13,0-.25,0a.59.59,0,0,0-.26.26,1,1,0,0,0-.08.34.76.76,0,0,0,0,.17v.46a.58.58,0,0,0,0,.15.38.38,0,0,0,.08.24c.05.06.13,0,.26,0a.59.59,0,0,0,.25-.27A1,1,0,0,0,221.24,209.83Z" style="fill:#455a64"></path><path d="M207.62,200.4a36.66,36.66,0,0,0-5,12,28.59,28.59,0,0,0-.67,6,19.08,19.08,0,0,0,.67,5.26l3.4-3.44a14.31,14.31,0,0,1-.49-3.89,21.45,21.45,0,0,1,.49-4.46,27.14,27.14,0,0,1,3.69-8.88,18.41,18.41,0,0,1,6-6v-4.78A25,25,0,0,0,207.62,200.4Z" style="fill:#e0e0e0"></path><path d="M228.72,197.36c-.9-3.19-2.66-5.36-5-6.27s-5.05-.58-8.06,1.16V197a6.82,6.82,0,0,1,5.95-.85,6.59,6.59,0,0,1,3.69,4.62,14.31,14.31,0,0,1,.49,3.89,21.45,21.45,0,0,1-.49,4.46,27,27,0,0,1-3.69,8.87,18.35,18.35,0,0,1-5.95,6,6.82,6.82,0,0,1-6,.85,6.59,6.59,0,0,1-3.69-4.62l-3.4,3.44c.9,3.19,2.67,5.35,5,6.26s5,.59,8.06-1.15a25,25,0,0,0,8.06-8.15,36.45,36.45,0,0,0,5-12,28.68,28.68,0,0,0,.68-6A19.07,19.07,0,0,0,228.72,197.36Z" style="fill:#8D72E1"></path></g><g id="freepik--chart--inject-4"><path d="M212.24,259.83a3.22,3.22,0,0,1-.55.68,3.46,3.46,0,0,1-.68.53,2.56,2.56,0,0,1-.78.31,1.07,1.07,0,0,1-.55-.05.63.63,0,0,1-.33-.31,1.22,1.22,0,0,1-.14-.48.34.34,0,0,1,0-.19.58.58,0,0,1,.12-.14l.51-.29a.11.11,0,0,1,.11,0l.08.11a.64.64,0,0,0,.1.13.43.43,0,0,0,.17.06.57.57,0,0,0,.27,0A2.06,2.06,0,0,0,211,260a1.93,1.93,0,0,0,.63-.57,1.27,1.27,0,0,0,.24-.73c0-.26-.08-.39-.24-.41a1.1,1.1,0,0,0-.63.2l-.53.3s-.09,0-.12,0a.14.14,0,0,1-.06-.13V258a.63.63,0,0,1,0-.21c0-.07.07-.13.09-.19l.9-1.77-1.76,1a.1.1,0,0,1-.13,0,.16.16,0,0,1,0-.13v-.6a.49.49,0,0,1,0-.2.4.4,0,0,1,.13-.13l2.79-1.62s.09,0,.13,0a.17.17,0,0,1,.05.13v.61a.53.53,0,0,1-.05.2,1.72,1.72,0,0,1-.09.19l-.94,1.85a1.57,1.57,0,0,1,.52-.11.65.65,0,0,1,.4.12.8.8,0,0,1,.26.37,1.78,1.78,0,0,1,.09.61,3.16,3.16,0,0,1-.13.87A3.35,3.35,0,0,1,212.24,259.83Z" style="fill:#455a64"></path><path d="M214.32,259a.69.69,0,0,1-.53-.18,1.18,1.18,0,0,1-.29-.57,4,4,0,0,1-.11-.85c0-.21,0-.45,0-.72s0-.53,0-.75a6.38,6.38,0,0,1,.11-1,4,4,0,0,1,.29-.91,3.27,3.27,0,0,1,.53-.8,2.81,2.81,0,0,1,.79-.64,2.07,2.07,0,0,1,.56-.23v1.23c-.13-.09-.31-.09-.56.06a1.47,1.47,0,0,0-.64.71,3.21,3.21,0,0,0-.22,1.07c0,.22,0,.47,0,.73s0,.49,0,.7a1.47,1.47,0,0,0,.22.82c.13.16.34.15.64,0a1.53,1.53,0,0,0,.56-.57v1.21a3.41,3.41,0,0,1-.56.42A1.75,1.75,0,0,1,214.32,259Z" style="fill:#455a64"></path><path d="M215.74,256.9a3,3,0,0,0,.22-1.07c0-.23,0-.47,0-.73s0-.49,0-.7a1.43,1.43,0,0,0-.22-.83s-.05,0-.07,0v-1.23a1.12,1.12,0,0,1,.22-.05.68.68,0,0,1,.53.18,1.19,1.19,0,0,1,.29.56,5,5,0,0,1,.12.85v1.52a7.72,7.72,0,0,1-.12,1,3.79,3.79,0,0,1-.29.9,3,3,0,0,1-.53.79,2.23,2.23,0,0,1-.22.21V257Z" style="fill:#455a64"></path><path d="M219.11,250.61a.47.47,0,0,0-.29-.08.9.9,0,0,0-.41.15,1.88,1.88,0,0,0-.41.32,2.78,2.78,0,0,0-.29.41,2.11,2.11,0,0,0-.18.45,2.26,2.26,0,0,0-.07.43c0,.15,0,.31,0,.48s0,.32,0,.46a1.28,1.28,0,0,0,.07.35.44.44,0,0,0,.47.31,1,1,0,0,0,.41-.15,1.88,1.88,0,0,0,.41-.32,2.78,2.78,0,0,0,.29-.41,2.11,2.11,0,0,0,.18-.45,2.26,2.26,0,0,0,.07-.43c0-.15,0-.31,0-.48s0-.32,0-.46a1.28,1.28,0,0,0-.07-.35A.47.47,0,0,0,219.11,250.61Zm-.36,1.63v.16a1,1,0,0,1-.09.34.54.54,0,0,1-.25.27c-.12.07-.21.08-.26,0a.53.53,0,0,1-.08-.25s0-.08,0-.15v-.46c0-.08,0-.13,0-.17a1.3,1.3,0,0,1,.08-.34.65.65,0,0,1,.26-.26c.12-.07.21-.08.25,0a.38.38,0,0,1,.09.24v.62Z" style="fill:#455a64"></path><path d="M220.22,253.68c0,.15,0,.31,0,.48s0,.32,0,.47a1.7,1.7,0,0,0,.07.34.58.58,0,0,0,.18.24.48.48,0,0,0,.3.07,1,1,0,0,0,.4-.15,1.67,1.67,0,0,0,.41-.32,1.61,1.61,0,0,0,.29-.41,1.85,1.85,0,0,0,.18-.44,2.47,2.47,0,0,0,.08-.43c0-.16,0-.32,0-.48s0-.32,0-.47a1.21,1.21,0,0,0-.08-.34.45.45,0,0,0-.18-.24.5.5,0,0,0-.29-.08,1.09,1.09,0,0,0-.41.15,1.6,1.6,0,0,0-.4.33,1.73,1.73,0,0,0-.3.41,3.38,3.38,0,0,0-.18.44A3.83,3.83,0,0,0,220.22,253.68Zm.6.12v-.23c0-.07,0-.13,0-.17a.76.76,0,0,1,.08-.33.59.59,0,0,1,.25-.27c.13-.07.21-.08.26,0a.4.4,0,0,1,.08.24.67.67,0,0,1,0,.16v.46a.62.62,0,0,1,0,.16.89.89,0,0,1-.08.34.56.56,0,0,1-.26.27c-.12.07-.2.08-.25,0a.33.33,0,0,1-.08-.24s0-.09,0-.16Z" style="fill:#455a64"></path><path d="M217.81,256.76,221,249.4a.87.87,0,0,1,.09-.17.33.33,0,0,1,.14-.12l.38-.22s.09,0,.11,0a.1.1,0,0,1,.05.1s0,0,0,0a.14.14,0,0,1,0,.06l-3.15,7.36a1.94,1.94,0,0,1-.1.17.4.4,0,0,1-.13.13l-.39.22a.11.11,0,0,1-.11,0s0,0,0-.09a.09.09,0,0,1,0-.05S217.81,256.78,217.81,256.76Z" style="fill:#455a64"></path><polygon points="215.68 241.15 215.67 241.16 215.67 236.38 215.68 236.38 215.68 241.15" style="fill:#8D72E1"></polygon><path d="M225.81,248.81a14.36,14.36,0,0,0-.49-3.89,6.55,6.55,0,0,0-3.69-4.61,6.78,6.78,0,0,0-5.95.84v-4.77c3-1.74,5.8-2,8.06-1.16s4.08,3.07,5,6.26a19.07,19.07,0,0,1,.68,5.26,28.61,28.61,0,0,1-.68,6l-3.4.49A21.45,21.45,0,0,0,225.81,248.81Z" style="fill:#8D72E1"></path><polygon points="215.68 268.18 215.68 272.95 215.67 272.95 215.67 268.18 215.68 268.18" style="fill:#8D72E1"></polygon><path d="M207.62,244.52a36.75,36.75,0,0,0-5,12,28.66,28.66,0,0,0-.67,6,19,19,0,0,0,.67,5.26c.9,3.19,2.67,5.36,5,6.27s5,.58,8-1.16v-4.77c-2.22,1.28-4.27,1.5-5.94.84A6.57,6.57,0,0,1,206,264.4a14.31,14.31,0,0,1-.49-3.89,21.52,21.52,0,0,1,.49-4.46,27.09,27.09,0,0,1,3.69-8.87,18.38,18.38,0,0,1,5.94-6v-4.78A25,25,0,0,0,207.62,244.52Z" style="fill:#e0e0e0"></path><path d="M225.32,253.27a27.14,27.14,0,0,1-3.69,8.88,18.44,18.44,0,0,1-5.95,6V273a25,25,0,0,0,8.06-8.15,36.66,36.66,0,0,0,5-12Z" style="fill:#e0e0e0"></path></g><path d="M243.56,171.44,284,148.08c1.09-.63,2-.12,2,1.14V234.4a4.36,4.36,0,0,1-2,3.41l-40.46,23.36c-1.09.63-2,.12-2-1.14V174.86A4.37,4.37,0,0,1,243.56,171.44Z" style="fill:#fafafa"></path><g id="freepik--check-list--inject-4"><path d="M245.68,184.13a.36.36,0,0,1-.2-.06.4.4,0,0,1-.2-.34V176.3a.4.4,0,0,1,.2-.34l6.44-3.72a.39.39,0,0,1,.39,0,.4.4,0,0,1,.2.35V180a.38.38,0,0,1-.2.35l-6.43,3.71A.36.36,0,0,1,245.68,184.13Zm.4-7.6V183l5.64-3.25v-6.52Z" style="fill:#e0e0e0"></path><path id="freepik--Check--inject-4" d="M252.87,170.72a.78.78,0,0,0-1,.42l-2.95,7-.71-.69a.78.78,0,0,0-1.08,1.12l1.52,1.48a.75.75,0,0,0,.54.22h.16a.79.79,0,0,0,.56-.46l3.4-8.08A.79.79,0,0,0,252.87,170.72Z" style="fill:#8D72E1"></path><path d="M257.58,172l23.68-13.67c.57-.33,1-.09,1,.53a2.2,2.2,0,0,1-1,1.71l-23.68,13.67c-.57.33-1,.1-1-.52A2.22,2.22,0,0,1,257.58,172Z" style="fill:#e0e0e0"></path><path d="M245.68,195.27a.46.46,0,0,1-.2-.05.43.43,0,0,1-.2-.35v-7.43a.4.4,0,0,1,.2-.34l6.44-3.71a.39.39,0,0,1,.39,0,.4.4,0,0,1,.2.34v7.43a.4.4,0,0,1-.2.34l-6.43,3.72A.46.46,0,0,1,245.68,195.27Zm.4-7.6v6.52l5.64-3.26v-6.51Z" style="fill:#e0e0e0"></path><path id="freepik--check--inject-4" d="M252.87,181.87a.78.78,0,0,0-1,.41l-2.95,7-.71-.68a.78.78,0,1,0-1.08,1.12l1.52,1.48a.79.79,0,0,0,.54.22l.16,0a.77.77,0,0,0,.56-.46l3.4-8.07A.78.78,0,0,0,252.87,181.87Z" style="fill:#8D72E1"></path><path d="M257.58,183.13l23.68-13.67c.57-.33,1-.09,1,.53a2.2,2.2,0,0,1-1,1.71l-23.68,13.67c-.57.33-1,.09-1-.52A2.22,2.22,0,0,1,257.58,183.13Z" style="fill:#e0e0e0"></path><path d="M245.68,206.41a.35.35,0,0,1-.2,0,.4.4,0,0,1-.2-.34v-7.43a.43.43,0,0,1,.2-.35l6.44-3.71a.39.39,0,0,1,.39,0,.4.4,0,0,1,.2.34v7.43a.43.43,0,0,1-.2.35l-6.43,3.71A.35.35,0,0,1,245.68,206.41Zm.4-7.59v6.51l5.64-3.26v-6.51Z" style="fill:#e0e0e0"></path><path id="freepik--check--inject-4" d="M252.87,193a.77.77,0,0,0-1,.42l-2.95,7-.71-.68a.78.78,0,0,0-1.08,1.12l1.52,1.48a.79.79,0,0,0,.54.22h.16a.8.8,0,0,0,.56-.47l3.4-8.07A.79.79,0,0,0,252.87,193Z" style="fill:#8D72E1"></path><path d="M257.58,194.24l23.68-13.67c.57-.33,1-.09,1,.53a2.2,2.2,0,0,1-1,1.71l-23.68,13.67c-.57.33-1,.09-1-.52A2.22,2.22,0,0,1,257.58,194.24Z" style="fill:#e0e0e0"></path></g><polygon points="248.82 253.38 245 255.59 245 212.82 248.82 210.61 248.82 253.38" style="fill:#e0e0e0"></polygon><polygon points="255.57 249.48 251.75 251.69 251.75 208.92 255.57 206.72 255.57 249.48" style="fill:#e0e0e0"></polygon><polygon points="262.32 245.59 258.5 247.79 258.5 205.03 262.32 202.82 262.32 245.59" style="fill:#e0e0e0"></polygon><polygon points="269.07 241.69 265.25 243.9 265.25 201.13 269.07 198.92 269.07 241.69" style="fill:#e0e0e0"></polygon><polygon points="275.82 237.79 272 240 272 197.23 275.82 195.02 275.82 237.79" style="fill:#e0e0e0"></polygon><polygon points="282.58 233.89 278.75 236.1 278.75 193.33 282.58 191.12 282.58 233.89" style="fill:#e0e0e0"></polygon><polygon points="278.75 193.33 282.58 191.12 282.58 210.64 278.75 212.85 278.75 193.33" style="fill:#8D72E1"></polygon><polygon points="245 222.16 248.82 219.95 248.82 243.83 245 246.04 245 222.16" style="fill:#8D72E1"></polygon><polygon points="245 246.04 248.82 243.83 248.82 253.38 245 255.59 245 246.04" style="opacity:0.15"></polygon><polygon points="251.75 223.69 255.57 221.48 255.57 230.08 251.75 232.29 251.75 223.69" style="fill:#8D72E1"></polygon><polygon points="251.75 232.29 255.57 230.08 255.57 249.48 251.75 251.69 251.75 232.29" style="opacity:0.15"></polygon><polygon points="258.5 208.61 262.32 206.4 262.32 213.9 258.5 216.11 258.5 208.61" style="fill:#8D72E1"></polygon><polygon points="258.5 216.11 262.32 213.9 262.32 245.59 258.5 247.79 258.5 216.11" style="opacity:0.15"></polygon><polygon points="265.25 210.47 269.07 208.26 269.07 227.16 265.25 229.37 265.25 210.47" style="fill:#8D72E1"></polygon><polygon points="265.25 229.37 269.07 227.16 269.07 241.69 265.25 243.9 265.25 229.37" style="opacity:0.15"></polygon><polygon points="272 214.25 275.82 212.04 275.82 220.03 272 222.24 272 214.25" style="fill:#8D72E1"></polygon><polygon points="272 222.24 275.82 220.03 275.82 237.79 272 240 272 222.24" style="opacity:0.15"></polygon><polygon points="278.75 212.85 282.58 210.64 282.58 233.89 278.75 236.1 278.75 212.85" style="opacity:0.15"></polygon><polygon points="245 246.04 248.82 243.83 248.82 253.38 245 255.59 245 246.04" style="fill:#8D72E1"></polygon><polygon points="245 246.04 248.82 243.83 248.82 253.38 245 255.59 245 246.04" style="opacity:0.2"></polygon><polygon points="251.75 232.29 255.57 230.08 255.57 249.48 251.75 251.69 251.75 232.29" style="fill:#8D72E1"></polygon><polygon points="251.75 232.29 255.57 230.08 255.57 249.48 251.75 251.69 251.75 232.29" style="opacity:0.2"></polygon><polygon points="258.5 216.11 262.32 213.9 262.32 245.59 258.5 247.79 258.5 216.11" style="fill:#8D72E1"></polygon><polygon points="258.5 216.11 262.32 213.9 262.32 245.59 258.5 247.79 258.5 216.11" style="opacity:0.2"></polygon><polygon points="265.25 229.37 269.07 227.16 269.07 241.69 265.25 243.9 265.25 229.37" style="fill:#8D72E1"></polygon><polygon points="265.25 229.37 269.07 227.16 269.07 241.69 265.25 243.9 265.25 229.37" style="opacity:0.2"></polygon><polygon points="272 222.24 275.82 220.03 275.82 237.79 272 240 272 222.24" style="fill:#8D72E1"></polygon><polygon points="272 222.24 275.82 220.03 275.82 237.79 272 240 272 222.24" style="opacity:0.2"></polygon><polygon points="278.75 212.85 282.58 210.64 282.58 233.89 278.75 236.1 278.75 212.85" style="fill:#8D72E1"></polygon><polygon points="278.75 212.85 282.58 210.64 282.58 233.89 278.75 236.1 278.75 212.85" style="opacity:0.2"></polygon></g></g><g id="freepik--Gears--inject-4"><g id="freepik--gears--inject-4"><path d="M167.57,44.39h0a.83.83,0,0,0-.87.14L165,45.86,164.63,47a2.11,2.11,0,0,0,.63,2,9.11,9.11,0,0,1,.89,1,1.24,1.24,0,0,0,1.73.26l4.06-3.07a.83.83,0,0,1,.86-.15Zm-5.49,16c-.83-3.4-3.13-5-6-4.55a9.57,9.57,0,0,1,.72,2c1.29,5.39-1.65,13.35-6.57,17.77A10.43,10.43,0,0,1,145,78.38c1.94,3.55,6.27,3.6,10.51-.21C160.44,73.74,163.37,65.79,162.08,60.4Zm-1.45-23.29h0a1,1,0,0,0-.35-.11L157,36.5a1.72,1.72,0,0,0-1.75,1l-2.63,5.94a2.67,2.67,0,0,1-.62.8h0a2.22,2.22,0,0,1-.49.38l1.15,3.07a1.08,1.08,0,0,0,1.55.58,15.2,15.2,0,0,1,1.93-.77,3.46,3.46,0,0,0,1.1-.67,2.65,2.65,0,0,0,.63-.82L160.52,40a1.74,1.74,0,0,1,1.75-1l3.25.51a1.15,1.15,0,0,1,.33.1Zm-5.34,56.06a.89.89,0,0,1-.33-.47l-1.32-3.51a1.08,1.08,0,0,0-1.55-.59,14.63,14.63,0,0,1-1.93.77,2.8,2.8,0,0,0-.6.3l.17.46a.91.91,0,0,0,.45.52h0ZM145.69,41a.73.73,0,0,0-.36-.07.86.86,0,0,0-.57.27l-4.55,4.08a1.08,1.08,0,0,0-.17.19.61.61,0,0,0-.12.15,3,3,0,0,0-.36.78,1.33,1.33,0,0,0-.05.19h0a2.14,2.14,0,0,0-.08.78l.59,4.54a3.6,3.6,0,0,1-.6,2.25c-.73,1-1.4,2-2,3.09a2.56,2.56,0,0,1-1.41,1,.71.71,0,0,1-.2,0,1.26,1.26,0,0,1-.27,0l-3.09,0h-.08a1.23,1.23,0,0,0-.25,0,.9.9,0,0,0-.22.06h0a1.15,1.15,0,0,0-.25.12,2.17,2.17,0,0,0-.42.31,1.79,1.79,0,0,0-.46.66l-2.46,6.68a1.23,1.23,0,0,0,.59,1.52l3.55,1.75a1.48,1.48,0,0,1,.13.88,31.09,31.09,0,0,0-.33,3.13,3.85,3.85,0,0,1-.89,2.17l0,0L127.33,80a1.55,1.55,0,0,0-.19.24s0,0,0,0a1.59,1.59,0,0,0-.15.29,2.43,2.43,0,0,0-.21,1.57l1.11,4.57a.9.9,0,0,0,.41.61l5.21,2.56a.86.86,0,0,1-.39-.59L132,84.67a2.46,2.46,0,0,1,0-.9,2.6,2.6,0,0,1,.59-1.25l3.93-4.13.05,0a3.93,3.93,0,0,0,.9-2.17,28.69,28.69,0,0,1,.33-3.13,1.55,1.55,0,0,0-1-1.66l-2.56-.89a1.24,1.24,0,0,1-.75-1.6L136,62.21a1.84,1.84,0,0,1,.46-.66,2,2,0,0,1,1.24-.55l3.09,0a2,2,0,0,0,.88-.23,2.42,2.42,0,0,0,1-.89c.63-1.06,1.31-2.09,2-3.08a3.56,3.56,0,0,0,.6-2.26L144.67,50a2,2,0,0,1,.07-.8,2.66,2.66,0,0,1,.71-1.3L150,43.78a.83.83,0,0,1,.94-.2Zm-4,48.84a2.14,2.14,0,0,0-.64-2,9.11,9.11,0,0,1-.89-1,1.24,1.24,0,0,0-1.73-.27l-2.31,1.75-1.45,4.88a1.05,1.05,0,0,0,.52,1.27h0l5.24,2.58a1.06,1.06,0,0,1-.51-1.28Z" style="fill:#8D72E1"></path><path d="M167.57,44.39h0a.83.83,0,0,0-.87.14L165,45.86,164.63,47a2.11,2.11,0,0,0,.63,2,9.11,9.11,0,0,1,.89,1,1.24,1.24,0,0,0,1.73.26l4.06-3.07a.83.83,0,0,1,.86-.15Zm-5.49,16c-.83-3.4-3.13-5-6-4.55a9.57,9.57,0,0,1,.72,2c1.29,5.39-1.65,13.35-6.57,17.77A10.43,10.43,0,0,1,145,78.38c1.94,3.55,6.27,3.6,10.51-.21C160.44,73.74,163.37,65.79,162.08,60.4Zm-1.45-23.29h0a1,1,0,0,0-.35-.11L157,36.5a1.72,1.72,0,0,0-1.75,1l-2.63,5.94a2.67,2.67,0,0,1-.62.8h0a2.22,2.22,0,0,1-.49.38l1.15,3.07a1.08,1.08,0,0,0,1.55.58,15.2,15.2,0,0,1,1.93-.77,3.46,3.46,0,0,0,1.1-.67,2.65,2.65,0,0,0,.63-.82L160.52,40a1.74,1.74,0,0,1,1.75-1l3.25.51a1.15,1.15,0,0,1,.33.1Zm-5.34,56.06a.89.89,0,0,1-.33-.47l-1.32-3.51a1.08,1.08,0,0,0-1.55-.59,14.63,14.63,0,0,1-1.93.77,2.8,2.8,0,0,0-.6.3l.17.46a.91.91,0,0,0,.45.52h0ZM145.69,41a.73.73,0,0,0-.36-.07.86.86,0,0,0-.57.27l-4.55,4.08a1.08,1.08,0,0,0-.17.19.61.61,0,0,0-.12.15,3,3,0,0,0-.36.78,1.33,1.33,0,0,0-.05.19h0a2.14,2.14,0,0,0-.08.78l.59,4.54a3.6,3.6,0,0,1-.6,2.25c-.73,1-1.4,2-2,3.09a2.56,2.56,0,0,1-1.41,1,.71.71,0,0,1-.2,0,1.26,1.26,0,0,1-.27,0l-3.09,0h-.08a1.23,1.23,0,0,0-.25,0,.9.9,0,0,0-.22.06h0a1.15,1.15,0,0,0-.25.12,2.17,2.17,0,0,0-.42.31,1.79,1.79,0,0,0-.46.66l-2.46,6.68a1.23,1.23,0,0,0,.59,1.52l3.55,1.75a1.48,1.48,0,0,1,.13.88,31.09,31.09,0,0,0-.33,3.13,3.85,3.85,0,0,1-.89,2.17l0,0L127.33,80a1.55,1.55,0,0,0-.19.24s0,0,0,0a1.59,1.59,0,0,0-.15.29,2.43,2.43,0,0,0-.21,1.57l1.11,4.57a.9.9,0,0,0,.41.61l5.21,2.56a.86.86,0,0,1-.39-.59L132,84.67a2.46,2.46,0,0,1,0-.9,2.6,2.6,0,0,1,.59-1.25l3.93-4.13.05,0a3.93,3.93,0,0,0,.9-2.17,28.69,28.69,0,0,1,.33-3.13,1.55,1.55,0,0,0-1-1.66l-2.56-.89a1.24,1.24,0,0,1-.75-1.6L136,62.21a1.84,1.84,0,0,1,.46-.66,2,2,0,0,1,1.24-.55l3.09,0a2,2,0,0,0,.88-.23,2.42,2.42,0,0,0,1-.89c.63-1.06,1.31-2.09,2-3.08a3.56,3.56,0,0,0,.6-2.26L144.67,50a2,2,0,0,1,.07-.8,2.66,2.66,0,0,1,.71-1.3L150,43.78a.83.83,0,0,1,.94-.2Zm-4,48.84a2.14,2.14,0,0,0-.64-2,9.11,9.11,0,0,1-.89-1,1.24,1.24,0,0,0-1.73-.27l-2.31,1.75-1.45,4.88a1.05,1.05,0,0,0,.52,1.27h0l5.24,2.58a1.06,1.06,0,0,1-.51-1.28Z" style="fill:#fff;opacity:0.7000000000000001"></path><path d="M167.57,44.39h0a.83.83,0,0,0-.87.14L165,45.86,164.63,47a2.11,2.11,0,0,0,.63,2,9.11,9.11,0,0,1,.89,1,1.24,1.24,0,0,0,1.73.26l4.06-3.07a.83.83,0,0,1,.86-.15Zm-5.49,16c-.83-3.4-3.13-5-6-4.55a9.57,9.57,0,0,1,.72,2c1.29,5.39-1.65,13.35-6.57,17.77A10.43,10.43,0,0,1,145,78.38c1.94,3.55,6.27,3.6,10.51-.21C160.44,73.74,163.37,65.79,162.08,60.4Zm-1.45-23.29h0a1,1,0,0,0-.35-.11L157,36.5a1.72,1.72,0,0,0-1.75,1l-2.63,5.94a2.67,2.67,0,0,1-.62.8h0a2.22,2.22,0,0,1-.49.38l1.15,3.07a1.08,1.08,0,0,0,1.55.58,15.2,15.2,0,0,1,1.93-.77,3.46,3.46,0,0,0,1.1-.67,2.65,2.65,0,0,0,.63-.82L160.52,40a1.74,1.74,0,0,1,1.75-1l3.25.51a1.15,1.15,0,0,1,.33.1Zm-5.34,56.06a.89.89,0,0,1-.33-.47l-1.32-3.51a1.08,1.08,0,0,0-1.55-.59,14.63,14.63,0,0,1-1.93.77,2.8,2.8,0,0,0-.6.3l.17.46a.91.91,0,0,0,.45.52h0ZM145.69,41a.73.73,0,0,0-.36-.07.86.86,0,0,0-.57.27l-4.55,4.08a1.08,1.08,0,0,0-.17.19.61.61,0,0,0-.12.15,3,3,0,0,0-.36.78,1.33,1.33,0,0,0-.05.19h0a2.14,2.14,0,0,0-.08.78l.59,4.54a3.6,3.6,0,0,1-.6,2.25c-.73,1-1.4,2-2,3.09a2.56,2.56,0,0,1-1.41,1,.71.71,0,0,1-.2,0,1.26,1.26,0,0,1-.27,0l-3.09,0h-.08a1.23,1.23,0,0,0-.25,0,.9.9,0,0,0-.22.06h0a1.15,1.15,0,0,0-.25.12,2.17,2.17,0,0,0-.42.31,1.79,1.79,0,0,0-.46.66l-2.46,6.68a1.23,1.23,0,0,0,.59,1.52l3.55,1.75a1.48,1.48,0,0,1,.13.88,31.09,31.09,0,0,0-.33,3.13,3.85,3.85,0,0,1-.89,2.17l0,0L127.33,80a1.55,1.55,0,0,0-.19.24s0,0,0,0a1.59,1.59,0,0,0-.15.29,2.43,2.43,0,0,0-.21,1.57l1.11,4.57a.9.9,0,0,0,.41.61l5.21,2.56a.86.86,0,0,1-.39-.59L132,84.67a2.46,2.46,0,0,1,0-.9,2.6,2.6,0,0,1,.59-1.25l3.93-4.13.05,0a3.93,3.93,0,0,0,.9-2.17,28.69,28.69,0,0,1,.33-3.13,1.55,1.55,0,0,0-1-1.66l-2.56-.89a1.24,1.24,0,0,1-.75-1.6L136,62.21a1.84,1.84,0,0,1,.46-.66,2,2,0,0,1,1.24-.55l3.09,0a2,2,0,0,0,.88-.23,2.42,2.42,0,0,0,1-.89c.63-1.06,1.31-2.09,2-3.08a3.56,3.56,0,0,0,.6-2.26L144.67,50a2,2,0,0,1,.07-.8,2.66,2.66,0,0,1,.71-1.3L150,43.78a.83.83,0,0,1,.94-.2Zm-4,48.84a2.14,2.14,0,0,0-.64-2,9.11,9.11,0,0,1-.89-1,1.24,1.24,0,0,0-1.73-.27l-2.31,1.75-1.45,4.88a1.05,1.05,0,0,0,.52,1.27h0l5.24,2.58a1.06,1.06,0,0,1-.51-1.28Z" style="opacity:0.05"></path><path d="M136.5,78.39l-3.93,4.13a2.6,2.6,0,0,0-.59,1.25l-5.22-2.56a3.94,3.94,0,0,1,.21-.69,1.59,1.59,0,0,1,.15-.29s0,0,0,0a1.55,1.55,0,0,1,.19-.24l3.94-4.14Z" style="fill:#8D72E1"></path><path d="M141.63,60.72a2,2,0,0,1-.88.23l-3.09,0a2,2,0,0,0-1.24.55L131.19,59a2.17,2.17,0,0,1,.42-.31,1.15,1.15,0,0,1,.25-.12h0a.9.9,0,0,1,.22-.06,1.23,1.23,0,0,1,.25,0h.08l3.09,0a1.26,1.26,0,0,0,.27,0l.2,0,.39-.17h0Z" style="fill:#8D72E1"></path><path d="M172.79,47a.8.8,0,0,0-.85.15l-4.06,3.08a1.24,1.24,0,0,1-1.73-.28,8.16,8.16,0,0,0-.89-1,2.09,2.09,0,0,1-.63-2l.33-1.11,1.74-1.32a.81.81,0,0,1,.87-.14h0Z" style="fill:#8D72E1"></path><path d="M165.85,39.68a1.15,1.15,0,0,0-.33-.1l-3.25-.51a1.74,1.74,0,0,0-1.75,1L157.9,46a2.65,2.65,0,0,1-.63.82L152,44.19a2.67,2.67,0,0,0,.62-.8l2.63-5.94a1.72,1.72,0,0,1,1.75-1l3.24.51a1,1,0,0,1,.35.11h0Z" style="fill:#8D72E1"></path><path d="M150.93,43.58a.83.83,0,0,0-.94.2l-4.54,4.08a2.66,2.66,0,0,0-.71,1.3l-5.23-2.56a1.33,1.33,0,0,1,.05-.19,3,3,0,0,1,.36-.78.61.61,0,0,1,.12-.15,1.08,1.08,0,0,1,.17-.19l4.55-4.08a.86.86,0,0,1,.57-.27.73.73,0,0,1,.36.07Z" style="fill:#8D72E1"></path><path d="M136.5,78.39l-3.93,4.13a2.6,2.6,0,0,0-.59,1.25l-5.22-2.56a3.94,3.94,0,0,1,.21-.69,1.59,1.59,0,0,1,.15-.29s0,0,0,0a1.55,1.55,0,0,1,.19-.24l3.94-4.14Z" style="fill:#fff;opacity:0.9"></path><path d="M141.63,60.72a2,2,0,0,1-.88.23l-3.09,0a2,2,0,0,0-1.24.55L131.19,59a2.17,2.17,0,0,1,.42-.31,1.15,1.15,0,0,1,.25-.12h0a.9.9,0,0,1,.22-.06,1.23,1.23,0,0,1,.25,0h.08l3.09,0a1.26,1.26,0,0,0,.27,0l.2,0,.39-.17h0Z" style="fill:#fff;opacity:0.9"></path><path d="M172.79,47a.8.8,0,0,0-.85.15l-4.06,3.08a1.24,1.24,0,0,1-1.73-.28,8.16,8.16,0,0,0-.89-1,2.09,2.09,0,0,1-.63-2l.33-1.11,1.74-1.32a.81.81,0,0,1,.87-.14h0Z" style="fill:#fff;opacity:0.9"></path><path d="M165.85,39.68a1.15,1.15,0,0,0-.33-.1l-3.25-.51a1.74,1.74,0,0,0-1.75,1L157.9,46a2.65,2.65,0,0,1-.63.82L152,44.19a2.67,2.67,0,0,0,.62-.8l2.63-5.94a1.72,1.72,0,0,1,1.75-1l3.24.51a1,1,0,0,1,.35.11h0Z" style="fill:#fff;opacity:0.9"></path><path d="M150.93,43.58a.83.83,0,0,0-.94.2l-4.54,4.08a2.66,2.66,0,0,0-.71,1.3l-5.23-2.56a1.33,1.33,0,0,1,.05-.19,3,3,0,0,1,.36-.78.61.61,0,0,1,.12-.15,1.08,1.08,0,0,1,.17-.19l4.55-4.08a.86.86,0,0,1,.57-.27.73.73,0,0,1,.36.07Z" style="fill:#fff;opacity:0.9"></path><path d="M174.34,52.15l-1.1-4.57a.77.77,0,0,0-1.3-.47l-4.06,3.08a1.23,1.23,0,0,1-1.73-.28,8.92,8.92,0,0,0-.89-.95,2.11,2.11,0,0,1-.63-2l1.78-6a1.07,1.07,0,0,0-.89-1.4l-3.24-.51a1.76,1.76,0,0,0-1.76,1L157.89,46a3.14,3.14,0,0,1-1.72,1.48,17,17,0,0,0-1.93.78,1.08,1.08,0,0,1-1.55-.59l-1.32-3.51a.8.8,0,0,0-1.38-.34l-4.54,4.08a2.72,2.72,0,0,0-.78,2.09l.59,4.54a3.64,3.64,0,0,1-.6,2.26c-.72,1-1.4,2-2,3.09A2.44,2.44,0,0,1,140.75,61l-3.09,0A2,2,0,0,0,136,62.21l-2.47,6.68a1.24,1.24,0,0,0,.75,1.6l2.56.89a1.54,1.54,0,0,1,1,1.66,28.69,28.69,0,0,0-.33,3.13,3.83,3.83,0,0,1-.9,2.17l-4,4.19a2.58,2.58,0,0,0-.58,2.13l1.11,4.58a.76.76,0,0,0,1.3.46l4-3.07a1.24,1.24,0,0,1,1.73.27,9.11,9.11,0,0,0,.89,1,2.11,2.11,0,0,1,.63,2l-1.77,6a1.07,1.07,0,0,0,.88,1.4l3.25.5a1.72,1.72,0,0,0,1.75-1l2.63-5.92a3.15,3.15,0,0,1,1.72-1.49,13.45,13.45,0,0,0,1.93-.78,1.1,1.1,0,0,1,1.56.59L155,92.7a.8.8,0,0,0,1.38.34L160.88,89a2.67,2.67,0,0,0,.78-2.09l-.59-4.54a3.6,3.6,0,0,1,.6-2.25c.72-1,1.4-2,2-3.09a2.5,2.5,0,0,1,1.88-1.12l3.09,0a2,2,0,0,0,1.7-1.2l2.46-6.68a1.23,1.23,0,0,0-.75-1.6l-2.56-.9a1.55,1.55,0,0,1-1-1.65,28.69,28.69,0,0,0,.33-3.13,4,4,0,0,1,.9-2.18l4-4.18A2.58,2.58,0,0,0,174.34,52.15Zm-18.82,26c-4.92,4.42-10,3.64-11.26-1.75s1.63-13.35,6.55-17.77,10-3.64,11.27,1.75S160.44,73.74,155.52,78.17Z" style="fill:#8D72E1"></path><path d="M174.34,52.15l-1.1-4.57a.77.77,0,0,0-1.3-.47l-4.06,3.08a1.23,1.23,0,0,1-1.73-.28,8.92,8.92,0,0,0-.89-.95,2.11,2.11,0,0,1-.63-2l1.78-6a1.07,1.07,0,0,0-.89-1.4l-3.24-.51a1.76,1.76,0,0,0-1.76,1L157.89,46a3.14,3.14,0,0,1-1.72,1.48,17,17,0,0,0-1.93.78,1.08,1.08,0,0,1-1.55-.59l-1.32-3.51a.8.8,0,0,0-1.38-.34l-4.54,4.08a2.72,2.72,0,0,0-.78,2.09l.59,4.54a3.64,3.64,0,0,1-.6,2.26c-.72,1-1.4,2-2,3.09A2.44,2.44,0,0,1,140.75,61l-3.09,0A2,2,0,0,0,136,62.21l-2.47,6.68a1.24,1.24,0,0,0,.75,1.6l2.56.89a1.54,1.54,0,0,1,1,1.66,28.69,28.69,0,0,0-.33,3.13,3.83,3.83,0,0,1-.9,2.17l-4,4.19a2.58,2.58,0,0,0-.58,2.13l1.11,4.58a.76.76,0,0,0,1.3.46l4-3.07a1.24,1.24,0,0,1,1.73.27,9.11,9.11,0,0,0,.89,1,2.11,2.11,0,0,1,.63,2l-1.77,6a1.07,1.07,0,0,0,.88,1.4l3.25.5a1.72,1.72,0,0,0,1.75-1l2.63-5.92a3.15,3.15,0,0,1,1.72-1.49,13.45,13.45,0,0,0,1.93-.78,1.1,1.1,0,0,1,1.56.59L155,92.7a.8.8,0,0,0,1.38.34L160.88,89a2.67,2.67,0,0,0,.78-2.09l-.59-4.54a3.6,3.6,0,0,1,.6-2.25c.72-1,1.4-2,2-3.09a2.5,2.5,0,0,1,1.88-1.12l3.09,0a2,2,0,0,0,1.7-1.2l2.46-6.68a1.23,1.23,0,0,0-.75-1.6l-2.56-.9a1.55,1.55,0,0,1-1-1.65,28.69,28.69,0,0,0,.33-3.13,4,4,0,0,1,.9-2.18l4-4.18A2.58,2.58,0,0,0,174.34,52.15Zm-18.82,26c-4.92,4.42-10,3.64-11.26-1.75s1.63-13.35,6.55-17.77,10-3.64,11.27,1.75S160.44,73.74,155.52,78.17Z" style="fill:#fff;opacity:0.75"></path><path d="M103.81,54.92v0a1.12,1.12,0,0,0-1.21.18l-2.4,1.82-.45,1.53a2.89,2.89,0,0,0,.86,2.74,12,12,0,0,1,1.24,1.32,1.71,1.71,0,0,0,2.38.37l5.59-4.23a1.14,1.14,0,0,1,1.18-.21ZM96.23,77c-1.13-4.68-4.3-6.85-8.2-6.26a12,12,0,0,1,1,2.71c1.79,7.42-2.27,18.38-9,24.48a14.45,14.45,0,0,1-7.27,3.84c2.67,4.88,8.64,5,14.48-.29C94,95.35,98,84.39,96.23,77Zm-2-32.08h0a1.5,1.5,0,0,0-.48-.15L89.3,44a2.4,2.4,0,0,0-2.42,1.32l-3.62,8.18a3.63,3.63,0,0,1-.86,1.11h0a4.15,4.15,0,0,1-.67.52l1.58,4.22a1.51,1.51,0,0,0,2.14.81,22,22,0,0,1,2.65-1.07,4.59,4.59,0,0,0,1.52-.92,3.47,3.47,0,0,0,.86-1.13l3.61-8.17a2.41,2.41,0,0,1,2.42-1.32l4.48.7a1.58,1.58,0,0,1,.45.14Zm-7.35,77.22a1.31,1.31,0,0,1-.46-.64l-1.82-4.85a1.49,1.49,0,0,0-2.14-.81,20.13,20.13,0,0,1-2.65,1.07,3.81,3.81,0,0,0-.83.42l.24.62a1.24,1.24,0,0,0,.61.72h0ZM73.66,50.26a1,1,0,0,0-.49-.09,1.29,1.29,0,0,0-.79.36l-6.26,5.62a2,2,0,0,0-.24.26,1.46,1.46,0,0,0-.16.21,4.67,4.67,0,0,0-.51,1.08,2.44,2.44,0,0,0-.06.26h0a2.88,2.88,0,0,0-.1,1.07l.8,6.25A5,5,0,0,1,65,68.39a50.15,50.15,0,0,0-2.79,4.25,3.32,3.32,0,0,1-1.39,1.22,3.19,3.19,0,0,1-.56.21,1.28,1.28,0,0,1-.28.07,1.57,1.57,0,0,1-.37,0l-4.26.07h-.1a2,2,0,0,0-.34.06,1.58,1.58,0,0,0-.31.09s0,0,0,0a1.5,1.5,0,0,0-.34.16,3.51,3.51,0,0,0-.59.42,2.63,2.63,0,0,0-.62.91l-3.39,9.2a1.68,1.68,0,0,0,.81,2.1l4.89,2.4a2.15,2.15,0,0,1,.18,1.22,38,38,0,0,0-.45,4.31,5.38,5.38,0,0,1-1.23,3l-.07.06-5.43,5.7a2.1,2.1,0,0,0-.26.33l0,.06a1.36,1.36,0,0,0-.2.4,3.37,3.37,0,0,0-.3,2.16l1.53,6.3a1.24,1.24,0,0,0,.56.83l7.18,3.53a1.26,1.26,0,0,1-.54-.81l-1.52-6.3a3.17,3.17,0,0,1,0-1.23,3.44,3.44,0,0,1,.8-1.72l5.43-5.7.06-.06a5.39,5.39,0,0,0,1.24-3,38,38,0,0,1,.46-4.31,2.15,2.15,0,0,0-1.34-2.29l-3.52-1.23a1.7,1.7,0,0,1-1-2.2l3.39-9.2a2.34,2.34,0,0,1,.63-.91,2.7,2.7,0,0,1,1.71-.76l4.26-.07a2.7,2.7,0,0,0,1.21-.32,3.29,3.29,0,0,0,1.38-1.22c.87-1.46,1.8-2.89,2.79-4.25a4.9,4.9,0,0,0,.83-3.11l-.81-6.24a3,3,0,0,1,.09-1.1,3.56,3.56,0,0,1,1-1.79l6.25-5.62a1.13,1.13,0,0,1,1.3-.27Zm-5.49,67.28a2.92,2.92,0,0,0-.87-2.74,11,11,0,0,1-1.23-1.32,1.7,1.7,0,0,0-2.38-.38l-3.19,2.42-2,6.71a1.45,1.45,0,0,0,.71,1.75v0l7.23,3.55a1.45,1.45,0,0,1-.71-1.76Z" style="fill:#8D72E1"></path><path d="M103.81,54.92v0a1.12,1.12,0,0,0-1.21.18l-2.4,1.82-.45,1.53a2.89,2.89,0,0,0,.86,2.74,12,12,0,0,1,1.24,1.32,1.71,1.71,0,0,0,2.38.37l5.59-4.23a1.14,1.14,0,0,1,1.18-.21ZM96.23,77c-1.13-4.68-4.3-6.85-8.2-6.26a12,12,0,0,1,1,2.71c1.79,7.42-2.27,18.38-9,24.48a14.45,14.45,0,0,1-7.27,3.84c2.67,4.88,8.64,5,14.48-.29C94,95.35,98,84.39,96.23,77Zm-2-32.08h0a1.5,1.5,0,0,0-.48-.15L89.3,44a2.4,2.4,0,0,0-2.42,1.32l-3.62,8.18a3.63,3.63,0,0,1-.86,1.11h0a4.15,4.15,0,0,1-.67.52l1.58,4.22a1.51,1.51,0,0,0,2.14.81,22,22,0,0,1,2.65-1.07,4.59,4.59,0,0,0,1.52-.92,3.47,3.47,0,0,0,.86-1.13l3.61-8.17a2.41,2.41,0,0,1,2.42-1.32l4.48.7a1.58,1.58,0,0,1,.45.14Zm-7.35,77.22a1.31,1.31,0,0,1-.46-.64l-1.82-4.85a1.49,1.49,0,0,0-2.14-.81,20.13,20.13,0,0,1-2.65,1.07,3.81,3.81,0,0,0-.83.42l.24.62a1.24,1.24,0,0,0,.61.72h0ZM73.66,50.26a1,1,0,0,0-.49-.09,1.29,1.29,0,0,0-.79.36l-6.26,5.62a2,2,0,0,0-.24.26,1.46,1.46,0,0,0-.16.21,4.67,4.67,0,0,0-.51,1.08,2.44,2.44,0,0,0-.06.26h0a2.88,2.88,0,0,0-.1,1.07l.8,6.25A5,5,0,0,1,65,68.39a50.15,50.15,0,0,0-2.79,4.25,3.32,3.32,0,0,1-1.39,1.22,3.19,3.19,0,0,1-.56.21,1.28,1.28,0,0,1-.28.07,1.57,1.57,0,0,1-.37,0l-4.26.07h-.1a2,2,0,0,0-.34.06,1.58,1.58,0,0,0-.31.09s0,0,0,0a1.5,1.5,0,0,0-.34.16,3.51,3.51,0,0,0-.59.42,2.63,2.63,0,0,0-.62.91l-3.39,9.2a1.68,1.68,0,0,0,.81,2.1l4.89,2.4a2.15,2.15,0,0,1,.18,1.22,38,38,0,0,0-.45,4.31,5.38,5.38,0,0,1-1.23,3l-.07.06-5.43,5.7a2.1,2.1,0,0,0-.26.33l0,.06a1.36,1.36,0,0,0-.2.4,3.37,3.37,0,0,0-.3,2.16l1.53,6.3a1.24,1.24,0,0,0,.56.83l7.18,3.53a1.26,1.26,0,0,1-.54-.81l-1.52-6.3a3.17,3.17,0,0,1,0-1.23,3.44,3.44,0,0,1,.8-1.72l5.43-5.7.06-.06a5.39,5.39,0,0,0,1.24-3,38,38,0,0,1,.46-4.31,2.15,2.15,0,0,0-1.34-2.29l-3.52-1.23a1.7,1.7,0,0,1-1-2.2l3.39-9.2a2.34,2.34,0,0,1,.63-.91,2.7,2.7,0,0,1,1.71-.76l4.26-.07a2.7,2.7,0,0,0,1.21-.32,3.29,3.29,0,0,0,1.38-1.22c.87-1.46,1.8-2.89,2.79-4.25a4.9,4.9,0,0,0,.83-3.11l-.81-6.24a3,3,0,0,1,.09-1.1,3.56,3.56,0,0,1,1-1.79l6.25-5.62a1.13,1.13,0,0,1,1.3-.27Zm-5.49,67.28a2.92,2.92,0,0,0-.87-2.74,11,11,0,0,1-1.23-1.32,1.7,1.7,0,0,0-2.38-.38l-3.19,2.42-2,6.71a1.45,1.45,0,0,0,.71,1.75v0l7.23,3.55a1.45,1.45,0,0,1-.71-1.76Z" style="fill:#fff;opacity:0.7000000000000001"></path><path d="M103.81,54.92v0a1.12,1.12,0,0,0-1.21.18l-2.4,1.82-.45,1.53a2.89,2.89,0,0,0,.86,2.74,12,12,0,0,1,1.24,1.32,1.71,1.71,0,0,0,2.38.37l5.59-4.23a1.14,1.14,0,0,1,1.18-.21ZM96.23,77c-1.13-4.68-4.3-6.85-8.2-6.26a12,12,0,0,1,1,2.71c1.79,7.42-2.27,18.38-9,24.48a14.45,14.45,0,0,1-7.27,3.84c2.67,4.88,8.64,5,14.48-.29C94,95.35,98,84.39,96.23,77Zm-2-32.08h0a1.5,1.5,0,0,0-.48-.15L89.3,44a2.4,2.4,0,0,0-2.42,1.32l-3.62,8.18a3.63,3.63,0,0,1-.86,1.11h0a4.15,4.15,0,0,1-.67.52l1.58,4.22a1.51,1.51,0,0,0,2.14.81,22,22,0,0,1,2.65-1.07,4.59,4.59,0,0,0,1.52-.92,3.47,3.47,0,0,0,.86-1.13l3.61-8.17a2.41,2.41,0,0,1,2.42-1.32l4.48.7a1.58,1.58,0,0,1,.45.14Zm-7.35,77.22a1.31,1.31,0,0,1-.46-.64l-1.82-4.85a1.49,1.49,0,0,0-2.14-.81,20.13,20.13,0,0,1-2.65,1.07,3.81,3.81,0,0,0-.83.42l.24.62a1.24,1.24,0,0,0,.61.72h0ZM73.66,50.26a1,1,0,0,0-.49-.09,1.29,1.29,0,0,0-.79.36l-6.26,5.62a2,2,0,0,0-.24.26,1.46,1.46,0,0,0-.16.21,4.67,4.67,0,0,0-.51,1.08,2.44,2.44,0,0,0-.06.26h0a2.88,2.88,0,0,0-.1,1.07l.8,6.25A5,5,0,0,1,65,68.39a50.15,50.15,0,0,0-2.79,4.25,3.32,3.32,0,0,1-1.39,1.22,3.19,3.19,0,0,1-.56.21,1.28,1.28,0,0,1-.28.07,1.57,1.57,0,0,1-.37,0l-4.26.07h-.1a2,2,0,0,0-.34.06,1.58,1.58,0,0,0-.31.09s0,0,0,0a1.5,1.5,0,0,0-.34.16,3.51,3.51,0,0,0-.59.42,2.63,2.63,0,0,0-.62.91l-3.39,9.2a1.68,1.68,0,0,0,.81,2.1l4.89,2.4a2.15,2.15,0,0,1,.18,1.22,38,38,0,0,0-.45,4.31,5.38,5.38,0,0,1-1.23,3l-.07.06-5.43,5.7a2.1,2.1,0,0,0-.26.33l0,.06a1.36,1.36,0,0,0-.2.4,3.37,3.37,0,0,0-.3,2.16l1.53,6.3a1.24,1.24,0,0,0,.56.83l7.18,3.53a1.26,1.26,0,0,1-.54-.81l-1.52-6.3a3.17,3.17,0,0,1,0-1.23,3.44,3.44,0,0,1,.8-1.72l5.43-5.7.06-.06a5.39,5.39,0,0,0,1.24-3,38,38,0,0,1,.46-4.31,2.15,2.15,0,0,0-1.34-2.29l-3.52-1.23a1.7,1.7,0,0,1-1-2.2l3.39-9.2a2.34,2.34,0,0,1,.63-.91,2.7,2.7,0,0,1,1.71-.76l4.26-.07a2.7,2.7,0,0,0,1.21-.32,3.29,3.29,0,0,0,1.38-1.22c.87-1.46,1.8-2.89,2.79-4.25a4.9,4.9,0,0,0,.83-3.11l-.81-6.24a3,3,0,0,1,.09-1.1,3.56,3.56,0,0,1,1-1.79l6.25-5.62a1.13,1.13,0,0,1,1.3-.27Zm-5.49,67.28a2.92,2.92,0,0,0-.87-2.74,11,11,0,0,1-1.23-1.32,1.7,1.7,0,0,0-2.38-.38l-3.19,2.42-2,6.71a1.45,1.45,0,0,0,.71,1.75v0l7.23,3.55a1.45,1.45,0,0,1-.71-1.76Z" style="opacity:0.05"></path><path d="M61,101.75l-5.43,5.7a3.44,3.44,0,0,0-.8,1.72l-7.19-3.54a3.67,3.67,0,0,1,.29-.94,1.36,1.36,0,0,1,.2-.4l0-.06a2.1,2.1,0,0,1,.26-.33l5.43-5.7Z" style="fill:#8D72E1"></path><path d="M68.07,77.41a2.7,2.7,0,0,1-1.21.32l-4.26.07a2.7,2.7,0,0,0-1.71.76L53.68,75a3.51,3.51,0,0,1,.59-.42,1.5,1.5,0,0,1,.34-.16s0,0,0,0a1.58,1.58,0,0,1,.31-.09,2,2,0,0,1,.34-.06h.1l4.26-.07a1.57,1.57,0,0,0,.37,0l.28-.07c.18-.06.36-.14.54-.22h0Z" style="fill:#8D72E1"></path><path d="M111,58.45a1.13,1.13,0,0,0-1.18.22l-5.59,4.23a1.7,1.7,0,0,1-2.38-.37,10.4,10.4,0,0,0-1.24-1.32,2.9,2.9,0,0,1-.86-2.74l.45-1.53,2.4-1.81a1.13,1.13,0,0,1,1.21-.2h0Z" style="fill:#8D72E1"></path><path d="M101.43,48.43a1.58,1.58,0,0,0-.45-.14l-4.48-.7a2.41,2.41,0,0,0-2.42,1.32l-3.61,8.17a3.47,3.47,0,0,1-.86,1.13L82.4,54.65a3.63,3.63,0,0,0,.86-1.11l3.62-8.18A2.4,2.4,0,0,1,89.3,44l4.46.71a1.5,1.5,0,0,1,.48.15h0Z" style="fill:#8D72E1"></path><path d="M80.88,53.81a1.13,1.13,0,0,0-1.3.27L73.33,59.7a3.56,3.56,0,0,0-1,1.79L65.15,58a2.44,2.44,0,0,1,.06-.26,4.67,4.67,0,0,1,.51-1.08,1.46,1.46,0,0,1,.16-.21,2,2,0,0,1,.24-.26l6.26-5.62a1.29,1.29,0,0,1,.79-.36,1,1,0,0,1,.49.09Z" style="fill:#8D72E1"></path><path d="M61,101.75l-5.43,5.7a3.44,3.44,0,0,0-.8,1.72l-7.19-3.54a3.67,3.67,0,0,1,.29-.94,1.36,1.36,0,0,1,.2-.4l0-.06a2.1,2.1,0,0,1,.26-.33l5.43-5.7Z" style="fill:#fff;opacity:0.9"></path><path d="M68.07,77.41a2.7,2.7,0,0,1-1.21.32l-4.26.07a2.7,2.7,0,0,0-1.71.76L53.68,75a3.51,3.51,0,0,1,.59-.42,1.5,1.5,0,0,1,.34-.16s0,0,0,0a1.58,1.58,0,0,1,.31-.09,2,2,0,0,1,.34-.06h.1l4.26-.07a1.57,1.57,0,0,0,.37,0l.28-.07c.18-.06.36-.14.54-.22h0Z" style="fill:#fff;opacity:0.9"></path><path d="M111,58.45a1.13,1.13,0,0,0-1.18.22l-5.59,4.23a1.7,1.7,0,0,1-2.38-.37,10.4,10.4,0,0,0-1.24-1.32,2.9,2.9,0,0,1-.86-2.74l.45-1.53,2.4-1.81a1.13,1.13,0,0,1,1.21-.2h0Z" style="fill:#fff;opacity:0.9"></path><path d="M101.43,48.43a1.58,1.58,0,0,0-.45-.14l-4.48-.7a2.41,2.41,0,0,0-2.42,1.32l-3.61,8.17a3.47,3.47,0,0,1-.86,1.13L82.4,54.65a3.63,3.63,0,0,0,.86-1.11l3.62-8.18A2.4,2.4,0,0,1,89.3,44l4.46.71a1.5,1.5,0,0,1,.48.15h0Z" style="fill:#fff;opacity:0.9"></path><path d="M80.88,53.81a1.13,1.13,0,0,0-1.3.27L73.33,59.7a3.56,3.56,0,0,0-1,1.79L65.15,58a2.44,2.44,0,0,1,.06-.26,4.67,4.67,0,0,1,.51-1.08,1.46,1.46,0,0,1,.16-.21,2,2,0,0,1,.24-.26l6.26-5.62a1.29,1.29,0,0,1,.79-.36,1,1,0,0,1,.49.09Z" style="fill:#fff;opacity:0.9"></path><path d="M113.13,65.61l-1.52-6.3a1.06,1.06,0,0,0-1.8-.64l-5.58,4.23a1.7,1.7,0,0,1-2.38-.37,13,13,0,0,0-1.23-1.32,2.9,2.9,0,0,1-.87-2.74l2.45-8.25A1.48,1.48,0,0,0,101,48.29l-4.46-.69a2.38,2.38,0,0,0-2.42,1.32l-3.62,8.16a4.33,4.33,0,0,1-2.37,2,22.5,22.5,0,0,0-2.66,1.08,1.5,1.5,0,0,1-2.14-.81l-1.82-4.85a1.1,1.1,0,0,0-1.9-.46L73.33,59.7a3.72,3.72,0,0,0-1.07,2.88l.81,6.25a5.05,5.05,0,0,1-.82,3.11c-1,1.36-1.93,2.79-2.8,4.26a3.4,3.4,0,0,1-2.59,1.53l-4.26.07a2.72,2.72,0,0,0-2.33,1.66l-3.4,9.2a1.71,1.71,0,0,0,1,2.21l3.52,1.23a2.13,2.13,0,0,1,1.33,2.28,40.87,40.87,0,0,0-.45,4.32,5.42,5.42,0,0,1-1.24,3l-5.49,5.76a3.56,3.56,0,0,0-.79,2.94l1.52,6.31a1.05,1.05,0,0,0,1.79.63l5.59-4.22a1.7,1.7,0,0,1,2.38.37,11.92,11.92,0,0,0,1.23,1.32,2.92,2.92,0,0,1,.87,2.73l-2.45,8.26a1.48,1.48,0,0,0,1.22,1.93l4.47.69a2.38,2.38,0,0,0,2.42-1.32l3.62-8.16a4.35,4.35,0,0,1,2.37-2.05,20.7,20.7,0,0,0,2.65-1.07,1.5,1.5,0,0,1,2.15.81l1.81,4.84a1.1,1.1,0,0,0,1.9.47l6.26-5.63a3.72,3.72,0,0,0,1.07-2.88l-.81-6.25a4.94,4.94,0,0,1,.82-3.1q1.5-2.05,2.8-4.26a3.39,3.39,0,0,1,2.59-1.54l4.26-.07a2.74,2.74,0,0,0,2.33-1.66l3.4-9.2a1.7,1.7,0,0,0-1-2.2l-3.52-1.24a2.11,2.11,0,0,1-1.33-2.28,40.68,40.68,0,0,0,.45-4.31,5.22,5.22,0,0,1,1.24-3l5.48-5.76A3.56,3.56,0,0,0,113.13,65.61ZM87.2,101.44c-6.78,6.1-13.72,5-15.51-2.4s2.25-18.38,9-24.48,13.72-5,15.51,2.41S94,95.35,87.2,101.44Z" style="fill:#8D72E1"></path><path d="M113.13,65.61l-1.52-6.3a1.06,1.06,0,0,0-1.8-.64l-5.58,4.23a1.7,1.7,0,0,1-2.38-.37,13,13,0,0,0-1.23-1.32,2.9,2.9,0,0,1-.87-2.74l2.45-8.25A1.48,1.48,0,0,0,101,48.29l-4.46-.69a2.38,2.38,0,0,0-2.42,1.32l-3.62,8.16a4.33,4.33,0,0,1-2.37,2,22.5,22.5,0,0,0-2.66,1.08,1.5,1.5,0,0,1-2.14-.81l-1.82-4.85a1.1,1.1,0,0,0-1.9-.46L73.33,59.7a3.72,3.72,0,0,0-1.07,2.88l.81,6.25a5.05,5.05,0,0,1-.82,3.11c-1,1.36-1.93,2.79-2.8,4.26a3.4,3.4,0,0,1-2.59,1.53l-4.26.07a2.72,2.72,0,0,0-2.33,1.66l-3.4,9.2a1.71,1.71,0,0,0,1,2.21l3.52,1.23a2.13,2.13,0,0,1,1.33,2.28,40.87,40.87,0,0,0-.45,4.32,5.42,5.42,0,0,1-1.24,3l-5.49,5.76a3.56,3.56,0,0,0-.79,2.94l1.52,6.31a1.05,1.05,0,0,0,1.79.63l5.59-4.22a1.7,1.7,0,0,1,2.38.37,11.92,11.92,0,0,0,1.23,1.32,2.92,2.92,0,0,1,.87,2.73l-2.45,8.26a1.48,1.48,0,0,0,1.22,1.93l4.47.69a2.38,2.38,0,0,0,2.42-1.32l3.62-8.16a4.35,4.35,0,0,1,2.37-2.05,20.7,20.7,0,0,0,2.65-1.07,1.5,1.5,0,0,1,2.15.81l1.81,4.84a1.1,1.1,0,0,0,1.9.47l6.26-5.63a3.72,3.72,0,0,0,1.07-2.88l-.81-6.25a4.94,4.94,0,0,1,.82-3.1q1.5-2.05,2.8-4.26a3.39,3.39,0,0,1,2.59-1.54l4.26-.07a2.74,2.74,0,0,0,2.33-1.66l3.4-9.2a1.7,1.7,0,0,0-1-2.2l-3.52-1.24a2.11,2.11,0,0,1-1.33-2.28,40.68,40.68,0,0,0,.45-4.31,5.22,5.22,0,0,1,1.24-3l5.48-5.76A3.56,3.56,0,0,0,113.13,65.61ZM87.2,101.44c-6.78,6.1-13.72,5-15.51-2.4s2.25-18.38,9-24.48,13.72-5,15.51,2.41S94,95.35,87.2,101.44Z" style="fill:#fff;opacity:0.75"></path></g></g></svg>