<svg width="60" height="84" viewBox="0 0 60 84" fill="none" xmlns="http://www.w3.org/2000/svg">
<path d="M5.974 80C5.75 80 5.554 79.9347 5.386 79.804C5.218 79.664 5.134 79.4913 5.134 79.286V70.914C5.134 70.7087 5.204 70.5407 5.344 70.41C5.484 70.27 5.652 70.2 5.848 70.2H9.796C10.3 70.2 10.762 70.326 11.182 70.578C11.602 70.8207 11.938 71.1613 12.19 71.6C12.4513 72.0293 12.582 72.524 12.582 73.084C12.582 73.4573 12.5073 73.8167 12.358 74.162C12.2087 74.498 12.008 74.7967 11.756 75.058C11.504 75.3193 11.2193 75.5153 10.902 75.646L10.748 75.38C11.0373 75.4827 11.2893 75.632 11.504 75.828C11.7187 76.0147 11.8867 76.2387 12.008 76.5C12.1387 76.752 12.2087 77.0413 12.218 77.368C12.246 77.6573 12.2693 77.9 12.288 78.096C12.316 78.2827 12.3533 78.4367 12.4 78.558C12.4467 78.6793 12.5307 78.7727 12.652 78.838C12.82 78.9313 12.9227 79.0713 12.96 79.258C13.0067 79.4447 12.9693 79.6127 12.848 79.762C12.764 79.874 12.6567 79.9487 12.526 79.986C12.4047 80.014 12.2787 80.0187 12.148 80C12.0173 79.972 11.9053 79.9347 11.812 79.888C11.6627 79.7947 11.5087 79.664 11.35 79.496C11.2007 79.3187 11.0793 79.076 10.986 78.768C10.8927 78.46 10.846 78.054 10.846 77.55C10.846 77.3167 10.8087 77.116 10.734 76.948C10.6593 76.78 10.5567 76.6447 10.426 76.542C10.2953 76.43 10.1413 76.3507 9.964 76.304C9.78667 76.248 9.59067 76.22 9.376 76.22H6.408L6.604 75.94V79.286C6.604 79.4913 6.548 79.664 6.436 79.804C6.324 79.9347 6.17 80 5.974 80ZM6.422 75.002H9.768C9.98267 74.9927 10.188 74.9087 10.384 74.75C10.5893 74.582 10.7527 74.358 10.874 74.078C11.0047 73.798 11.07 73.4807 11.07 73.126C11.07 72.678 10.9347 72.3047 10.664 72.006C10.4027 71.698 10.09 71.544 9.726 71.544H6.45L6.604 71.18V75.296L6.422 75.002ZM15.8253 79.286C15.8253 79.4913 15.76 79.664 15.6293 79.804C15.4986 79.9347 15.3306 80 15.1253 80C14.9293 80 14.7613 79.9347 14.6213 79.804C14.4906 79.664 14.4253 79.4913 14.4253 79.286V73.294C14.4253 73.0887 14.4906 72.9207 14.6213 72.79C14.7613 72.65 14.9293 72.58 15.1253 72.58C15.3306 72.58 15.4986 72.65 15.6293 72.79C15.76 72.9207 15.8253 73.0887 15.8253 73.294V79.286ZM15.1113 71.656C14.8406 71.656 14.6446 71.6093 14.5233 71.516C14.402 71.4133 14.3413 71.2453 14.3413 71.012V70.788C14.3413 70.5547 14.4066 70.3913 14.5373 70.298C14.668 70.2047 14.864 70.158 15.1253 70.158C15.4053 70.158 15.606 70.2093 15.7273 70.312C15.8486 70.4053 15.9093 70.564 15.9093 70.788V71.012C15.9093 71.2547 15.844 71.4227 15.7133 71.516C15.592 71.6093 15.3913 71.656 15.1113 71.656ZM26.2905 72.566C26.4678 72.566 26.6218 72.636 26.7525 72.776C26.8925 72.9067 26.9625 73.0793 26.9625 73.294C26.9625 73.3407 26.9578 73.3873 26.9485 73.434C26.9392 73.4807 26.9252 73.5227 26.9065 73.56L24.7645 79.552C24.7085 79.7107 24.6105 79.832 24.4705 79.916C24.3305 79.9907 24.1858 80.0187 24.0365 80C23.7658 79.9813 23.5652 79.832 23.4345 79.552L21.8525 75.352L22.1745 75.38L20.7185 79.552C20.5878 79.832 20.3872 79.9813 20.1165 80C19.9765 80.0187 19.8318 79.9907 19.6825 79.916C19.5425 79.832 19.4445 79.7107 19.3885 79.552L17.2325 73.56C17.1952 73.476 17.1765 73.3873 17.1765 73.294C17.1765 73.098 17.2372 72.93 17.3585 72.79C17.4892 72.6407 17.6618 72.566 17.8765 72.566C18.0258 72.566 18.1565 72.6033 18.2685 72.678C18.3898 72.7527 18.4738 72.8647 18.5205 73.014L20.3125 78.068L19.9905 78.04L21.4465 74.218C21.5678 73.9287 21.7825 73.784 22.0905 73.784C22.2585 73.784 22.3892 73.8213 22.4825 73.896C22.5758 73.9707 22.6505 74.078 22.7065 74.218L24.1905 78.054L23.8125 78.096L25.6185 73.014C25.7118 72.7153 25.9358 72.566 26.2905 72.566ZM34.4749 72.524C34.6803 72.524 34.8483 72.594 34.9789 72.734C35.1096 72.8647 35.1749 73.0327 35.1749 73.238V79.286C35.1749 79.4913 35.1096 79.664 34.9789 79.804C34.8483 79.9347 34.6803 80 34.4749 80C34.2789 80 34.1109 79.9347 33.9709 79.804C33.8403 79.664 33.7749 79.4913 33.7749 79.286V78.278L34.0689 78.32C34.0689 78.488 33.9989 78.6747 33.8589 78.88C33.7283 79.0853 33.5463 79.286 33.3129 79.482C33.0796 79.6687 32.8043 79.8273 32.4869 79.958C32.1696 80.0793 31.8289 80.14 31.4649 80.14C30.8209 80.14 30.2423 79.9767 29.7289 79.65C29.2156 79.314 28.8096 78.8567 28.5109 78.278C28.2123 77.6993 28.0629 77.0413 28.0629 76.304C28.0629 75.548 28.2123 74.8853 28.5109 74.316C28.8096 73.7373 29.2109 73.2847 29.7149 72.958C30.2283 72.6313 30.7976 72.468 31.4229 72.468C31.8243 72.468 32.1929 72.5333 32.5289 72.664C32.8743 72.7947 33.1729 72.9627 33.4249 73.168C33.6769 73.3733 33.8683 73.5927 33.9989 73.826C34.1389 74.05 34.2089 74.2647 34.2089 74.47L33.7749 74.512V73.238C33.7749 73.042 33.8403 72.874 33.9709 72.734C34.1109 72.594 34.2789 72.524 34.4749 72.524ZM31.6189 78.852C32.0576 78.852 32.4449 78.74 32.7809 78.516C33.1169 78.292 33.3783 77.9887 33.5649 77.606C33.7516 77.214 33.8449 76.78 33.8449 76.304C33.8449 75.8187 33.7516 75.3847 33.5649 75.002C33.3783 74.6193 33.1169 74.316 32.7809 74.092C32.4449 73.868 32.0576 73.756 31.6189 73.756C31.1896 73.756 30.8069 73.868 30.4709 74.092C30.1443 74.316 29.8829 74.6193 29.6869 75.002C29.5003 75.3847 29.4069 75.8187 29.4069 76.304C29.4069 76.78 29.5003 77.214 29.6869 77.606C29.8829 77.9887 30.1443 78.292 30.4709 78.516C30.8069 78.74 31.1896 78.852 31.6189 78.852ZM42.6103 72.58C42.8156 72.58 42.9836 72.65 43.1143 72.79C43.2449 72.9207 43.3103 73.0887 43.3103 73.294V79.314C43.3103 80.1353 43.1516 80.8027 42.8343 81.316C42.5263 81.8293 42.1063 82.2027 41.5743 82.436C41.0516 82.6787 40.4589 82.8 39.7963 82.8C39.4603 82.8 39.1243 82.7673 38.7883 82.702C38.4523 82.646 38.1769 82.562 37.9623 82.45C37.7383 82.3473 37.5796 82.2213 37.4863 82.072C37.3929 81.9227 37.3789 81.7593 37.4443 81.582C37.5096 81.358 37.6216 81.204 37.7803 81.12C37.9389 81.0453 38.1023 81.0407 38.2703 81.106C38.4289 81.1713 38.6389 81.2553 38.9003 81.358C39.1616 81.4607 39.4603 81.512 39.7963 81.512C40.2536 81.512 40.6409 81.4373 40.9583 81.288C41.2756 81.1387 41.5136 80.9053 41.6723 80.588C41.8403 80.2707 41.9243 79.86 41.9243 79.356V78.39L42.1483 78.726C41.9989 79.034 41.8029 79.2907 41.5603 79.496C41.3176 79.7013 41.0283 79.86 40.6923 79.972C40.3656 80.084 40.0016 80.14 39.6003 80.14C39.0869 80.14 38.6436 80.028 38.2703 79.804C37.9063 79.5707 37.6263 79.2533 37.4303 78.852C37.2343 78.4413 37.1363 77.9747 37.1363 77.452V73.294C37.1363 73.0887 37.2016 72.9207 37.3323 72.79C37.4629 72.65 37.6309 72.58 37.8363 72.58C38.0323 72.58 38.1956 72.65 38.3263 72.79C38.4663 72.9207 38.5363 73.0887 38.5363 73.294V77.074C38.5363 77.69 38.6716 78.1427 38.9423 78.432C39.2129 78.712 39.6143 78.852 40.1463 78.852C40.5009 78.852 40.8089 78.7773 41.0703 78.628C41.3316 78.4787 41.5369 78.2733 41.6863 78.012C41.8356 77.7413 41.9103 77.4287 41.9103 77.074V73.294C41.9103 73.0887 41.9756 72.9207 42.1063 72.79C42.2463 72.65 42.4143 72.58 42.6103 72.58ZM51.305 72.524C51.5103 72.524 51.6783 72.594 51.809 72.734C51.9397 72.8647 52.005 73.0327 52.005 73.238V79.286C52.005 79.4913 51.9397 79.664 51.809 79.804C51.6783 79.9347 51.5103 80 51.305 80C51.109 80 50.941 79.9347 50.801 79.804C50.6703 79.664 50.605 79.4913 50.605 79.286V78.278L50.899 78.32C50.899 78.488 50.829 78.6747 50.689 78.88C50.5583 79.0853 50.3763 79.286 50.143 79.482C49.9097 79.6687 49.6343 79.8273 49.317 79.958C48.9997 80.0793 48.659 80.14 48.295 80.14C47.651 80.14 47.0723 79.9767 46.559 79.65C46.0457 79.314 45.6397 78.8567 45.341 78.278C45.0423 77.6993 44.893 77.0413 44.893 76.304C44.893 75.548 45.0423 74.8853 45.341 74.316C45.6397 73.7373 46.041 73.2847 46.545 72.958C47.0583 72.6313 47.6277 72.468 48.253 72.468C48.6543 72.468 49.023 72.5333 49.359 72.664C49.7043 72.7947 50.003 72.9627 50.255 73.168C50.507 73.3733 50.6983 73.5927 50.829 73.826C50.969 74.05 51.039 74.2647 51.039 74.47L50.605 74.512V73.238C50.605 73.042 50.6703 72.874 50.801 72.734C50.941 72.594 51.109 72.524 51.305 72.524ZM48.449 78.852C48.8877 78.852 49.275 78.74 49.611 78.516C49.947 78.292 50.2083 77.9887 50.395 77.606C50.5817 77.214 50.675 76.78 50.675 76.304C50.675 75.8187 50.5817 75.3847 50.395 75.002C50.2083 74.6193 49.947 74.316 49.611 74.092C49.275 73.868 48.8877 73.756 48.449 73.756C48.0197 73.756 47.637 73.868 47.301 74.092C46.9743 74.316 46.713 74.6193 46.517 75.002C46.3303 75.3847 46.237 75.8187 46.237 76.304C46.237 76.78 46.3303 77.214 46.517 77.606C46.713 77.9887 46.9743 78.292 47.301 78.516C47.637 78.74 48.0197 78.852 48.449 78.852ZM53.8683 72.72H57.1583C57.345 72.72 57.499 72.7853 57.6203 72.916C57.751 73.0373 57.8163 73.1913 57.8163 73.378C57.8163 73.5553 57.751 73.7047 57.6203 73.826C57.499 73.9473 57.345 74.008 57.1583 74.008H53.8683C53.6817 74.008 53.523 73.9473 53.3923 73.826C53.271 73.6953 53.2103 73.5413 53.2103 73.364C53.2103 73.1773 53.271 73.0233 53.3923 72.902C53.523 72.7807 53.6817 72.72 53.8683 72.72ZM55.3383 70.9C55.5437 70.9 55.7117 70.97 55.8423 71.11C55.973 71.2407 56.0383 71.4087 56.0383 71.614V78.11C56.0383 78.278 56.0663 78.4133 56.1223 78.516C56.1783 78.6187 56.253 78.6887 56.3463 78.726C56.449 78.7633 56.5517 78.782 56.6543 78.782C56.757 78.782 56.8457 78.7633 56.9203 78.726C57.0043 78.6887 57.1023 78.67 57.2143 78.67C57.3263 78.67 57.429 78.7213 57.5223 78.824C57.6157 78.9267 57.6623 79.0667 57.6623 79.244C57.6623 79.468 57.541 79.65 57.2983 79.79C57.0557 79.93 56.7943 80 56.5143 80C56.3557 80 56.169 79.986 55.9543 79.958C55.7397 79.93 55.5297 79.86 55.3243 79.748C55.1283 79.636 54.965 79.4587 54.8343 79.216C54.7037 78.964 54.6383 78.614 54.6383 78.166V71.614C54.6383 71.4087 54.7037 71.2407 54.8343 71.11C54.9743 70.97 55.1423 70.9 55.3383 70.9Z" fill="black"/>
<rect width="60" height="60" rx="10" fill="#FAB464"/>
<path d="M30.6667 14C26.6884 14 22.8731 15.5804 20.0601 18.3934C17.247 21.2064 15.6667 25.0218 15.6667 29H10.6667L17.15 35.4833L17.2667 35.7167L24 29H19C19 22.55 24.2167 17.3333 30.6667 17.3333C37.1167 17.3333 42.3333 22.55 42.3333 29C42.3333 35.45 37.1167 40.6667 30.6667 40.6667C27.45 40.6667 24.5333 39.35 22.4333 37.2333L20.0667 39.6C21.4557 40.9967 23.1075 42.1046 24.9268 42.8597C26.7461 43.6149 28.6969 44.0025 30.6667 44C34.6449 44 38.4602 42.4196 41.2733 39.6066C44.0863 36.7936 45.6667 32.9782 45.6667 29C45.6667 25.0218 44.0863 21.2064 41.2733 18.3934C38.4602 15.5804 34.6449 14 30.6667 14ZM29 22.3333V30.6667L36.1333 34.9L37.3333 32.8833L31.5 29.4167V22.3333H29Z" fill="white"/>
</svg>
