<svg width="60" height="84" viewBox="0 0 60 84" fill="none" xmlns="http://www.w3.org/2000/svg">
<path d="M15.144 80.14C14.472 80.14 13.8747 80.0467 13.352 79.86C12.8293 79.6733 12.33 79.3653 11.854 78.936C11.7513 78.8613 11.672 78.7727 11.616 78.67C11.5693 78.558 11.546 78.446 11.546 78.334C11.546 78.1567 11.6113 77.998 11.742 77.858C11.8727 77.718 12.036 77.648 12.232 77.648C12.3813 77.648 12.5213 77.6993 12.652 77.802C13.0067 78.1287 13.3753 78.376 13.758 78.544C14.15 78.712 14.6073 78.796 15.13 78.796C15.5033 78.796 15.844 78.7353 16.152 78.614C16.4693 78.4927 16.7213 78.3293 16.908 78.124C17.0947 77.9187 17.188 77.6807 17.188 77.41C17.188 77.074 17.09 76.7987 16.894 76.584C16.7073 76.36 16.432 76.178 16.068 76.038C15.7133 75.8887 15.284 75.7627 14.78 75.66C14.3133 75.576 13.8933 75.4593 13.52 75.31C13.156 75.1607 12.8433 74.974 12.582 74.75C12.3207 74.5167 12.12 74.2413 11.98 73.924C11.84 73.6067 11.77 73.238 11.77 72.818C11.77 72.2487 11.9193 71.7587 12.218 71.348C12.5167 70.9373 12.9227 70.62 13.436 70.396C13.9493 70.172 14.528 70.06 15.172 70.06C15.76 70.06 16.3107 70.1533 16.824 70.34C17.3373 70.5173 17.7527 70.76 18.07 71.068C18.294 71.264 18.406 71.474 18.406 71.698C18.406 71.866 18.336 72.0247 18.196 72.174C18.0653 72.314 17.9113 72.384 17.734 72.384C17.6033 72.384 17.4913 72.3467 17.398 72.272C17.2487 72.1133 17.048 71.9733 16.796 71.852C16.544 71.7213 16.2733 71.614 15.984 71.53C15.704 71.446 15.4333 71.404 15.172 71.404C14.752 71.404 14.3927 71.4647 14.094 71.586C13.7953 71.698 13.5667 71.8567 13.408 72.062C13.2493 72.258 13.17 72.4913 13.17 72.762C13.17 73.0793 13.2587 73.3407 13.436 73.546C13.6227 73.7513 13.8793 73.9193 14.206 74.05C14.5327 74.1713 14.906 74.2833 15.326 74.386C15.8393 74.498 16.2967 74.624 16.698 74.764C17.1087 74.904 17.454 75.086 17.734 75.31C18.014 75.5247 18.2287 75.7953 18.378 76.122C18.5273 76.4487 18.602 76.8547 18.602 77.34C18.602 77.9 18.4433 78.39 18.126 78.81C17.8087 79.23 17.3887 79.5567 16.866 79.79C16.3527 80.0233 15.7787 80.14 15.144 80.14ZM21.4855 79.286C21.4855 79.4913 21.4201 79.664 21.2895 79.804C21.1588 79.9347 20.9908 80 20.7855 80C20.5895 80 20.4215 79.9347 20.2815 79.804C20.1508 79.664 20.0855 79.4913 20.0855 79.286V73.294C20.0855 73.0887 20.1508 72.9207 20.2815 72.79C20.4215 72.65 20.5895 72.58 20.7855 72.58C20.9908 72.58 21.1588 72.65 21.2895 72.79C21.4201 72.9207 21.4855 73.0887 21.4855 73.294V79.286ZM20.7715 71.656C20.5008 71.656 20.3048 71.6093 20.1835 71.516C20.0621 71.4133 20.0015 71.2453 20.0015 71.012V70.788C20.0015 70.5547 20.0668 70.3913 20.1975 70.298C20.3281 70.2047 20.5241 70.158 20.7855 70.158C21.0655 70.158 21.2661 70.2093 21.3875 70.312C21.5088 70.4053 21.5695 70.564 21.5695 70.788V71.012C21.5695 71.2547 21.5041 71.4227 21.3735 71.516C21.2521 71.6093 21.0515 71.656 20.7715 71.656ZM22.9347 78.852C22.8507 78.7213 22.8133 78.572 22.8227 78.404C22.832 78.2267 22.93 78.0773 23.1167 77.956C23.2473 77.872 23.3827 77.8393 23.5227 77.858C23.672 77.8673 23.812 77.9373 23.9427 78.068C24.204 78.3573 24.4933 78.586 24.8107 78.754C25.1373 78.922 25.5293 79.006 25.9867 79.006C26.1733 78.9967 26.3647 78.9687 26.5607 78.922C26.7567 78.866 26.9247 78.7727 27.0647 78.642C27.2047 78.502 27.2747 78.3013 27.2747 78.04C27.2747 77.8067 27.2 77.62 27.0507 77.48C26.9013 77.34 26.7053 77.228 26.4627 77.144C26.22 77.0507 25.9587 76.9667 25.6787 76.892C25.38 76.808 25.0767 76.7147 24.7687 76.612C24.47 76.5093 24.1993 76.3787 23.9567 76.22C23.714 76.052 23.5133 75.8373 23.3547 75.576C23.2053 75.3147 23.1307 74.9927 23.1307 74.61C23.1307 74.1713 23.252 73.7933 23.4947 73.476C23.7467 73.1587 24.0687 72.9113 24.4607 72.734C24.862 72.5567 25.296 72.468 25.7627 72.468C26.0333 72.468 26.318 72.5053 26.6167 72.58C26.9153 72.6453 27.2047 72.7527 27.4847 72.902C27.7647 73.0513 28.0073 73.2473 28.2127 73.49C28.306 73.6113 28.3573 73.756 28.3667 73.924C28.3853 74.092 28.3107 74.2413 28.1427 74.372C28.0307 74.4653 27.8953 74.5073 27.7367 74.498C27.578 74.4887 27.4473 74.4373 27.3447 74.344C27.1673 74.12 26.9387 73.9473 26.6587 73.826C26.3787 73.6953 26.0613 73.63 25.7067 73.63C25.5293 73.63 25.3427 73.658 25.1467 73.714C24.96 73.7607 24.8013 73.8493 24.6707 73.98C24.54 74.1107 24.4747 74.302 24.4747 74.554C24.4747 74.7873 24.5493 74.974 24.6987 75.114C24.8573 75.254 25.0627 75.3707 25.3147 75.464C25.5667 75.5573 25.842 75.6413 26.1407 75.716C26.43 75.7907 26.7147 75.8793 26.9947 75.982C27.284 76.0847 27.5407 76.22 27.7647 76.388C27.998 76.5467 28.1847 76.7567 28.3247 77.018C28.474 77.27 28.5487 77.592 28.5487 77.984C28.5487 78.4413 28.4133 78.8333 28.1427 79.16C27.8813 79.4773 27.5453 79.72 27.1347 79.888C26.7333 80.056 26.3087 80.14 25.8607 80.14C25.3287 80.14 24.7967 80.0467 24.2647 79.86C23.742 79.664 23.2987 79.328 22.9347 78.852ZM38.6362 72.566C38.8136 72.566 38.9676 72.636 39.0982 72.776C39.2382 72.9067 39.3082 73.0793 39.3082 73.294C39.3082 73.3407 39.3036 73.3873 39.2942 73.434C39.2849 73.4807 39.2709 73.5227 39.2522 73.56L37.1102 79.552C37.0542 79.7107 36.9562 79.832 36.8162 79.916C36.6762 79.9907 36.5316 80.0187 36.3822 80C36.1116 79.9813 35.9109 79.832 35.7802 79.552L34.1982 75.352L34.5202 75.38L33.0642 79.552C32.9336 79.832 32.7329 79.9813 32.4622 80C32.3222 80.0187 32.1776 79.9907 32.0282 79.916C31.8882 79.832 31.7902 79.7107 31.7342 79.552L29.5782 73.56C29.5409 73.476 29.5222 73.3873 29.5222 73.294C29.5222 73.098 29.5829 72.93 29.7042 72.79C29.8349 72.6407 30.0076 72.566 30.2222 72.566C30.3716 72.566 30.5022 72.6033 30.6142 72.678C30.7356 72.7527 30.8196 72.8647 30.8662 73.014L32.6582 78.068L32.3362 78.04L33.7922 74.218C33.9136 73.9287 34.1282 73.784 34.4362 73.784C34.6042 73.784 34.7349 73.8213 34.8282 73.896C34.9216 73.9707 34.9962 74.078 35.0522 74.218L36.5362 78.054L36.1582 78.096L37.9642 73.014C38.0576 72.7153 38.2816 72.566 38.6362 72.566ZM46.8206 72.524C47.026 72.524 47.194 72.594 47.3246 72.734C47.4553 72.8647 47.5206 73.0327 47.5206 73.238V79.286C47.5206 79.4913 47.4553 79.664 47.3246 79.804C47.194 79.9347 47.026 80 46.8206 80C46.6246 80 46.4566 79.9347 46.3166 79.804C46.186 79.664 46.1206 79.4913 46.1206 79.286V78.278L46.4146 78.32C46.4146 78.488 46.3446 78.6747 46.2046 78.88C46.074 79.0853 45.892 79.286 45.6586 79.482C45.4253 79.6687 45.15 79.8273 44.8326 79.958C44.5153 80.0793 44.1746 80.14 43.8106 80.14C43.1666 80.14 42.588 79.9767 42.0746 79.65C41.5613 79.314 41.1553 78.8567 40.8566 78.278C40.558 77.6993 40.4086 77.0413 40.4086 76.304C40.4086 75.548 40.558 74.8853 40.8566 74.316C41.1553 73.7373 41.5566 73.2847 42.0606 72.958C42.574 72.6313 43.1433 72.468 43.7686 72.468C44.17 72.468 44.5386 72.5333 44.8746 72.664C45.22 72.7947 45.5186 72.9627 45.7706 73.168C46.0226 73.3733 46.214 73.5927 46.3446 73.826C46.4846 74.05 46.5546 74.2647 46.5546 74.47L46.1206 74.512V73.238C46.1206 73.042 46.186 72.874 46.3166 72.734C46.4566 72.594 46.6246 72.524 46.8206 72.524ZM43.9646 78.852C44.4033 78.852 44.7906 78.74 45.1266 78.516C45.4626 78.292 45.724 77.9887 45.9106 77.606C46.0973 77.214 46.1906 76.78 46.1906 76.304C46.1906 75.8187 46.0973 75.3847 45.9106 75.002C45.724 74.6193 45.4626 74.316 45.1266 74.092C44.7906 73.868 44.4033 73.756 43.9646 73.756C43.5353 73.756 43.1526 73.868 42.8166 74.092C42.49 74.316 42.2286 74.6193 42.0326 75.002C41.846 75.3847 41.7526 75.8187 41.7526 76.304C41.7526 76.78 41.846 77.214 42.0326 77.606C42.2286 77.9887 42.49 78.292 42.8166 78.516C43.1526 78.74 43.5353 78.852 43.9646 78.852Z" fill="black"/>
<rect width="60" height="60" rx="10" fill="#FAB464"/>
<path d="M37.5 25C37.5 28.6833 34.1437 31.6667 30 31.6667C25.8562 31.6667 22.5 28.6833 22.5 25L22.7062 23.4333L16.875 20.8333L30 15L43.125 20.8333V29.1667H41.25V21.6667L37.2938 23.4333L37.5 25ZM30 35C38.2875 35 45 37.9833 45 41.6667V45H15V41.6667C15 37.9833 21.7125 35 30 35Z" fill="white"/>
</svg>
